<svg id="Livello_1" data-name="Livello 1" xmlns="http://www.w3.org/2000/svg" viewBox="0 0 300 300"><defs><style>.cls-1{fill:#fff;}.cls-2{fill:#9d9d9d;}</style></defs><title>nethesis_commerciale</title><circle class="cls-1" cx="77.33" cy="136.62" r="10.77"/><path class="cls-2" d="M97.89,164a21.06,21.06,0,0,0-41.11,0,2.86,2.86,0,0,0,2.81,3.45H73.77l1.06-10.36h4.7l1.06,10.36H95.08A2.86,2.86,0,0,0,97.89,164Z"/><polygon class="cls-1" points="77.5 148.48 76.98 148.48 72.15 151.48 74.63 155.89 76.66 155.89 77.18 155.89 79.73 155.89 82.21 151.48 77.5 148.48"/><polygon class="cls-1" points="80.59 167.49 79.53 157.13 77.18 157.13 74.83 157.13 73.77 167.49 80.59 167.49"/><path class="cls-2" d="M84.49,131.29A9.6,9.6,0,0,1,79,129.54a9.67,9.67,0,0,1-11.82,3.66,10.77,10.77,0,1,0,19.42-2.13A10,10,0,0,1,84.49,131.29Z"/><path class="cls-2" d="M77.33,125.85a10.77,10.77,0,0,0-9.86,6.45,8.71,8.71,0,0,0,11.9-6.25A10.53,10.53,0,0,0,77.33,125.85Z"/><path class="cls-2" d="M80.3,126.27a9.62,9.62,0,0,1-.86,2.43,8.62,8.62,0,0,0,5,1.63,8,8,0,0,0,1.47-.14A10.82,10.82,0,0,0,80.3,126.27Z"/><path class="cls-2" d="M126.55,158.55a3.57,3.57,0,0,0-.42-1.44,3.09,3.09,0,0,0-.9-1,4,4,0,0,0-1.28-.63,5.67,5.67,0,0,0-1.57-.21,4.32,4.32,0,0,0-2,.46,4.53,4.53,0,0,0-1.49,1.25,5.45,5.45,0,0,0-.91,1.78,6.76,6.76,0,0,0-.32,2.05,8.78,8.78,0,0,0,.29,2.3,5.17,5.17,0,0,0,.89,1.84,4.17,4.17,0,0,0,1.49,1.21,4.7,4.7,0,0,0,2.09.43,4.36,4.36,0,0,0,1.59-.28,4.42,4.42,0,0,0,1.3-.8,4.13,4.13,0,0,0,.92-1.21,4.92,4.92,0,0,0,.48-1.55h.91a5.48,5.48,0,0,1-.6,2,4.59,4.59,0,0,1-1.15,1.45,4.67,4.67,0,0,1-1.58.9,5.57,5.57,0,0,1-1.87.32,5.65,5.65,0,0,1-2.58-.54,4.93,4.93,0,0,1-1.76-1.46,6,6,0,0,1-1-2.1,9.22,9.22,0,0,1-.33-2.48,8.21,8.21,0,0,1,.37-2.45,5.93,5.93,0,0,1,1.1-2A5.09,5.09,0,0,1,120,155a5.53,5.53,0,0,1,2.43-.51,6.67,6.67,0,0,1,1.88.26,4.9,4.9,0,0,1,1.56.75,4,4,0,0,1,1.12,1.29,4.62,4.62,0,0,1,.52,1.81Z"/><path class="cls-2" d="M129.14,160.9a8,8,0,0,1,.38-2.48,6.16,6.16,0,0,1,1.09-2.06,5.17,5.17,0,0,1,1.77-1.4,5.56,5.56,0,0,1,2.43-.52,5.49,5.49,0,0,1,2.42.52,5.11,5.11,0,0,1,1.78,1.4,6.35,6.35,0,0,1,1.09,2.06,8,8,0,0,1,.37,2.48,8.22,8.22,0,0,1-.37,2.5,6.2,6.2,0,0,1-1.09,2,5.2,5.2,0,0,1-1.78,1.39,5.49,5.49,0,0,1-2.42.52,5.56,5.56,0,0,1-2.43-.52,5.26,5.26,0,0,1-1.77-1.39,6,6,0,0,1-1.09-2A8.22,8.22,0,0,1,129.14,160.9Zm.92,0a7.11,7.11,0,0,0,.31,2.12,5.76,5.76,0,0,0,.91,1.82,4.66,4.66,0,0,0,1.49,1.26,4.75,4.75,0,0,0,4.08,0,4.66,4.66,0,0,0,1.49-1.26,5.76,5.76,0,0,0,.91-1.82,7.4,7.4,0,0,0,0-4.24,5.87,5.87,0,0,0-.91-1.82,4.66,4.66,0,0,0-1.49-1.26,4.75,4.75,0,0,0-4.08,0,4.66,4.66,0,0,0-1.49,1.26,5.87,5.87,0,0,0-.91,1.82A7.16,7.16,0,0,0,130.06,160.9Z"/><path class="cls-2" d="M142.63,154.73h.91v2.52h.05a3.38,3.38,0,0,1,.51-1.09,4.12,4.12,0,0,1,.87-.9,4.07,4.07,0,0,1,1.15-.6,4.28,4.28,0,0,1,1.34-.22,4.65,4.65,0,0,1,1.53.23,3.68,3.68,0,0,1,1.11.6,3.16,3.16,0,0,1,.72.84,3.56,3.56,0,0,1,.36.95h0a4.51,4.51,0,0,1,1.48-2,4.12,4.12,0,0,1,2.44-.66,4.48,4.48,0,0,1,1.54.26,3.19,3.19,0,0,1,1.23.76,3.58,3.58,0,0,1,.8,1.31,5.52,5.52,0,0,1,.29,1.87v8.43h-.91v-8.45a4,4,0,0,0-.36-1.85,2.93,2.93,0,0,0-.85-1,2.51,2.51,0,0,0-1-.43,4.33,4.33,0,0,0-.75-.08,4.11,4.11,0,0,0-1.55.28,3.41,3.41,0,0,0-1.23.87,4,4,0,0,0-.8,1.43,6.11,6.11,0,0,0-.29,2v7.3h-.91v-8.45a4.13,4.13,0,0,0-.35-1.84,2.86,2.86,0,0,0-.81-1,2.71,2.71,0,0,0-1-.43,4.63,4.63,0,0,0-.78-.09,3.71,3.71,0,0,0-1.35.26,3.79,3.79,0,0,0-1.27.82,4.15,4.15,0,0,0-.94,1.41,5.31,5.31,0,0,0-.36,2v7.3h-.91Z"/><path class="cls-2" d="M161.74,154.73h.91v2.52h0a3.16,3.16,0,0,1,.5-1.09,4,4,0,0,1,.88-.9,3.82,3.82,0,0,1,1.15-.6,4.17,4.17,0,0,1,1.33-.22,4.75,4.75,0,0,1,1.54.23,3.51,3.51,0,0,1,1.1.6,3.16,3.16,0,0,1,.72.84,3.25,3.25,0,0,1,.36.95h.05a4.57,4.57,0,0,1,1.47-2,4.12,4.12,0,0,1,2.44-.66,4.54,4.54,0,0,1,1.55.26,3.15,3.15,0,0,1,1.22.76,3.6,3.6,0,0,1,.81,1.31,5.54,5.54,0,0,1,.28,1.87v8.43h-.91v-8.45a4,4,0,0,0-.36-1.85,2.83,2.83,0,0,0-.85-1,2.54,2.54,0,0,0-1-.43,4.33,4.33,0,0,0-.76-.08,4.11,4.11,0,0,0-1.55.28,3.29,3.29,0,0,0-1.22.87,4.05,4.05,0,0,0-.81,1.43,6.12,6.12,0,0,0-.28,2v7.3h-.92v-8.45a4.14,4.14,0,0,0-.34-1.84,3,3,0,0,0-.82-1,2.57,2.57,0,0,0-1-.43,4.63,4.63,0,0,0-.78-.09,3.66,3.66,0,0,0-1.34.26,3.83,3.83,0,0,0-1.28.82,4.13,4.13,0,0,0-.93,1.41,5.31,5.31,0,0,0-.36,2v7.3h-.91Z"/><path class="cls-2" d="M181.15,161v.14a7.45,7.45,0,0,0,.29,2.07,5.48,5.48,0,0,0,.85,1.73,4.15,4.15,0,0,0,1.42,1.17,4.32,4.32,0,0,0,2,.43,4.21,4.21,0,0,0,2.93-1,5.1,5.1,0,0,0,1.5-2.7H191a5.45,5.45,0,0,1-1.77,3.31,5.33,5.33,0,0,1-3.58,1.16,5.4,5.4,0,0,1-2.39-.5,4.79,4.79,0,0,1-1.71-1.34,5.91,5.91,0,0,1-1-2,9.1,9.1,0,0,1-.33-2.5,8.52,8.52,0,0,1,.35-2.49,6.3,6.3,0,0,1,1-2.09,5.09,5.09,0,0,1,1.74-1.44,5.31,5.31,0,0,1,2.46-.54,5.21,5.21,0,0,1,2.29.48,4.8,4.8,0,0,1,1.67,1.31,5.7,5.7,0,0,1,1,1.92,7.74,7.74,0,0,1,.35,2.34c0,.08,0,.17,0,.28s0,.19,0,.25Zm9.07-.79a7.41,7.41,0,0,0-.33-1.91,4.74,4.74,0,0,0-.86-1.58,4.32,4.32,0,0,0-1.37-1.1,4,4,0,0,0-1.84-.4,4.28,4.28,0,0,0-3.37,1.52,5.08,5.08,0,0,0-.89,1.6,7.41,7.41,0,0,0-.39,1.87Z"/><path class="cls-2" d="M194.18,157.47h.07a3.08,3.08,0,0,1,.62-1.13,4,4,0,0,1,1.08-.91,5.24,5.24,0,0,1,1.41-.59,5.8,5.8,0,0,1,1.62-.18v.91a4.38,4.38,0,0,0-1.64.15,3.92,3.92,0,0,0-1.76,1.05,5.93,5.93,0,0,0-.59.7,3.15,3.15,0,0,0-.42.74,5.42,5.42,0,0,0-.27.91,9.33,9.33,0,0,0-.12,1.2v6.75h-.91V154.73h.91Z"/><path class="cls-2" d="M208.94,158.55a3.42,3.42,0,0,0-.42-1.44,3.09,3.09,0,0,0-.9-1,4,4,0,0,0-1.28-.63,5.67,5.67,0,0,0-1.57-.21,4.32,4.32,0,0,0-2,.46,4.63,4.63,0,0,0-1.49,1.25,5.65,5.65,0,0,0-.91,1.78,6.75,6.75,0,0,0-.31,2.05,8.79,8.79,0,0,0,.28,2.3,5.34,5.34,0,0,0,.89,1.84,4.17,4.17,0,0,0,1.49,1.21,4.7,4.7,0,0,0,2.09.43,4.32,4.32,0,0,0,1.59-.28,4.42,4.42,0,0,0,1.3-.8,4,4,0,0,0,.92-1.21,4.92,4.92,0,0,0,.48-1.55H210a5.91,5.91,0,0,1-.6,2,4.76,4.76,0,0,1-1.16,1.45,4.67,4.67,0,0,1-1.58.9,5.57,5.57,0,0,1-1.87.32,5.65,5.65,0,0,1-2.58-.54,4.9,4.9,0,0,1-1.75-1.46,5.86,5.86,0,0,1-1-2.1,9.22,9.22,0,0,1-.33-2.48,7.9,7.9,0,0,1,.38-2.45,5.74,5.74,0,0,1,1.09-2,5.09,5.09,0,0,1,1.77-1.37,5.56,5.56,0,0,1,2.43-.51,6.67,6.67,0,0,1,1.88.26,4.71,4.71,0,0,1,1.56.75,4,4,0,0,1,1.12,1.29,4.62,4.62,0,0,1,.53,1.81Z"/><path class="cls-2" d="M212.33,152.4v-2.47h.91v2.47Zm0,14.67V154.73h.91v12.34Z"/><path class="cls-2" d="M224.33,164.62h-.05a3.82,3.82,0,0,1-.62,1,4.7,4.7,0,0,1-2.33,1.48,6,6,0,0,1-1.63.22,4.79,4.79,0,0,1-3-.86,3.12,3.12,0,0,1-1.08-2.62,3.27,3.27,0,0,1,.43-1.77,3.41,3.41,0,0,1,1.09-1.08,4.76,4.76,0,0,1,1.46-.56c.54-.11,1.06-.19,1.55-.24l1.42-.12a9.06,9.06,0,0,0,1.55-.23,2,2,0,0,0,.85-.43,1.27,1.27,0,0,0,.36-.71,6.58,6.58,0,0,0,.07-1.08,2.26,2.26,0,0,0-.19-.94,2.15,2.15,0,0,0-.6-.76,2.93,2.93,0,0,0-1.06-.53,5.55,5.55,0,0,0-1.58-.19,4.18,4.18,0,0,0-2.68.81,3.23,3.23,0,0,0-1.11,2.47h-.92a4.07,4.07,0,0,1,1.31-3.06,5.22,5.22,0,0,1,3.45-1,5,5,0,0,1,3.25.88,2.87,2.87,0,0,1,1,2.29v7.18c0,.17,0,.35,0,.53a2.41,2.41,0,0,0,.08.48.66.66,0,0,0,.25.34.73.73,0,0,0,.47.14,4.44,4.44,0,0,0,.68-.08V167a2.66,2.66,0,0,1-.75.1,2.06,2.06,0,0,1-.87-.15,1.06,1.06,0,0,1-.49-.38,1.33,1.33,0,0,1-.23-.56,4,4,0,0,1-.06-.71Zm0-4.56a1.74,1.74,0,0,1-1,.55,12.49,12.49,0,0,1-1.53.22l-1.53.14q-.67.08-1.35.21a3.72,3.72,0,0,0-1.21.44,2.55,2.55,0,0,0-.88.85,2.68,2.68,0,0,0-.33,1.41,2.39,2.39,0,0,0,.86,2,3.85,3.85,0,0,0,2.38.66,4.64,4.64,0,0,0,2.47-.56,4.38,4.38,0,0,0,1.39-1.3,4,4,0,0,0,.62-1.41,7.33,7.33,0,0,0,.13-.93Z"/><path class="cls-2" d="M229.27,149.93v17.14h-.91V149.93Z"/><path class="cls-2" d="M232.51,161v.14a7.45,7.45,0,0,0,.29,2.07,5.48,5.48,0,0,0,.85,1.73,4.15,4.15,0,0,0,1.42,1.17,4.32,4.32,0,0,0,2,.43,4.26,4.26,0,0,0,2.94-1,5.16,5.16,0,0,0,1.49-2.7h.91a5.45,5.45,0,0,1-1.77,3.31,5.31,5.31,0,0,1-3.58,1.16,5.4,5.4,0,0,1-2.39-.5,4.67,4.67,0,0,1-1.7-1.34,5.76,5.76,0,0,1-1-2,9.1,9.1,0,0,1-.33-2.5,8.52,8.52,0,0,1,.35-2.49,6.3,6.3,0,0,1,1-2.09,5.07,5.07,0,0,1,4.2-2,5.21,5.21,0,0,1,2.29.48,4.8,4.8,0,0,1,1.67,1.31,5.7,5.7,0,0,1,1,1.92,7.74,7.74,0,0,1,.35,2.34c0,.08,0,.17,0,.28a2.45,2.45,0,0,0,0,.25Zm9.07-.79a7.41,7.41,0,0,0-.33-1.91,4.74,4.74,0,0,0-.86-1.58,4.32,4.32,0,0,0-1.37-1.1,4,4,0,0,0-1.84-.4,4.31,4.31,0,0,0-2,.42,4.41,4.41,0,0,0-1.42,1.1,5.08,5.08,0,0,0-.89,1.6,7,7,0,0,0-.38,1.87Z"/><path class="cls-2" d="M135.47,131a3.3,3.3,0,0,1,2.7,1.18,4.19,4.19,0,0,1,.9,2.54h-7.4a5.08,5.08,0,0,1,1.12-2.52,3.35,3.35,0,0,1,2.68-1.2m5.72,5.11a7.66,7.66,0,0,0-1.5-5,5.18,5.18,0,0,0-4.22-1.85,5.53,5.53,0,0,0-4.38,1.91,6.72,6.72,0,0,0-1.57,4.54,6.85,6.85,0,0,0,1.42,4.52,5.63,5.63,0,0,0,4.53,1.85,5.8,5.8,0,0,0,3.77-1.18,6.11,6.11,0,0,0,1.83-2.91l.12-.35H139l-.05.21a3,3,0,0,1-1.22,1.81,3.83,3.83,0,0,1-2.23.64,3.58,3.58,0,0,1-2.87-1.17,4.3,4.3,0,0,1-1-2.71h9.56Z"/><path class="cls-2" d="M147.12,131.33h2.73v-2H147V128a2,2,0,0,0-2.07-2.12v3.45h-2v2h2v5.92a4.59,4.59,0,0,0,1.42,3.52,4.87,4.87,0,0,0,3.52,1.3v-2a2.66,2.66,0,0,1-2.25-1,3,3,0,0,1-.62-1.93v-5.85Z"/><path class="cls-2" d="M170.56,131a3.27,3.27,0,0,1,2.69,1.18,4.07,4.07,0,0,1,.9,2.54h-7.39a5.08,5.08,0,0,1,1.12-2.52,3.35,3.35,0,0,1,2.68-1.2m5.72,5.11a7.66,7.66,0,0,0-1.5-5,5.18,5.18,0,0,0-4.22-1.85,5.53,5.53,0,0,0-4.38,1.91,6.71,6.71,0,0,0-1.56,4.54,6.85,6.85,0,0,0,1.41,4.52,5.63,5.63,0,0,0,4.53,1.85,5.78,5.78,0,0,0,3.77-1.18,6.11,6.11,0,0,0,1.83-2.91l.12-.35h-2.22l-.05.21a3,3,0,0,1-1.22,1.81,3.83,3.83,0,0,1-2.23.64,3.58,3.58,0,0,1-2.87-1.17,4.36,4.36,0,0,1-1-2.71h9.56Z"/><path class="cls-2" d="M122.41,131.21a2.7,2.7,0,0,1,2.27,1,3.07,3.07,0,0,1,.61,1.93V140a2,2,0,0,0,2.07,2.11v-8a4.68,4.68,0,0,0-1.38-3.5,5,5,0,0,0-3.57-1.32,4.87,4.87,0,0,0-3.52,1.3,4.59,4.59,0,0,0-1.42,3.52v8h2.07v-7.93a3,3,0,0,1,.62-1.93,2.66,2.66,0,0,1,2.25-1"/><path class="cls-2" d="M161.06,130.57a4.92,4.92,0,0,0-3.56-1.32,5.08,5.08,0,0,0-2.87.79v-4.69h-2.07v12.28h2.07v-3.49a3,3,0,0,1,.62-1.93,3,3,0,0,1,4.51,0,3,3,0,0,1,.62,1.93V140a2,2,0,0,0,2.07,2.12v-8a4.65,4.65,0,0,0-1.39-3.5"/><path class="cls-2" d="M187.6,135.87a5.69,5.69,0,0,0-2.14-.88l-2.24-.51a8,8,0,0,1-1.75-.54,1.25,1.25,0,0,1-.72-1.16,1.46,1.46,0,0,1,.72-1.29,3.27,3.27,0,0,1,1.79-.43,3.79,3.79,0,0,1,1.67.33,1.93,1.93,0,0,1,1.12,1.58h2.21a3.48,3.48,0,0,0-1.44-2.71,5.62,5.62,0,0,0-3.38-1,5.36,5.36,0,0,0-3.59,1.06,3.4,3.4,0,0,0-1.2,2.66,2.81,2.81,0,0,0,1.21,2.55,8.26,8.26,0,0,0,2.74.93l1.39.3a6.64,6.64,0,0,1,1.83.61,1.23,1.23,0,0,1,.65,1.11,1.64,1.64,0,0,1-1.27,1.62,5.29,5.29,0,0,1-1.63.21,3.08,3.08,0,0,1-2.42-.83,2.5,2.5,0,0,1-.5-1.22h-2.2a3.47,3.47,0,0,0,1.37,2.75,6.2,6.2,0,0,0,3.85,1.07,5.6,5.6,0,0,0,3.71-1.09,3.38,3.38,0,0,0,1.3-2.7,2.83,2.83,0,0,0-1.08-2.41"/><path class="cls-2" d="M204.08,135.87a5.55,5.55,0,0,0-2.14-.88l-2.24-.51a8.18,8.18,0,0,1-1.75-.54,1.24,1.24,0,0,1-.71-1.16,1.47,1.47,0,0,1,.71-1.29,3.29,3.29,0,0,1,1.8-.43,3.82,3.82,0,0,1,1.67.33,2,2,0,0,1,1.12,1.58h2.2a3.44,3.44,0,0,0-1.43-2.71,5.64,5.64,0,0,0-3.38-1,5.34,5.34,0,0,0-3.59,1.06,3.4,3.4,0,0,0-1.2,2.66,2.81,2.81,0,0,0,1.21,2.55,8.17,8.17,0,0,0,2.74.93l1.38.3a6.41,6.41,0,0,1,1.83.61,1.23,1.23,0,0,1,.65,1.11,1.63,1.63,0,0,1-1.27,1.62,5.18,5.18,0,0,1-1.62.21,3.08,3.08,0,0,1-2.42-.83,2.6,2.6,0,0,1-.51-1.22h-2.2A3.5,3.5,0,0,0,196.3,141a6.25,6.25,0,0,0,3.86,1.07,5.62,5.62,0,0,0,3.71-1.09,3.37,3.37,0,0,0,1.29-2.7,2.8,2.8,0,0,0-1.08-2.41"/><path class="cls-2" d="M190.7,129.22a2,2,0,0,1,2.07,2.12v10.73H190.7Z"/><path class="cls-2" d="M192.89,144.89a1.16,1.16,0,1,1-1.16-1.16,1.16,1.16,0,0,1,1.16,1.16"/></svg>