<svg id="Livello_1" data-name="Livello 1" xmlns="http://www.w3.org/2000/svg" viewBox="0 0 300 300"><defs><style>.cls-1{fill:#9d9d9c;}</style></defs><title>loghi_svg</title><path class="cls-1" d="M106.4,158.5a6.62,6.62,0,0,1,1.1-2.11,5.56,5.56,0,0,1,1.79-1.47,5.29,5.29,0,0,1,2.47-.55,5.2,5.2,0,0,1,2.45.55,5.46,5.46,0,0,1,1.79,1.47,6.43,6.43,0,0,1,1.1,2.11,8.7,8.7,0,0,1,0,5,6.33,6.33,0,0,1-1.1,2.11,5.31,5.31,0,0,1-1.79,1.46,5.43,5.43,0,0,1-6.71-1.46,6.52,6.52,0,0,1-1.1-2.11,8.7,8.7,0,0,1,0-5Zm.46,4.83a5.91,5.91,0,0,0,1,2,5,5,0,0,0,1.64,1.36,4.82,4.82,0,0,0,2.26.5,4.77,4.77,0,0,0,2.24-.5,4.92,4.92,0,0,0,1.64-1.36,5.73,5.73,0,0,0,1-2,8,8,0,0,0,0-4.62,5.77,5.77,0,0,0-1-2,5,5,0,0,0-1.64-1.37,4.66,4.66,0,0,0-2.24-.52,4.71,4.71,0,0,0-2.26.52,5.05,5.05,0,0,0-1.64,1.37,6,6,0,0,0-1,2,8.25,8.25,0,0,0,0,4.62Z"/><path class="cls-1" d="M119.52,171.71V154.66h.5v3.56h0a5.54,5.54,0,0,1,.71-1.54,5.68,5.68,0,0,1,1.11-1.23,5,5,0,0,1,1.47-.8,5.52,5.52,0,0,1,1.8-.28,4.85,4.85,0,0,1,4,1.87,6.52,6.52,0,0,1,1.08,2.1,9.27,9.27,0,0,1,.37,2.65,8.81,8.81,0,0,1-.36,2.54,6.82,6.82,0,0,1-1,2.13,4.83,4.83,0,0,1-4,2,5.15,5.15,0,0,1-3.34-1,5,5,0,0,1-1.75-2.78h0v7.91Zm7.87-5.1a4.73,4.73,0,0,0,1.52-1.43,6.34,6.34,0,0,0,.88-2,8.75,8.75,0,0,0,.28-2.21,8.48,8.48,0,0,0-.31-2.34,6.25,6.25,0,0,0-.91-2,4.32,4.32,0,0,0-1.53-1.35,4.53,4.53,0,0,0-2.16-.49,4.7,4.7,0,0,0-2.18.49,4.89,4.89,0,0,0-1.62,1.34,6.2,6.2,0,0,0-1,1.95A7.86,7.86,0,0,0,120,161a6.74,6.74,0,0,0,1.4,4.58,4.76,4.76,0,0,0,3.74,1.59A4.26,4.26,0,0,0,127.39,166.61Z"/><path class="cls-1" d="M132.85,163.49a5.47,5.47,0,0,0,.88,1.92,4.08,4.08,0,0,0,1.53,1.28,5,5,0,0,0,2.3.47,5.17,5.17,0,0,0,3.32-1,4.74,4.74,0,0,0,1.64-3.15h.5a5.06,5.06,0,0,1-1.76,3.45,5.49,5.49,0,0,1-3.65,1.22,5.61,5.61,0,0,1-2.53-.47,4.36,4.36,0,0,1-1.72-1.39,6,6,0,0,1-1-2.13,10.47,10.47,0,0,1-.32-2.63,7.7,7.7,0,0,1,.47-2.81,6.49,6.49,0,0,1,1.23-2.09,5.24,5.24,0,0,1,1.78-1.3,5.08,5.08,0,0,1,2.08-.44,5.45,5.45,0,0,1,2.55.56,5.07,5.07,0,0,1,1.76,1.51,6.42,6.42,0,0,1,1,2.15,9.15,9.15,0,0,1,.26,2.52H132.54A10.38,10.38,0,0,0,132.85,163.49Zm9.5-5.08a5.5,5.5,0,0,0-.95-1.85,4.46,4.46,0,0,0-1.57-1.24,5.19,5.19,0,0,0-4.11-.07,4.69,4.69,0,0,0-1.58,1.15,5.9,5.9,0,0,0-1.1,1.82,7.69,7.69,0,0,0-.5,2.4h10.13A7.29,7.29,0,0,0,142.35,158.41Z"/><path class="cls-1" d="M145.14,167.36v-12.7h.5v3.14h.05a4.66,4.66,0,0,1,.54-1.35,4,4,0,0,1,1-1.1,4.83,4.83,0,0,1,1.47-.74,6.07,6.07,0,0,1,2-.24v.49a4.71,4.71,0,0,0-2.26.36,4.26,4.26,0,0,0-1.57,1.18,5.14,5.14,0,0,0-.92,1.75,7.2,7.2,0,0,0-.29,2v7.19Z"/><path class="cls-1" d="M151.89,156.92a3.78,3.78,0,0,1,.92-1.34,4.26,4.26,0,0,1,1.49-.89,5.83,5.83,0,0,1,2.06-.32,6.8,6.8,0,0,1,1.59.17,3.44,3.44,0,0,1,1.33.6,3.29,3.29,0,0,1,.91,1.13,4.14,4.14,0,0,1,.37,1.73v8.08a.81.81,0,0,0,.15.54.78.78,0,0,0,.39.24,1.91,1.91,0,0,0,.54,0c.18,0,.36,0,.53,0v.49h-.74a1.71,1.71,0,0,1-1-.26,1.06,1.06,0,0,1-.4-1v-1.66h0a3.91,3.91,0,0,1-.63,1.19,4.61,4.61,0,0,1-1.09,1,5.52,5.52,0,0,1-1.49.7,6,6,0,0,1-1.83.26,5.08,5.08,0,0,1-3.09-.85,3,3,0,0,1-1.16-2.56,4,4,0,0,1,.38-1.9,3,3,0,0,1,1-1.12,4,4,0,0,1,1.41-.57,10.69,10.69,0,0,1,1.58-.21l2.25-.14a7.12,7.12,0,0,0,1.54-.24,1.72,1.72,0,0,0,.89-.57,1.82,1.82,0,0,0,.29-1.1,8.31,8.31,0,0,0-.1-1.19,2.64,2.64,0,0,0-.48-1.13,2.83,2.83,0,0,0-1.13-.86,5,5,0,0,0-2-.33,4.57,4.57,0,0,0-3.11,1,3.83,3.83,0,0,0-1.24,2.75h-.49A4.9,4.9,0,0,1,151.89,156.92Zm8.13,3a1.54,1.54,0,0,1-.77.53,6.79,6.79,0,0,1-1.18.29c-.45.06-.93.1-1.45.12l-1.52.07a13.67,13.67,0,0,0-1.45.19,3.39,3.39,0,0,0-1.24.49,2.54,2.54,0,0,0-.87,1,3.68,3.68,0,0,0-.32,1.64,3.11,3.11,0,0,0,.19,1.08,2.23,2.23,0,0,0,.63.94,3.34,3.34,0,0,0,1.15.66,4.87,4.87,0,0,0,1.74.26,5.5,5.5,0,0,0,2.2-.42,4.79,4.79,0,0,0,1.61-1.1,4.41,4.41,0,0,0,1-1.56,5.07,5.07,0,0,0,.34-1.83V159.9Z"/><path class="cls-1" d="M164.79,164.89A3,3,0,0,0,165,166a1.43,1.43,0,0,0,.4.6,1.07,1.07,0,0,0,.55.23,3.81,3.81,0,0,0,.59,0h.67a1.23,1.23,0,0,0,.42-.07v.5l-.44.05-.77,0a2.24,2.24,0,0,1-1.47-.5,2.33,2.33,0,0,1-.61-1.87v-9.83H162v-.5h2.32v-4h.5v4h2.86v.5h-2.86Z"/><path class="cls-1" d="M169.38,152.22v-2.5h.49v2.5Zm0,15.14v-12.7h.49v12.7Z"/><path class="cls-1" d="M172.3,158.5a6.25,6.25,0,0,1,1.1-2.11,5.46,5.46,0,0,1,1.79-1.47,5.23,5.23,0,0,1,2.47-.55,5.16,5.16,0,0,1,2.44.55,5.46,5.46,0,0,1,1.79,1.47,6.25,6.25,0,0,1,1.1,2.11,8.48,8.48,0,0,1,0,5,6.15,6.15,0,0,1-1.1,2.11,5.42,5.42,0,0,1-8.49,0,6.15,6.15,0,0,1-1.1-2.11,8.7,8.7,0,0,1,0-5Zm.45,4.83a6.1,6.1,0,0,0,1,2,5.06,5.06,0,0,0,1.65,1.36,4.8,4.8,0,0,0,2.26.5,4.73,4.73,0,0,0,2.23-.5,5.06,5.06,0,0,0,1.65-1.36,5.91,5.91,0,0,0,1-2,8.25,8.25,0,0,0,0-4.62,6,6,0,0,0-1-2,5.09,5.09,0,0,0-1.65-1.37,4.62,4.62,0,0,0-2.23-.52,4.68,4.68,0,0,0-2.26.52,5.09,5.09,0,0,0-1.65,1.37,6.15,6.15,0,0,0-1,2,8.25,8.25,0,0,0,0,4.62Z"/><path class="cls-1" d="M185.91,154.66v3.14H186a4.43,4.43,0,0,1,1.52-2.45,4.49,4.49,0,0,1,1.35-.73,5.88,5.88,0,0,1,3.52,0,3.9,3.9,0,0,1,2.37,2.31,5.46,5.46,0,0,1,.33,2v8.42h-.49V159a5,5,0,0,0-.32-1.89,3.52,3.52,0,0,0-.88-1.28,3.48,3.48,0,0,0-1.29-.75,5.17,5.17,0,0,0-1.54-.23,4.25,4.25,0,0,0-3.45,1.59,5.07,5.07,0,0,0-.87,1.7,6.72,6.72,0,0,0-.3,2v7.19h-.49v-12.7Z"/><path class="cls-1" d="M211.35,165a4.68,4.68,0,0,1-1.1,1.45,4.84,4.84,0,0,1-1.58.91,5.77,5.77,0,0,1-2,.32,5.58,5.58,0,0,1-2.41-.5,5.33,5.33,0,0,1-1.77-1.37,5.86,5.86,0,0,1-1.08-2,7.83,7.83,0,0,1-.37-2.46,9.44,9.44,0,0,1,.35-2.63,6.57,6.57,0,0,1,1.09-2.2,5.4,5.4,0,0,1,1.85-1.52,5.89,5.89,0,0,1,2.63-.56,5.37,5.37,0,0,1,1.71.27,4.59,4.59,0,0,1,1.46.79,4.29,4.29,0,0,1,1.07,1.3,4.71,4.71,0,0,1,.56,1.79h-.5a4.48,4.48,0,0,0-.54-1.62,4.1,4.1,0,0,0-1-1.14,4,4,0,0,0-1.29-.68,5,5,0,0,0-1.51-.22,5.17,5.17,0,0,0-2.55.58,4.81,4.81,0,0,0-1.68,1.51,6.45,6.45,0,0,0-.92,2.07,9.38,9.38,0,0,0-.28,2.26,7.48,7.48,0,0,0,.33,2.23,6,6,0,0,0,1,1.88,4.7,4.7,0,0,0,1.6,1.29,5,5,0,0,0,2.23.48,5.26,5.26,0,0,0,1.75-.28,4.43,4.43,0,0,0,1.45-.83,4.29,4.29,0,0,0,1-1.29,4.34,4.34,0,0,0,.47-1.72h.5A5.5,5.5,0,0,1,211.35,165Z"/><path class="cls-1" d="M214.05,163.49a5.65,5.65,0,0,0,.88,1.92,4.24,4.24,0,0,0,1.53,1.28,5,5,0,0,0,2.3.47,5.17,5.17,0,0,0,3.32-1,4.79,4.79,0,0,0,1.65-3.15h.49a5.09,5.09,0,0,1-1.75,3.45,5.54,5.54,0,0,1-3.66,1.22,5.61,5.61,0,0,1-2.53-.47,4.44,4.44,0,0,1-1.72-1.39,6.34,6.34,0,0,1-1-2.13,10.47,10.47,0,0,1-.32-2.63,7.92,7.92,0,0,1,.47-2.81,6.33,6.33,0,0,1,1.24-2.09,5.21,5.21,0,0,1,1.77-1.3,5.08,5.08,0,0,1,2.08-.44,5.52,5.52,0,0,1,2.56.56,5.13,5.13,0,0,1,1.75,1.51,6.42,6.42,0,0,1,1,2.15,8.78,8.78,0,0,1,.26,2.52H213.74A10.38,10.38,0,0,0,214.05,163.49Zm9.5-5.08a5.5,5.5,0,0,0-1-1.85,4.46,4.46,0,0,0-1.57-1.24,5.19,5.19,0,0,0-4.11-.07,4.69,4.69,0,0,0-1.58,1.15,6.1,6.1,0,0,0-1.1,1.82,7.69,7.69,0,0,0-.5,2.4h10.14A7.3,7.3,0,0,0,223.55,158.41Z"/><path class="cls-1" d="M226.84,154.66v3.14h0a4.43,4.43,0,0,1,1.52-2.45,4.49,4.49,0,0,1,1.35-.73,5.88,5.88,0,0,1,3.52,0,3.9,3.9,0,0,1,2.37,2.31,5.46,5.46,0,0,1,.33,2v8.42h-.49V159a5,5,0,0,0-.32-1.89,3.52,3.52,0,0,0-.88-1.28,3.48,3.48,0,0,0-1.29-.75,5.17,5.17,0,0,0-1.54-.23,4.25,4.25,0,0,0-3.45,1.59,5.07,5.07,0,0,0-.87,1.7,6.72,6.72,0,0,0-.3,2v7.19h-.49v-12.7Z"/><path class="cls-1" d="M240.06,164.89a3,3,0,0,0,.16,1.11,1.45,1.45,0,0,0,.41.6,1,1,0,0,0,.54.23,4,4,0,0,0,.59,0h.67a1.19,1.19,0,0,0,.42-.07v.5l-.43.05-.78,0a2.24,2.24,0,0,1-1.47-.5,2.37,2.37,0,0,1-.61-1.87v-9.83h-2.32v-.5h2.32v-4h.5v4h2.86v.5h-2.86Z"/><path class="cls-1" d="M244.72,163.49a5.45,5.45,0,0,0,.87,1.92,4.24,4.24,0,0,0,1.53,1.28,5,5,0,0,0,2.3.47,5.2,5.2,0,0,0,3.33-1,4.78,4.78,0,0,0,1.64-3.15h.49a5,5,0,0,1-1.75,3.45,5.54,5.54,0,0,1-3.66,1.22,5.61,5.61,0,0,1-2.53-.47,4.51,4.51,0,0,1-1.72-1.39,6.34,6.34,0,0,1-1-2.13,10.47,10.47,0,0,1-.32-2.63,7.92,7.92,0,0,1,.47-2.81,6.51,6.51,0,0,1,1.24-2.09,5.15,5.15,0,0,1,1.78-1.3,5,5,0,0,1,2.07-.44,5.52,5.52,0,0,1,2.56.56,5,5,0,0,1,1.75,1.51,6.05,6.05,0,0,1,1,2.15,8.78,8.78,0,0,1,.26,2.52H244.41A9.86,9.86,0,0,0,244.72,163.49Zm9.5-5.08a5.71,5.71,0,0,0-1-1.85,4.52,4.52,0,0,0-1.56-1.24,4.89,4.89,0,0,0-2.18-.46,4.84,4.84,0,0,0-1.94.39A4.69,4.69,0,0,0,246,156.4a6.1,6.1,0,0,0-1.1,1.82,7.69,7.69,0,0,0-.49,2.4h10.13A7.62,7.62,0,0,0,254.22,158.41Z"/><path class="cls-1" d="M257,167.36v-12.7h.49v3.14h.05a5.3,5.3,0,0,1,.54-1.35,4,4,0,0,1,1-1.1,4.83,4.83,0,0,1,1.47-.74,6.07,6.07,0,0,1,2-.24v.49a4.75,4.75,0,0,0-2.26.36,4.34,4.34,0,0,0-1.57,1.18,5.12,5.12,0,0,0-.91,1.75,6.86,6.86,0,0,0-.3,2v7.19Z"/><path class="cls-1" d="M130.18,139.21a7.9,7.9,0,0,0-1.49-5.1,5.17,5.17,0,0,0-4.22-1.87,5.48,5.48,0,0,0-4.37,1.94,6.83,6.83,0,0,0-1.56,4.59,7,7,0,0,0,1.42,4.58,5.57,5.57,0,0,0,4.51,1.87,5.7,5.7,0,0,0,3.77-1.2,6.24,6.24,0,0,0,1.83-2.94l.11-.36H128l0,.22a3.07,3.07,0,0,1-1.22,1.83,3.83,3.83,0,0,1-2.23.65,3.52,3.52,0,0,1-2.86-1.19,4.34,4.34,0,0,1-1-2.74h9.54ZM124.47,134a3.22,3.22,0,0,1,2.69,1.19,4.2,4.2,0,0,1,.9,2.57h-7.38a5.22,5.22,0,0,1,1.12-2.56A3.33,3.33,0,0,1,124.47,134Z"/><path class="cls-1" d="M136.1,134.34h2.72v-2H136V131a2,2,0,0,0-2.07-2.14v3.49h-2v2h2v6a4.71,4.71,0,0,0,1.42,3.57,4.87,4.87,0,0,0,3.52,1.31v-2a2.63,2.63,0,0,1-2.25-1,3.07,3.07,0,0,1-.62-1.95v-5.93Z"/><path class="cls-1" d="M165.21,139.21a7.85,7.85,0,0,0-1.5-5.1,5.15,5.15,0,0,0-4.21-1.87,5.5,5.5,0,0,0-4.38,1.94,6.88,6.88,0,0,0-1.56,4.59,7,7,0,0,0,1.42,4.58,5.59,5.59,0,0,0,4.52,1.87,5.67,5.67,0,0,0,3.76-1.2,6.16,6.16,0,0,0,1.83-2.94l.12-.36H163l-.05.22a3.07,3.07,0,0,1-1.22,1.83,3.83,3.83,0,0,1-2.23.65,3.56,3.56,0,0,1-2.87-1.19,4.34,4.34,0,0,1-1-2.74h9.54ZM159.5,134a3.22,3.22,0,0,1,2.69,1.19,4.26,4.26,0,0,1,.9,2.57H155.7a5.23,5.23,0,0,1,1.13-2.56A3.32,3.32,0,0,1,159.5,134Z"/><path class="cls-1" d="M111.44,134.23a2.67,2.67,0,0,1,2.26,1,3.13,3.13,0,0,1,.61,1.95v5.89a2,2,0,0,0,2.07,2.14v-8.1a4.79,4.79,0,0,0-1.38-3.55,5.39,5.39,0,0,0-7.08,0,4.66,4.66,0,0,0-1.41,3.56v8.1h2.06v-8a3.05,3.05,0,0,1,.62-1.95A2.64,2.64,0,0,1,111.44,134.23Z"/><path class="cls-1" d="M150,133.57a4.88,4.88,0,0,0-3.55-1.33,5,5,0,0,0-2.87.8v-4.75h-2.07v12.43h2.07v-3.53a3.11,3.11,0,0,1,.61-1.95,3,3,0,0,1,4.51,0,3.07,3.07,0,0,1,.61,1.95v5.91a2,2,0,0,0,2.07,2.14v-8.12A4.75,4.75,0,0,0,150,133.57Z"/><path class="cls-1" d="M176.51,138.94a5.69,5.69,0,0,0-2.14-.88l-2.24-.53a7.32,7.32,0,0,1-1.74-.54,1.27,1.27,0,0,1-.72-1.17,1.48,1.48,0,0,1,.72-1.31,3.25,3.25,0,0,1,1.79-.44,3.68,3.68,0,0,1,1.67.34A1.94,1.94,0,0,1,175,136h2.2a3.47,3.47,0,0,0-1.43-2.74,5.55,5.55,0,0,0-3.37-1,5.26,5.26,0,0,0-3.59,1.08,3.48,3.48,0,0,0-1.2,2.69,2.88,2.88,0,0,0,1.21,2.58,8.66,8.66,0,0,0,2.74.95l1.38.3a6,6,0,0,1,1.83.61,1.25,1.25,0,0,1,.65,1.13,1.65,1.65,0,0,1-1.27,1.64,5.22,5.22,0,0,1-1.62.21,3,3,0,0,1-2.42-.84,2.58,2.58,0,0,1-.5-1.23h-2.2a3.49,3.49,0,0,0,1.37,2.77,6.08,6.08,0,0,0,3.85,1.09,5.59,5.59,0,0,0,3.7-1.1,3.43,3.43,0,0,0,1.29-2.74A2.88,2.88,0,0,0,176.51,138.94Z"/><path class="cls-1" d="M193,138.94a5.56,5.56,0,0,0-2.13-.88l-2.24-.53a7.63,7.63,0,0,1-1.75-.54,1.26,1.26,0,0,1-.71-1.17,1.49,1.49,0,0,1,.71-1.31,3.27,3.27,0,0,1,1.79-.44,3.66,3.66,0,0,1,1.67.34,2,2,0,0,1,1.12,1.6h2.2a3.47,3.47,0,0,0-1.43-2.74,5.57,5.57,0,0,0-3.37-1,5.24,5.24,0,0,0-3.59,1.08A3.45,3.45,0,0,0,184,136a2.86,2.86,0,0,0,1.21,2.58,8.66,8.66,0,0,0,2.74.95l1.38.3a5.85,5.85,0,0,1,1.82.61,1.25,1.25,0,0,1,.65,1.13,1.64,1.64,0,0,1-1.26,1.64,5.29,5.29,0,0,1-1.63.21,3,3,0,0,1-2.41-.84,2.69,2.69,0,0,1-.51-1.23h-2.19a3.49,3.49,0,0,0,1.37,2.77,6.07,6.07,0,0,0,3.84,1.09,5.61,5.61,0,0,0,3.71-1.1,3.46,3.46,0,0,0,1.29-2.74A2.89,2.89,0,0,0,193,138.94Z"/><path class="cls-1" d="M179.6,132.21a2.05,2.05,0,0,1,2.07,2.15v10.86H179.6Z"/><path class="cls-1" d="M181.79,148.08a1.16,1.16,0,1,1-1.16-1.17A1.16,1.16,0,0,1,181.79,148.08Z"/><path class="cls-1" d="M71.64,159.92a14.44,14.44,0,1,1,14.43-14.43A14.45,14.45,0,0,1,71.64,159.92Zm0-25.28a10.85,10.85,0,1,0,10.84,10.85A10.87,10.87,0,0,0,71.64,134.64Z"/><path class="cls-1" d="M65.38,145.49H63.14a8.51,8.51,0,0,1,8.5-8.5v2.25A6.26,6.26,0,0,0,65.38,145.49Z"/><path class="cls-1" d="M94.26,163.33l-8.68-8.68a16.75,16.75,0,0,1-5.15,5l8.75,8.75a3.59,3.59,0,0,0,5.08-5.08Z"/><path class="cls-1" d="M39.91,143.17H54a17.74,17.74,0,0,1,5.23-10.47H39.91a2.45,2.45,0,0,0-2.45,2.45v5.57A2.45,2.45,0,0,0,39.91,143.17Zm4.08-6h5.15a.86.86,0,0,1,0,1.71H44a.86.86,0,1,1,0-1.71Z"/><path class="cls-1" d="M71.64,163.17A17.71,17.71,0,0,1,60.17,159H39.91a2.44,2.44,0,0,0-2.45,2.44V167a2.44,2.44,0,0,0,2.45,2.45H74A2.45,2.45,0,0,0,76.43,167v-4.46A17.64,17.64,0,0,1,71.64,163.17Zm-22.5,1.94H44a.86.86,0,0,1,0-1.72h5.15a.86.86,0,0,1,0,1.72Z"/><path class="cls-1" d="M39.91,156.29H57.62a17.56,17.56,0,0,1-3.74-10.46h-14a2.44,2.44,0,0,0-2.45,2.45v5.57A2.44,2.44,0,0,0,39.91,156.29Zm4.08-6h5.15a.86.86,0,0,1,0,1.72H44a.86.86,0,1,1,0-1.72Z"/></svg>