<svg id="Livello_1" data-name="Livello 1" xmlns="http://www.w3.org/2000/svg" viewBox="0 0 300 300"><defs><style>.cls-1{fill:#9d9d9c;}</style></defs><title>loghi_svg</title><path class="cls-1" d="M138.61,147.94a6,6,0,0,1,1-2,5.12,5.12,0,0,1,1.66-1.36,4.85,4.85,0,0,1,2.3-.52,4.75,4.75,0,0,1,2.27.52,5.26,5.26,0,0,1,1.67,1.36,6,6,0,0,1,1,2,8.19,8.19,0,0,1,0,4.67,6,6,0,0,1-1,2,5,5,0,0,1-1.67,1.35,5.37,5.37,0,0,1-4.57,0,4.85,4.85,0,0,1-1.66-1.35,6,6,0,0,1-1-2,8,8,0,0,1,0-4.67Zm.42,4.49a5.65,5.65,0,0,0,.93,1.83,4.47,4.47,0,0,0,1.53,1.26,4.88,4.88,0,0,0,4.18,0,4.53,4.53,0,0,0,1.52-1.26,5.28,5.28,0,0,0,.93-1.83,7.58,7.58,0,0,0,0-4.29,5.28,5.28,0,0,0-.93-1.83,4.8,4.8,0,0,0-1.52-1.27,4.79,4.79,0,0,0-4.18,0,4.73,4.73,0,0,0-1.53,1.27,5.65,5.65,0,0,0-.93,1.83,7.58,7.58,0,0,0,0,4.29Z"/><path class="cls-1" d="M150.8,160.22V144.37h.46v3.31h0a5.36,5.36,0,0,1,.67-1.43,4.89,4.89,0,0,1,1-1.14,4.66,4.66,0,0,1,1.37-.75,5.25,5.25,0,0,1,1.66-.26,4.63,4.63,0,0,1,2.1.46,4.57,4.57,0,0,1,1.59,1.28,6,6,0,0,1,1,2,8.29,8.29,0,0,1,.34,2.45,8.38,8.38,0,0,1-.33,2.37,6,6,0,0,1-1,2,4.54,4.54,0,0,1-1.57,1.35,4.71,4.71,0,0,1-2.16.49,4.81,4.81,0,0,1-3.1-1,4.74,4.74,0,0,1-1.63-2.58h0v7.35Zm7.31-4.74a4.31,4.31,0,0,0,1.41-1.34,5.85,5.85,0,0,0,.82-1.83,8.49,8.49,0,0,0,.26-2.06,8.07,8.07,0,0,0-.28-2.17,6.16,6.16,0,0,0-.85-1.81A4,4,0,0,0,158,145a4.14,4.14,0,0,0-2-.46,4.32,4.32,0,0,0-2,.46,4.4,4.4,0,0,0-1.5,1.24,5.45,5.45,0,0,0-.93,1.81,7.14,7.14,0,0,0-.32,2.18,6.21,6.21,0,0,0,1.31,4.26A4.37,4.37,0,0,0,156,156,4,4,0,0,0,158.11,155.48Z"/><path class="cls-1" d="M163.19,152.58a5,5,0,0,0,.81,1.78,3.85,3.85,0,0,0,1.42,1.2,5.46,5.46,0,0,0,5.23-.54,4.42,4.42,0,0,0,1.53-2.93h.45a4.66,4.66,0,0,1-1.63,3.2,5.13,5.13,0,0,1-3.39,1.14,5.32,5.32,0,0,1-2.36-.44,4.11,4.11,0,0,1-1.59-1.29,5.65,5.65,0,0,1-.92-2,9.54,9.54,0,0,1-.3-2.44,7.13,7.13,0,0,1,.44-2.62,6.14,6.14,0,0,1,1.14-1.94,4.9,4.9,0,0,1,1.66-1.21,4.81,4.81,0,0,1,1.93-.41,4.91,4.91,0,0,1,2.37.53,4.62,4.62,0,0,1,1.63,1.4,5.82,5.82,0,0,1,.92,2,8.24,8.24,0,0,1,.24,2.34H162.9A9.08,9.08,0,0,0,163.19,152.58Zm8.82-4.73a5,5,0,0,0-.88-1.71,4.27,4.27,0,0,0-1.46-1.16,4.58,4.58,0,0,0-2-.42,4.36,4.36,0,0,0-1.8.37,4.25,4.25,0,0,0-1.47,1.06,5.56,5.56,0,0,0-1,1.69,7,7,0,0,0-.46,2.23h9.41A7,7,0,0,0,172,147.85Z"/><path class="cls-1" d="M174.61,156.18V144.37h.46v2.92h0a4.7,4.7,0,0,1,.51-1.25,3.56,3.56,0,0,1,.92-1,4.58,4.58,0,0,1,1.36-.69,5.55,5.55,0,0,1,1.85-.23v.46a4.35,4.35,0,0,0-2.1.33,4.14,4.14,0,0,0-1.46,1.1,4.82,4.82,0,0,0-.85,1.62,6.63,6.63,0,0,0-.27,1.88v6.69Z"/><path class="cls-1" d="M180.88,146.48a3.54,3.54,0,0,1,.86-1.26,3.92,3.92,0,0,1,1.38-.82,5.51,5.51,0,0,1,1.91-.3,6.4,6.4,0,0,1,1.48.16,3.15,3.15,0,0,1,1.23.56,2.84,2.84,0,0,1,.85,1.05,3.75,3.75,0,0,1,.35,1.6V155a.8.8,0,0,0,.13.51.74.74,0,0,0,.37.22,2,2,0,0,0,.5,0l.49,0v.46h-.69a1.59,1.59,0,0,1-.88-.24,1,1,0,0,1-.38-.91v-1.54h0a3.76,3.76,0,0,1-.58,1.1,4.34,4.34,0,0,1-1,.94,5.1,5.1,0,0,1-1.39.66,5.77,5.77,0,0,1-1.7.24,4.72,4.72,0,0,1-2.87-.79,2.76,2.76,0,0,1-1.08-2.38,3.89,3.89,0,0,1,.35-1.77,2.85,2.85,0,0,1,.93-1,3.8,3.8,0,0,1,1.31-.53,12.35,12.35,0,0,1,1.47-.2l2.09-.12a7,7,0,0,0,1.44-.23,1.55,1.55,0,0,0,.82-.53,1.67,1.67,0,0,0,.27-1,7.09,7.09,0,0,0-.09-1.1,2.44,2.44,0,0,0-.45-1.06,2.56,2.56,0,0,0-1.05-.79,4.56,4.56,0,0,0-1.86-.31,4.26,4.26,0,0,0-2.89.9A3.61,3.61,0,0,0,181,148h-.46A4.62,4.62,0,0,1,180.88,146.48Zm7.55,2.76a1.43,1.43,0,0,1-.71.5,6.14,6.14,0,0,1-1.1.26,11,11,0,0,1-1.35.11l-1.41.07a9.82,9.82,0,0,0-1.34.18,3,3,0,0,0-1.16.46,2.22,2.22,0,0,0-.8.91,3.36,3.36,0,0,0-.3,1.53,3.14,3.14,0,0,0,.17,1,2,2,0,0,0,.59.87,3.19,3.19,0,0,0,1.06.62,4.77,4.77,0,0,0,1.62.24,5.1,5.1,0,0,0,2.05-.39,4.74,4.74,0,0,0,1.5-1,4.36,4.36,0,0,0,.92-1.46,4.92,4.92,0,0,0,.31-1.7v-2.18Z"/><path class="cls-1" d="M192.86,153.88a2.8,2.8,0,0,0,.15,1,1.31,1.31,0,0,0,.38.55.9.9,0,0,0,.51.22,3.31,3.31,0,0,0,.55,0h.62a1.44,1.44,0,0,0,.39-.06v.46l-.4,0a5.83,5.83,0,0,1-.73,0,2.06,2.06,0,0,1-1.36-.47,2.19,2.19,0,0,1-.57-1.74v-9.14h-2.15v-.46h2.15v-3.72h.46v3.72h2.67v.46h-2.67Z"/><path class="cls-1" d="M197.13,142.1v-2.32h.46v2.32Zm0,14.08V144.37h.46v11.81Z"/><path class="cls-1" d="M199.84,147.94a6,6,0,0,1,1-2,5.26,5.26,0,0,1,1.67-1.36,5.28,5.28,0,0,1,4.57,0,5.12,5.12,0,0,1,1.66,1.36,5.83,5.83,0,0,1,1,2,8.19,8.19,0,0,1,0,4.67,5.83,5.83,0,0,1-1,2,4.85,4.85,0,0,1-1.66,1.35,5.08,5.08,0,0,1-6.24-1.35,6,6,0,0,1-1-2,8.19,8.19,0,0,1,0-4.67Zm.43,4.49a5.28,5.28,0,0,0,.93,1.83,4.53,4.53,0,0,0,1.52,1.26,4.46,4.46,0,0,0,2.11.47,4.33,4.33,0,0,0,2.07-.47,4.47,4.47,0,0,0,1.53-1.26,5.65,5.65,0,0,0,.93-1.83,7.58,7.58,0,0,0,0-4.29,5.65,5.65,0,0,0-.93-1.83A4.73,4.73,0,0,0,206.9,145a4.33,4.33,0,0,0-2.07-.48,4.47,4.47,0,0,0-2.11.48,4.8,4.8,0,0,0-1.52,1.27,5.28,5.28,0,0,0-.93,1.83,7.58,7.58,0,0,0,0,4.29Z"/><path class="cls-1" d="M212.49,144.37v2.92h0a4.14,4.14,0,0,1,.52-1.26,3.88,3.88,0,0,1,.89-1,4.08,4.08,0,0,1,1.25-.68,5,5,0,0,1,1.59-.24,5.12,5.12,0,0,1,1.69.27,3.86,3.86,0,0,1,1.33.82,3.75,3.75,0,0,1,.87,1.33,4.94,4.94,0,0,1,.31,1.83v7.83h-.46v-7.76a4.59,4.59,0,0,0-.3-1.76,3.44,3.44,0,0,0-.81-1.2,3.17,3.17,0,0,0-1.2-.68,4.51,4.51,0,0,0-1.43-.22,4,4,0,0,0-1.86.4,4,4,0,0,0-1.34,1.08,4.61,4.61,0,0,0-.82,1.57,6.53,6.53,0,0,0-.28,1.88v6.69H212V144.37Z"/><path class="cls-1" d="M235.92,153.94a4.26,4.26,0,0,1-1,1.34,4.46,4.46,0,0,1-1.47.85,5.44,5.44,0,0,1-1.85.3,5.11,5.11,0,0,1-2.23-.47,4.86,4.86,0,0,1-1.65-1.28,5.62,5.62,0,0,1-1-1.87,7.35,7.35,0,0,1-.34-2.28,9,9,0,0,1,.33-2.45,6.09,6.09,0,0,1,1-2,4.94,4.94,0,0,1,1.72-1.41,5.29,5.29,0,0,1,2.45-.53,4.89,4.89,0,0,1,1.58.25,4.17,4.17,0,0,1,1.36.74,4.06,4.06,0,0,1,1,1.2,4.36,4.36,0,0,1,.51,1.67h-.46a4.33,4.33,0,0,0-.5-1.51,3.68,3.68,0,0,0-.9-1,3.52,3.52,0,0,0-1.19-.64,4.93,4.93,0,0,0-1.4-.2,4.87,4.87,0,0,0-2.38.54,4.4,4.4,0,0,0-1.56,1.4,6,6,0,0,0-.85,1.93,9,9,0,0,0-.26,2.1,6.67,6.67,0,0,0,.31,2.06,5.48,5.48,0,0,0,.9,1.75,4.45,4.45,0,0,0,1.5,1.21,4.63,4.63,0,0,0,2.06.44,4.76,4.76,0,0,0,1.63-.26,4.09,4.09,0,0,0,1.35-.77,4,4,0,0,0,.95-1.21,4.15,4.15,0,0,0,.44-1.59h.46A5.26,5.26,0,0,1,235.92,153.94Z"/><path class="cls-1" d="M238.44,152.58a5.19,5.19,0,0,0,.81,1.78,3.81,3.81,0,0,0,1.43,1.2,4.73,4.73,0,0,0,2.13.43,4.82,4.82,0,0,0,3.09-1,4.42,4.42,0,0,0,1.53-2.93h.46a4.74,4.74,0,0,1-1.63,3.2,5.17,5.17,0,0,1-3.4,1.14,5.35,5.35,0,0,1-2.36-.44,4.11,4.11,0,0,1-1.59-1.29,5.83,5.83,0,0,1-.92-2,9.54,9.54,0,0,1-.3-2.44,7.34,7.34,0,0,1,.44-2.62,6,6,0,0,1,1.15-1.94,4.77,4.77,0,0,1,1.65-1.21,5.17,5.17,0,0,1,4.3.12,4.62,4.62,0,0,1,1.63,1.4,5.64,5.64,0,0,1,.92,2,8.24,8.24,0,0,1,.24,2.34h-9.87A9.6,9.6,0,0,0,238.44,152.58Zm8.83-4.73a5.15,5.15,0,0,0-.89-1.71,4.18,4.18,0,0,0-1.46-1.16,4.58,4.58,0,0,0-2-.42,4.36,4.36,0,0,0-1.8.37,4.25,4.25,0,0,0-1.47,1.06,5.56,5.56,0,0,0-1,1.69,7.23,7.23,0,0,0-.46,2.23h9.42A7,7,0,0,0,247.27,147.85Z"/><path class="cls-1" d="M250.32,144.37v2.92h.05a4,4,0,0,1,1.41-2.27,4.08,4.08,0,0,1,1.25-.68,4.9,4.9,0,0,1,1.58-.24,5,5,0,0,1,1.69.27,3.77,3.77,0,0,1,1.33.82,3.64,3.64,0,0,1,.88,1.33,5.16,5.16,0,0,1,.31,1.83v7.83h-.46v-7.76a4.59,4.59,0,0,0-.3-1.76,3.33,3.33,0,0,0-.82-1.2,3.13,3.13,0,0,0-1.19-.68,4.52,4.52,0,0,0-1.44-.22,4.1,4.1,0,0,0-1.86.4,4,4,0,0,0-1.34,1.08,4.59,4.59,0,0,0-.81,1.57,6.2,6.2,0,0,0-.28,1.88v6.69h-.46V144.37Z"/><path class="cls-1" d="M262.61,153.88a2.83,2.83,0,0,0,.14,1,1.31,1.31,0,0,0,.38.55.93.93,0,0,0,.51.22,3.39,3.39,0,0,0,.55,0h.62a1.44,1.44,0,0,0,.39-.06v.46l-.4,0a5.72,5.72,0,0,1-.73,0,2.06,2.06,0,0,1-1.36-.47,2.19,2.19,0,0,1-.56-1.74v-9.14H260v-.46h2.16v-3.72h.46v3.72h2.66v.46h-2.66Z"/><path class="cls-1" d="M266.93,152.58a5.21,5.21,0,0,0,.82,1.78,3.85,3.85,0,0,0,1.42,1.2,5.46,5.46,0,0,0,5.23-.54,4.46,4.46,0,0,0,1.52-2.93h.46a4.7,4.7,0,0,1-1.63,3.2,5.16,5.16,0,0,1-3.4,1.14A5.31,5.31,0,0,1,269,156a4.22,4.22,0,0,1-1.6-1.29,5.63,5.63,0,0,1-.91-2,9.54,9.54,0,0,1-.3-2.44,7.35,7.35,0,0,1,.43-2.62,6.16,6.16,0,0,1,1.15-1.94,5,5,0,0,1,1.65-1.21,4.89,4.89,0,0,1,1.93-.41,5,5,0,0,1,2.38.53,4.62,4.62,0,0,1,1.63,1.4,5.82,5.82,0,0,1,.92,2,8.24,8.24,0,0,1,.24,2.34h-9.87A9.61,9.61,0,0,0,266.93,152.58Zm8.83-4.73a5.13,5.13,0,0,0-.88-1.71,4.27,4.27,0,0,0-1.46-1.16,4.62,4.62,0,0,0-2-.42,4.36,4.36,0,0,0-1.8.37,4.25,4.25,0,0,0-1.47,1.06,5.56,5.56,0,0,0-1,1.69,7,7,0,0,0-.46,2.23h9.41A7,7,0,0,0,275.76,147.85Z"/><path class="cls-1" d="M278.36,156.18V144.37h.46v2.92h0a4.7,4.7,0,0,1,.51-1.25,3.42,3.42,0,0,1,.92-1,4.46,4.46,0,0,1,1.36-.69,5.55,5.55,0,0,1,1.85-.23v.46a4.35,4.35,0,0,0-2.1.33,4.06,4.06,0,0,0-1.46,1.1,4.82,4.82,0,0,0-.85,1.62,6.63,6.63,0,0,0-.27,1.88v6.69Z"/><path class="cls-1" d="M74.63,150.57a7.35,7.35,0,0,0-1.39-4.74,4.81,4.81,0,0,0-3.92-1.74,5.12,5.12,0,0,0-4.07,1.8,6.4,6.4,0,0,0-1.45,4.27,6.48,6.48,0,0,0,1.32,4.26,5.2,5.2,0,0,0,4.2,1.74,5.32,5.32,0,0,0,3.5-1.11,5.88,5.88,0,0,0,1.7-2.74l.1-.34H72.57l0,.21a2.82,2.82,0,0,1-1.13,1.7,3.56,3.56,0,0,1-2.07.61,3.3,3.3,0,0,1-2.67-1.11,4.07,4.07,0,0,1-.89-2.55h8.87Zm-5.31-4.81a3,3,0,0,1,2.5,1.11,3.94,3.94,0,0,1,.83,2.39H65.79a4.74,4.74,0,0,1,1-2.37A3.06,3.06,0,0,1,69.32,145.76Z"/><path class="cls-1" d="M80.13,146.05h2.52v-1.89H80v-1.25a1.91,1.91,0,0,0-1.93-2v3.24H76.22v1.89h1.84v5.57a4.39,4.39,0,0,0,1.32,3.32,4.51,4.51,0,0,0,3.27,1.22v-1.85a2.44,2.44,0,0,1-2.09-.94,2.84,2.84,0,0,1-.57-1.81v-5.51Z"/><path class="cls-1" d="M107.18,150.57a7.35,7.35,0,0,0-1.39-4.74,4.81,4.81,0,0,0-3.92-1.74,5.12,5.12,0,0,0-4.07,1.8,6.4,6.4,0,0,0-1.45,4.27,6.53,6.53,0,0,0,1.32,4.26,5.21,5.21,0,0,0,4.2,1.74,5.32,5.32,0,0,0,3.5-1.11,5.88,5.88,0,0,0,1.7-2.74l.11-.34h-2.06l-.05.21a2.82,2.82,0,0,1-1.13,1.7,3.54,3.54,0,0,1-2.07.61,3.28,3.28,0,0,1-2.67-1.11,4.07,4.07,0,0,1-.89-2.55h8.87Zm-5.31-4.81a3,3,0,0,1,2.5,1.11,3.94,3.94,0,0,1,.83,2.39H98.34a4.91,4.91,0,0,1,1-2.37A3.11,3.11,0,0,1,101.87,145.76Z"/><path class="cls-1" d="M57.21,145.94a2.46,2.46,0,0,1,2.09.94,2.84,2.84,0,0,1,.57,1.81v5.48a1.9,1.9,0,0,0,1.92,2v-7.53a4.44,4.44,0,0,0-1.28-3.3,4.55,4.55,0,0,0-3.3-1.24,4.47,4.47,0,0,0-3.27,1.23,4.32,4.32,0,0,0-1.32,3.31v7.53h1.92v-7.47a2.84,2.84,0,0,1,.57-1.81A2.47,2.47,0,0,1,57.21,145.94Z"/><path class="cls-1" d="M93.06,145.33a4.55,4.55,0,0,0-3.3-1.24,4.66,4.66,0,0,0-2.67.75v-4.42H85.17V152h1.92v-3.28a2.84,2.84,0,0,1,.57-1.81,2.8,2.8,0,0,1,4.19,0,2.84,2.84,0,0,1,.57,1.81v5.5a1.91,1.91,0,0,0,1.93,2v-7.55A4.44,4.44,0,0,0,93.06,145.33Z"/><path class="cls-1" d="M117.67,150.32a5.05,5.05,0,0,0-2-.82l-2.08-.49a7,7,0,0,1-1.62-.5,1.18,1.18,0,0,1-.67-1.09,1.37,1.37,0,0,1,.67-1.21,2.92,2.92,0,0,1,1.66-.41,3.45,3.45,0,0,1,1.55.31,1.82,1.82,0,0,1,1,1.49h2a3.23,3.23,0,0,0-1.32-2.55,5.14,5.14,0,0,0-3.14-1,4.84,4.84,0,0,0-3.33,1,3.19,3.19,0,0,0-1.12,2.49A2.68,2.68,0,0,0,110.5,150a8,8,0,0,0,2.54.87l1.28.28a5.49,5.49,0,0,1,1.7.58,1.15,1.15,0,0,1,.6,1,1.53,1.53,0,0,1-1.17,1.53,4.88,4.88,0,0,1-1.51.2,2.84,2.84,0,0,1-2.25-.79,2.35,2.35,0,0,1-.46-1.14h-2a3.27,3.27,0,0,0,1.28,2.58,5.68,5.68,0,0,0,3.57,1,5.17,5.17,0,0,0,3.44-1,3.21,3.21,0,0,0,1.2-2.55A2.7,2.7,0,0,0,117.67,150.32Z"/><path class="cls-1" d="M133,150.32a5.11,5.11,0,0,0-2-.82L128.9,149a7.32,7.32,0,0,1-1.62-.5,1.17,1.17,0,0,1-.66-1.09,1.36,1.36,0,0,1,.66-1.21,3,3,0,0,1,1.66-.41,3.5,3.5,0,0,1,1.56.31,1.81,1.81,0,0,1,1,1.49h2.05a3.24,3.24,0,0,0-1.33-2.55,5.12,5.12,0,0,0-3.14-1,4.87,4.87,0,0,0-3.33,1,3.18,3.18,0,0,0-1.11,2.49,2.68,2.68,0,0,0,1.12,2.41,8,8,0,0,0,2.54.87l1.29.28a5.69,5.69,0,0,1,1.7.58,1.17,1.17,0,0,1,.6,1,1.54,1.54,0,0,1-1.18,1.53,4.84,4.84,0,0,1-1.51.2,2.82,2.82,0,0,1-2.24-.79,2.35,2.35,0,0,1-.47-1.14h-2a3.26,3.26,0,0,0,1.27,2.58,5.71,5.71,0,0,0,3.58,1,5.19,5.19,0,0,0,3.44-1,3.24,3.24,0,0,0,1.2-2.55A2.7,2.7,0,0,0,133,150.32Z"/><path class="cls-1" d="M120.55,144.07a1.9,1.9,0,0,1,1.92,2v10.1h-1.92Z"/><path class="cls-1" d="M122.58,158.81a1.08,1.08,0,1,1-1.07-1.09A1.08,1.08,0,0,1,122.58,158.81Z"/><path class="cls-1" d="M31.54,154.14a6.35,6.35,0,1,1,6.36-6.35A6.36,6.36,0,0,1,31.54,154.14Zm0-11.12a4.77,4.77,0,1,0,4.78,4.77A4.78,4.78,0,0,0,31.54,143Z"/><path class="cls-1" d="M28.79,147.79h-1a3.75,3.75,0,0,1,3.74-3.74v1A2.75,2.75,0,0,0,28.79,147.79Z"/><path class="cls-1" d="M41.5,155.64l-3.82-3.82A7.48,7.48,0,0,1,35.41,154l3.85,3.85a1.58,1.58,0,0,0,1.12.46,1.57,1.57,0,0,0,1.12-.46A1.58,1.58,0,0,0,41.5,155.64Z"/><path class="cls-1" d="M17.58,146.77h6.21a7.76,7.76,0,0,1,2.29-4.61h-8.5a1.08,1.08,0,0,0-1.08,1.08v2.45A1.08,1.08,0,0,0,17.58,146.77Zm1.8-2.66h2.26a.38.38,0,1,1,0,.76H19.38a.38.38,0,0,1,0-.76Z"/><path class="cls-1" d="M31.54,155.57a7.79,7.79,0,0,1-5-1.85H17.58a1.07,1.07,0,0,0-1.08,1.07v2.46a1.07,1.07,0,0,0,1.08,1.07h15a1.07,1.07,0,0,0,1.08-1.07v-2A7.73,7.73,0,0,1,31.54,155.57Zm-9.9.85H19.38a.38.38,0,1,1,0-.75h2.26a.38.38,0,1,1,0,.75Z"/><path class="cls-1" d="M17.58,152.55h7.79a7.82,7.82,0,0,1-1.64-4.61H17.58A1.08,1.08,0,0,0,16.5,149v2.45A1.08,1.08,0,0,0,17.58,152.55Zm1.8-2.66h2.26a.38.38,0,0,1,0,.76H19.38a.38.38,0,0,1,0-.76Z"/></svg>