<svg width="338" height="60" viewBox="0 0 338 60" fill="none" xmlns="http://www.w3.org/2000/svg">
<g clip-path="url(#clip0_1015_648)">
<path d="M117.141 14.9679C120.505 14.9679 123.067 16.088 124.969 18.3832C126.572 20.3081 127.443 22.7961 127.578 25.7738H106.115C106.623 22.8298 107.714 20.3693 109.384 18.4291C111.411 16.0941 113.952 14.9557 117.157 14.9557M133.77 29.8134C133.77 23.5918 132.302 18.6678 129.418 15.1699C126.477 11.6047 122.355 9.79602 117.157 9.79602C111.903 9.79602 107.622 11.675 104.427 15.3688C101.415 18.8575 99.8862 23.2949 99.8862 28.5556C99.8862 34.0029 101.271 38.4158 104.011 41.6842C107.029 45.2586 111.46 47.0734 117.16 47.0734C121.649 47.0734 125.33 45.9166 128.107 43.6306C130.467 41.675 132.259 38.832 133.427 35.1903L133.764 34.1467H127.342L127.183 34.7588C126.705 36.9008 125.433 38.7817 123.624 40.0225C121.823 41.2741 119.649 41.9015 117.141 41.9015C113.53 41.9015 110.796 40.7906 108.8 38.4862C107.063 36.4878 106.121 33.8468 105.993 30.6243H133.754L133.77 29.8134Z" fill="#9333EA"/>
<path d="M150.976 15.8462H158.886V10.0316H150.532V6.14812C150.532 0 144.515 0 144.515 0V10.0316H138.735V15.8462H144.515V33.0634C144.515 37.308 145.903 40.7508 148.633 43.297C151.364 45.8431 154.676 47.0764 158.871 47.0764V41.369C155.978 41.369 153.841 40.4233 152.318 38.477C151.135 36.9744 150.532 35.0893 150.532 32.8644V15.8462H150.976Z" fill="#9333EA"/>
<path d="M79.2215 15.5401C82.1142 15.5401 84.2607 16.4857 85.7896 18.4321C86.9669 19.9316 87.5631 21.8168 87.5631 24.0385V40.9405C87.5631 47.0917 93.584 47.0917 93.584 47.0917V23.8335C93.584 19.644 92.2294 16.2256 89.5691 13.6519C86.8323 11.0721 83.4535 9.81738 79.2215 9.81738C74.9895 9.81738 71.6901 11.0415 68.9901 13.603C66.29 16.1644 64.8682 19.5858 64.8682 23.8335V47.0917H70.8798V24.0263C70.8798 21.8015 71.4914 19.9194 72.6686 18.4168C74.1975 16.4735 76.338 15.5279 79.2215 15.5279" fill="#9333EA"/>
<path d="M191.461 13.6428C188.728 11.0629 185.346 9.80822 181.126 9.80822C177.857 9.80822 175.114 10.5733 172.784 12.1065V0H166.77V47.1284H172.775V24.0263C172.775 21.8015 173.387 19.9194 174.561 18.4168C176.09 16.4735 178.23 15.5279 181.117 15.5279C184.003 15.5279 186.153 16.4735 187.679 18.4199C188.859 19.9194 189.455 21.8045 189.455 24.0263V40.9864C189.455 47.1345 195.479 47.1345 195.479 47.1345V23.8243C195.479 19.6348 194.122 16.2165 191.452 13.6428" fill="#9333EA"/>
<path d="M210.08 38.3576C210.618 39.2408 211.366 39.9768 212.257 40.4998C213.205 41.0496 214.239 41.4355 215.315 41.6413C216.465 41.8749 217.636 41.9908 218.81 41.9871C219.782 41.9842 220.753 41.9157 221.715 41.7821C222.68 41.6549 223.623 41.3986 224.519 41.0201C225.35 40.6674 226.077 40.1067 226.629 39.392C227.206 38.5999 227.498 37.6356 227.458 36.6561C227.458 35.1321 226.882 33.9784 225.73 33.1949C224.397 32.3316 222.932 31.6898 221.394 31.2945C219.667 30.811 217.788 30.3723 215.755 29.9786C213.825 29.6161 211.936 29.0593 210.117 28.3168C208.467 27.656 206.99 26.6259 205.799 25.3055C204.643 24.0141 204.067 22.2136 204.069 19.9041C204.026 18.2726 204.451 16.663 205.292 15.2647C206.078 13.9925 207.143 12.9149 208.405 12.1126C209.725 11.2845 211.17 10.6768 212.685 10.3132C214.234 9.92708 215.823 9.72979 217.419 9.72558C219.3 9.71099 221.177 9.88425 223.024 10.2428C224.635 10.5508 226.173 11.1625 227.556 12.0453C228.882 12.9125 229.966 14.1037 230.705 15.5065C231.488 16.9611 231.949 18.7728 232.087 20.9415H226.198C226.149 19.9225 225.839 18.933 225.299 18.0679C224.802 17.3151 224.139 16.6868 223.36 16.2318C222.56 15.7639 221.689 15.4271 220.782 15.2341C219.839 15.0284 218.877 14.9258 217.911 14.9281C217.019 14.9282 216.129 14.9978 215.248 15.1362C214.402 15.2596 213.578 15.5038 212.802 15.8615C212.102 16.1768 211.487 16.6516 211.004 17.2478C210.519 17.8946 210.274 18.6895 210.31 19.4971C210.297 19.9708 210.386 20.4416 210.572 20.8777C210.757 21.3138 211.033 21.705 211.383 22.0249C212.181 22.7461 213.109 23.3099 214.116 23.6866C215.33 24.1577 216.579 24.5282 217.853 24.7944C219.237 25.0984 220.621 25.4106 222.006 25.7309C223.479 26.0553 224.921 26.447 226.329 26.906C227.659 27.3296 228.918 27.9484 230.066 28.7422C231.142 29.4963 232.039 30.4772 232.696 31.6158C233.362 32.7706 233.697 34.1987 233.699 35.9002C233.699 38.071 233.249 39.8715 232.35 41.3016C231.457 42.7229 230.238 43.9105 228.794 44.7659C227.278 45.6658 225.614 46.2876 223.88 46.602C222.09 46.9453 220.272 47.1195 218.449 47.1223C216.541 47.1345 214.637 46.9292 212.774 46.5102C211.07 46.1345 209.45 45.4421 208.001 44.469C206.607 43.5113 205.467 42.2277 204.68 40.7294C203.848 39.1809 203.387 37.2998 203.295 35.0862H209.178C209.188 36.2368 209.499 37.3647 210.08 38.3576Z" fill="#9333EA"/>
<path d="M330.086 16.3878H338V10.5549H329.64V6.6806C329.64 0.529418 323.619 0.529419 323.619 0.529419V10.5549H317.84V16.3878H323.619V33.5958C323.619 37.8435 325.01 41.2863 327.738 43.8325C330.465 46.3787 333.783 47.6089 337.975 47.6089V41.9015C335.086 41.9015 332.948 40.9558 331.426 39.0095C330.242 37.5069 329.64 35.6187 329.64 33.3969V16.3878H330.086Z" fill="#9333EA"/>
<path d="M210.08 38.3576C210.617 39.2423 211.367 39.9786 212.26 40.4998C213.208 41.0504 214.242 41.4363 215.318 41.6413C216.468 41.8749 217.64 41.9908 218.813 41.9871C219.785 41.9841 220.756 41.9156 221.718 41.7821C222.683 41.6549 223.626 41.3986 224.522 41.0201C225.353 40.6674 226.08 40.1067 226.632 39.392C227.209 38.5999 227.501 37.6356 227.461 36.6561C227.461 35.1321 226.885 33.9784 225.733 33.1949C224.399 32.3312 222.933 31.6895 221.394 31.2945C219.667 30.811 217.788 30.3723 215.755 29.9786C213.825 29.6161 211.936 29.0593 210.117 28.3168C208.467 27.656 206.99 26.6259 205.799 25.3055C204.643 24.0141 204.067 22.2136 204.069 19.9041C204.026 18.2726 204.451 16.663 205.292 15.2647C206.078 13.9925 207.143 12.9149 208.405 12.1126C209.725 11.2845 211.17 10.6768 212.685 10.3132C214.234 9.92708 215.823 9.72979 217.419 9.72558C219.3 9.71099 221.177 9.88425 223.024 10.2428C224.635 10.5514 226.172 11.1631 227.556 12.0453C228.882 12.9125 229.966 14.1037 230.705 15.5065C231.488 16.9611 231.949 18.7728 232.087 20.9415H226.198C226.149 19.9225 225.839 18.933 225.299 18.0679C224.802 17.3151 224.139 16.6868 223.36 16.2318C222.56 15.7639 221.689 15.4271 220.782 15.2341C219.839 15.0286 218.877 14.926 217.911 14.9281C217.019 14.9282 216.129 14.9978 215.248 15.1362C214.402 15.2596 213.578 15.5038 212.802 15.8615C212.102 16.1768 211.487 16.6516 211.004 17.2478C210.52 17.8949 210.276 18.6899 210.313 19.4971C210.3 19.9705 210.389 20.4412 210.573 20.8773C210.758 21.3134 211.034 21.7048 211.383 22.0249C212.181 22.7461 213.109 23.3099 214.116 23.6866C215.33 24.1577 216.579 24.5282 217.853 24.7944C219.237 25.0984 220.621 25.4106 222.006 25.7309C223.479 26.0553 224.921 26.447 226.329 26.906C227.659 27.3302 228.918 27.949 230.066 28.7422C231.142 29.4963 232.039 30.4772 232.696 31.6158C233.362 32.7706 233.697 34.1987 233.699 35.9002C233.699 38.071 233.249 39.8715 232.35 41.3016C231.457 42.7229 230.238 43.9105 228.794 44.7659C227.278 45.6663 225.614 46.2881 223.88 46.602C222.09 46.9453 220.272 47.1195 218.449 47.1223C216.541 47.1347 214.636 46.9294 212.774 46.5102C211.069 46.1358 209.45 45.4433 208.001 44.469C206.607 43.5113 205.467 42.2277 204.68 40.7294C203.848 39.1849 203.387 37.3039 203.295 35.0862H209.178C209.188 36.2368 209.499 37.3647 210.08 38.3576Z" fill="#9333EA"/>
<path d="M286.36 34.2721C286.861 35.828 287.672 37.2658 288.745 38.4984C289.733 39.6098 290.949 40.4949 292.31 41.0935C293.674 41.6871 295.146 41.9933 296.634 41.9933C298.122 41.9933 299.593 41.6871 300.958 41.0935C302.319 40.4949 303.535 39.6098 304.523 38.4984C305.595 37.265 306.406 35.8274 306.908 34.2721C307.514 32.4063 307.806 30.4528 307.773 28.4913C307.806 26.5287 307.513 24.5743 306.908 22.7073C306.4 21.1453 305.59 19.6987 304.523 18.4505C303.542 17.3218 302.325 16.4233 300.958 15.8186C299.593 15.2251 298.122 14.9188 296.634 14.9188C295.146 14.9188 293.674 15.2251 292.31 15.8186C290.943 16.4233 289.726 17.3218 288.745 18.4505C287.677 19.698 286.866 21.1447 286.36 22.7073C285.754 24.5743 285.462 26.5287 285.494 28.4913C285.462 30.4528 285.754 32.4063 286.36 34.2721ZM280.372 21.1129C281.06 18.9205 282.192 16.8932 283.696 15.1576C285.207 13.4491 287.071 12.0913 289.161 11.1792C291.521 10.1712 294.068 9.67577 296.634 9.72558C299.488 9.72558 301.99 10.2101 304.141 11.1792C306.217 12.0988 308.07 13.4558 309.574 15.1576C311.077 16.8942 312.207 18.9212 312.895 21.1129C313.648 23.4981 314.022 25.9869 314.002 28.4882C314.024 30.9796 313.65 33.4587 312.895 35.8329C312.203 38.0126 311.073 40.0277 309.574 41.7546C308.076 43.4555 306.221 44.8037 304.141 45.7023C301.998 46.6469 299.496 47.1203 296.634 47.1223C294.072 47.1706 291.527 46.6871 289.161 45.7023C287.067 44.8113 285.2 43.4623 283.696 41.7546C282.196 40.0287 281.065 38.0133 280.372 35.8329C279.617 33.4587 279.244 30.9796 279.266 28.4882C279.246 25.9869 279.62 23.4981 280.372 21.1129Z" fill="#9333EA"/>
<path d="M267.505 33.2684C267.172 34.8402 266.564 36.3405 265.707 37.6997C264.88 38.9897 263.752 40.0597 262.42 40.8181C261.061 41.6015 259.365 41.9933 257.335 41.9933C255.305 41.9933 253.572 41.6128 252.137 40.8518C250.755 40.132 249.558 39.1012 248.642 37.8404C247.716 36.5351 247.047 35.0656 246.669 33.5101C245.851 30.2237 245.842 26.7873 246.645 23.4969C247.006 21.9492 247.651 20.482 248.547 19.1696C249.426 17.8958 250.587 16.8414 251.938 16.0879C253.32 15.3147 255.003 14.9281 256.987 14.9281C258.701 14.888 260.4 15.2683 261.934 16.0359C263.306 16.7421 264.492 17.7623 265.395 19.0136C266.314 20.3003 266.994 21.7424 267.401 23.2704C267.84 24.8655 268.061 26.5125 268.059 28.1669C268.063 29.8897 267.877 31.6077 267.505 33.2898M273.248 21.3547C272.603 19.1839 271.559 17.1528 270.169 15.3657C268.793 13.6282 267.043 12.2234 265.05 11.2557C262.995 10.2356 260.585 9.72559 257.818 9.72559H257.748C255.183 9.67575 252.637 10.1712 250.278 11.1792C248.188 12.0912 246.322 13.4489 244.81 15.1576C243.305 16.8927 242.175 18.9201 241.49 21.1129C240.735 23.4978 240.362 25.9868 240.383 28.4882V60.0092H246.263V41.5801H246.4C247.02 42.6123 247.831 43.5169 248.789 44.2456C249.709 44.947 250.721 45.5175 251.797 45.941C252.841 46.352 253.924 46.6536 255.03 46.8408C255.999 47.0164 256.982 47.1096 257.968 47.1192C260.69 47.1192 263.077 46.6347 265.129 45.6656C267.117 44.7466 268.869 43.3859 270.251 41.6872C271.652 39.9356 272.692 37.9227 273.309 35.7656C273.983 33.4234 274.315 30.9959 274.294 28.5586C274.305 26.1186 273.953 23.6905 273.248 21.3547Z" fill="#9333EA"/>
<path d="M39.3049 33.1888C38.9773 33.1888 38.6528 33.1242 38.3501 32.9987C38.0473 32.8732 37.7723 32.6892 37.5406 32.4574C35.9238 30.8391 34.0043 29.5553 31.8918 28.6795C29.7792 27.8037 27.515 27.3529 25.2284 27.3529C22.9417 27.3529 20.6775 27.8037 18.5649 28.6795C16.4524 29.5553 14.5329 30.8391 12.9161 32.4574C12.4437 32.9056 11.815 33.1515 11.1641 33.1428C10.5131 33.1341 9.89127 32.8715 9.43093 32.4107C8.9706 31.95 8.70814 31.3277 8.69944 30.6762C8.69074 30.0247 8.93649 29.3956 9.38436 28.9227C11.4649 26.8401 13.9349 25.188 16.6535 24.0609C19.372 22.9338 22.2858 22.3536 25.2284 22.3536C28.1709 22.3536 31.0847 22.9338 33.8032 24.0609C36.5218 25.188 38.9918 26.8401 41.0723 28.9227C41.4215 29.2721 41.6592 29.7174 41.7554 30.2021C41.8515 30.6868 41.8019 31.1891 41.6126 31.6456C41.4234 32.102 41.1031 32.492 40.6923 32.7661C40.2815 33.0403 39.7987 33.1863 39.3049 33.1857" fill="#9333EA"/>
<path d="M47.9583 24.5282C47.629 24.5306 47.3025 24.4678 46.9976 24.3433C46.6926 24.2188 46.4154 24.0352 46.1817 23.8029C40.6204 18.2442 33.0819 15.122 25.222 15.122C17.3622 15.122 9.82368 18.2442 4.26234 23.8029C3.79359 24.2716 3.158 24.5348 2.49538 24.5345C1.83276 24.5342 1.19739 24.2705 0.72905 23.8014C0.26071 23.3323 -0.00223962 22.6962 -0.00195289 22.033C-0.00166617 21.3698 0.261833 20.734 0.730579 20.2652C3.94745 17.0452 7.76659 14.4909 11.9699 12.7482C16.1732 11.0055 20.6784 10.1085 25.2281 10.1085C29.7779 10.1085 34.283 11.0055 38.4864 12.7482C42.6897 14.4909 46.5088 17.0452 49.7257 20.2652C50.0748 20.6147 50.3125 21.0599 50.4087 21.5446C50.5049 22.0293 50.4552 22.5316 50.266 22.9881C50.0768 23.4445 49.7565 23.8345 49.3457 24.1086C48.9349 24.3828 48.4521 24.5288 47.9583 24.5282Z" fill="#9333EA"/>
<path d="M29.8135 39.0554C29.8135 39.9633 29.5445 40.8508 29.0405 41.6057C28.5365 42.3606 27.8202 42.949 26.9821 43.2964C26.144 43.6438 25.2217 43.7347 24.332 43.5576C23.4423 43.3805 22.625 42.9433 21.9836 42.3013C21.3421 41.6593 20.9052 40.8414 20.7283 39.9509C20.5513 39.0605 20.6421 38.1375 20.9893 37.2987C21.3364 36.4599 21.9243 35.743 22.6786 35.2386C23.4329 34.7342 24.3197 34.465 25.2268 34.465C26.4433 34.465 27.61 34.9486 28.4701 35.8095C29.3303 36.6703 29.8135 37.8379 29.8135 39.0554Z" fill="#9333EA"/>
</g>
<defs>
<clipPath id="clip0_1015_648">
<rect width="338" height="60" fill="white"/>
</clipPath>
</defs>
</svg>
