<svg id="Livello_1" data-name="Livello 1" xmlns="http://www.w3.org/2000/svg" viewBox="0 0 300 300"><defs><style>.cls-1{fill:#9d9d9c;}</style></defs><title>loghi_svg</title><path class="cls-1" d="M84.74,147,90,144.4l-11.39-5.63-5.23,2.57-5.24-2.56-11.38,5.65L62,147l-5.22,2.56,6,3v6.91l10.62,5.26L84,159.41v-6.92l6-3Zm-25.29-2.54,8.66-4.3L72,142l-8.66,4.29-.6-.3v0Zm0,5.13,3.87-1.9L72,151.93l-3.87,1.9ZM72.75,163l-8.82-4.37v-5.57l4.19,2.08,4.63-2.27Zm5.83-22.92,8.67,4.29-3.88,1.89L74.71,142Zm4.19,18.55L74,163V152.89l4.64,2.27,4.18-2.08Zm-4.18-4.84-3.88-1.89,8.67-4.3,3.87,1.89Z"/><path class="cls-1" d="M141.18,152.68c0-3.25-.77-5.83-2.3-7.66a8,8,0,0,0-6.48-2.81,8.56,8.56,0,0,0-6.73,2.92,10.14,10.14,0,0,0-2.4,6.89,10.32,10.32,0,0,0,2.18,6.86,8.68,8.68,0,0,0,7,2.82,8.89,8.89,0,0,0,5.79-1.8,9.16,9.16,0,0,0,2.81-4.41l.18-.55h-3.4l-.08.33a4.5,4.5,0,0,1-1.87,2.74,5.9,5.9,0,0,1-3.43,1,5.5,5.5,0,0,1-4.41-1.79,6.47,6.47,0,0,1-1.48-4.11h14.67Zm-8.78-7.77a5.06,5.06,0,0,1,4.14,1.79,6.23,6.23,0,0,1,1.38,3.86H126.57a7.73,7.73,0,0,1,1.72-3.83A5.2,5.2,0,0,1,132.4,144.91Z"/><path class="cls-1" d="M150.29,145.38h4.18v-3h-4.42v-2a3.12,3.12,0,0,0-3.18-3.21v5.24h-3.05v3h3.05v9a7,7,0,0,0,2.18,5.35,7.59,7.59,0,0,0,5.41,2v-3A4.09,4.09,0,0,1,151,157.2a4.54,4.54,0,0,1-.95-2.93v-8.89Z"/><path class="cls-1" d="M112.36,145.2a4.13,4.13,0,0,1,3.47,1.52,4.57,4.57,0,0,1,.94,2.93v8.84A3.12,3.12,0,0,0,120,161.7V149.54a7.06,7.06,0,0,0-2.12-5.32,7.63,7.63,0,0,0-5.47-2,7.55,7.55,0,0,0-5.41,2,6.93,6.93,0,0,0-2.18,5.35V161.7H108v-12a4.62,4.62,0,0,1,.94-2.94A4.15,4.15,0,0,1,112.36,145.2Z"/><path class="cls-1" d="M171.69,144.22a7.61,7.61,0,0,0-5.46-2,7.79,7.79,0,0,0-4.41,1.21v-7.13h-3.18v18.65h3.18v-5.29a4.56,4.56,0,0,1,.94-2.94,4.72,4.72,0,0,1,6.93,0,4.52,4.52,0,0,1,.94,2.93v8.84a3.13,3.13,0,0,0,3.19,3.21V149.54A7,7,0,0,0,171.69,144.22Z"/><path class="cls-1" d="M183.53,148a7.67,7.67,0,0,1,2.65-4.18,7.83,7.83,0,0,1,5-1.58,7.38,7.38,0,0,1,3.5.81,7.7,7.7,0,0,1,2.56,2.18,10.33,10.33,0,0,1,1.57,3.17,14,14,0,0,1,0,7.76,9.26,9.26,0,0,1-1.63,3.12,7.44,7.44,0,0,1-2.57,2.05,8.39,8.39,0,0,1-8.36-.85,8.05,8.05,0,0,1-2.74-4.14h-.08v5.32h-.74V135.33h.74V148Zm.45,7.72a8.85,8.85,0,0,0,1.51,2.91,7.08,7.08,0,0,0,5.73,2.74,6.91,6.91,0,0,0,3.26-.74,6.61,6.61,0,0,0,2.31-2,9.11,9.11,0,0,0,1.38-2.93,13,13,0,0,0,0-6.78,9.41,9.41,0,0,0-1.32-2.95,7.14,7.14,0,0,0-2.3-2.14,6.43,6.43,0,0,0-3.37-.84,7.2,7.2,0,0,0-5.64,2.39c-1.42,1.58-2.13,3.87-2.13,6.85A11.61,11.61,0,0,0,184,155.76Z"/><path class="cls-1" d="M206,148.46a9.64,9.64,0,0,1,1.66-3.16,8.25,8.25,0,0,1,2.7-2.19,8,8,0,0,1,3.74-.83,7.84,7.84,0,0,1,3.69.83,8.39,8.39,0,0,1,2.71,2.19,9.83,9.83,0,0,1,1.66,3.16,12.84,12.84,0,0,1,0,7.5,9.73,9.73,0,0,1-1.66,3.16,8.36,8.36,0,0,1-2.71,2.18,8.25,8.25,0,0,1-10.13-2.18A9.54,9.54,0,0,1,206,156a12.84,12.84,0,0,1,0-7.5Zm.69,7.22a8.72,8.72,0,0,0,1.51,2.94,7.54,7.54,0,0,0,2.48,2,7.43,7.43,0,0,0,3.42.76,7.34,7.34,0,0,0,3.37-.76,7.44,7.44,0,0,0,2.48-2,8.74,8.74,0,0,0,1.52-2.94,12.08,12.08,0,0,0,.5-3.47,11.91,11.91,0,0,0-.5-3.43,8.74,8.74,0,0,0-1.52-2.94,7.62,7.62,0,0,0-2.48-2.05,7.1,7.1,0,0,0-3.37-.78,7.19,7.19,0,0,0-3.42.78,7.72,7.72,0,0,0-2.48,2.05,8.72,8.72,0,0,0-1.51,2.94,11.57,11.57,0,0,0-.5,3.43A11.74,11.74,0,0,0,206.72,155.68Z"/><path class="cls-1" d="M242.6,142.72l-7,9.16,7.69,9.82h-.93l-7.24-9.27-7.2,9.27H227l7.65-9.82-7-9.16h1l6.46,8.6,6.6-8.6Z"/></svg>