<svg width="216" height="30" viewBox="0 0 216 30" fill="none" xmlns="http://www.w3.org/2000/svg">
<g clip-path="url(#clip0_1020_1145)">
<path d="M84.2973 14.556C84.2973 11.5193 83.5837 9.11666 82.1783 7.4096C80.7445 5.66964 78.7372 4.7876 76.2046 4.7876C73.6719 4.7876 71.5595 5.70256 70.0031 7.50615C68.5343 9.20881 67.79 11.3744 67.79 13.9416C67.79 16.5987 68.4664 18.7512 69.7995 20.3463C71.2705 22.0907 73.4289 22.9793 76.2046 22.9793C78.3936 22.9793 80.1842 22.4154 81.537 21.3008C82.6862 20.3463 83.5596 18.9596 84.1309 17.1824L84.2929 16.6733H81.1648L81.0882 16.9761C80.8573 18.0177 80.2419 18.9333 79.3655 19.5389C78.434 20.1664 77.3308 20.4877 76.2089 20.4582C74.4577 20.4582 73.1181 19.9141 72.144 18.7907C71.299 17.8165 70.8306 16.5263 70.778 14.9531H84.2973V14.556ZM76.198 7.30429C77.8397 7.30429 79.0853 7.85064 80.0112 8.97185C80.7905 9.91094 81.2152 11.1243 81.283 12.5768H70.8284C71.0217 11.2606 71.573 10.0231 72.422 9.00036C72.8836 8.44838 73.4644 8.00884 74.1205 7.715C74.7766 7.42117 75.4907 7.28072 76.2089 7.30429H76.198Z" fill="#059669"/>
<path d="M92.6923 7.73864H96.5559V4.88624H92.4778V2.99488C92.4778 -0.00671554 89.5445 -0.00671387 89.5445 -0.00671387V4.88624H86.7295V7.73864H89.5511V16.1379C89.5511 18.2113 90.2275 19.8899 91.5584 21.1317C92.8893 22.3736 94.5026 22.9748 96.545 22.9748V20.1883C95.1374 20.1883 94.0955 19.7253 93.3534 18.7752C92.757 17.99 92.4479 17.0233 92.4778 16.0369V7.73864H92.6923Z" fill="#059669"/>
<path d="M57.7339 7.57856C59.1436 7.57856 60.19 8.03933 60.9342 8.9894C61.5301 9.774 61.8392 10.7399 61.8098 11.7255V19.9755C61.8098 22.9749 64.7431 22.9749 64.7431 22.9749V11.6268C64.7431 9.58182 64.0864 7.91426 62.7861 6.65921C61.453 5.39977 59.8069 4.7876 57.7514 4.7876C55.696 4.7876 54.0827 5.39099 52.7671 6.63288C51.4515 7.87477 50.7598 9.55329 50.7598 11.6268V22.9749H53.6886V11.7321C53.6579 10.7456 53.9671 9.77856 54.5642 8.99378C55.2844 8.03933 56.3264 7.57856 57.7339 7.57856Z" fill="#059669"/>
<path d="M112.417 6.65925C111.086 5.39981 109.442 4.78764 107.383 4.78764C105.791 4.78764 104.456 5.16064 103.32 5.90885V0H100.389V22.975H103.318V11.7321C103.287 10.7456 103.596 9.7786 104.193 8.99383C104.935 8.04595 105.977 7.58518 107.385 7.58518C108.792 7.58518 109.841 8.04595 110.583 8.99602C111.173 9.78252 111.476 10.7485 111.441 11.7321V20.0085C111.441 23.0079 114.374 23.0079 114.374 23.0079V11.6268C114.379 9.58186 113.717 7.91431 112.417 6.65925Z" fill="#059669"/>
<path d="M123.848 22.6217L117.375 5.14966H120.578L125.466 19.7122H125.534L130.288 5.14966H133.287L126.917 22.6195L123.848 22.6217Z" fill="#059669"/>
<path d="M135.52 10.3036C135.854 9.2339 136.405 8.24487 137.138 7.39858C137.873 6.56393 138.781 5.90107 139.8 5.45675C142.141 4.50888 144.758 4.50888 147.1 5.45675C148.113 5.90365 149.017 6.56627 149.749 7.39858C150.482 8.24529 151.033 9.23415 151.369 10.3036C151.735 11.4682 151.917 12.6832 151.907 13.9042C151.917 15.1189 151.736 16.3275 151.369 17.4851C151.031 18.5488 150.479 19.5322 149.749 20.3748C149.02 21.2046 148.117 21.8619 147.104 22.2991C144.758 23.2234 142.15 23.2234 139.804 22.2991C138.785 21.8649 137.875 21.2074 137.142 20.3748C136.41 19.533 135.858 18.5494 135.52 17.4851C135.151 16.3279 134.969 15.1191 134.979 13.9042C134.969 12.683 135.152 11.4678 135.52 10.3036ZM138.436 16.7237C138.68 17.483 139.076 18.1846 139.598 18.7862C140.079 19.3288 140.671 19.7607 141.334 20.0523C141.998 20.3438 142.716 20.4943 143.441 20.4943C144.166 20.4943 144.884 20.3438 145.548 20.0523C146.211 19.7607 146.803 19.3288 147.284 18.7862C147.807 18.1844 148.203 17.4828 148.448 16.7237C149.006 14.8812 149.002 12.9136 148.435 11.0738C148.187 10.3111 147.792 9.60492 147.271 8.99592C146.793 8.44486 146.201 8.00589 145.535 7.71015C144.87 7.42069 144.153 7.27131 143.428 7.27131C142.703 7.27131 141.986 7.42069 141.321 7.71015C140.655 8.00589 140.063 8.44486 139.585 8.99592C139.064 9.6045 138.669 10.3108 138.423 11.0738C137.86 12.9118 137.86 14.8769 138.423 16.7149L138.436 16.7237Z" fill="#059669"/>
<path d="M173.171 8.19292C172.451 7.58587 171.485 7.28161 170.273 7.28015C169.373 7.24879 168.48 7.44657 167.676 7.85502C167.004 8.21582 166.43 8.73827 166.008 9.37557C165.577 10.0396 165.274 10.7786 165.113 11.5544C164.932 12.3928 164.842 13.2483 164.844 14.1062C164.843 14.9034 164.939 15.6978 165.131 16.4715C165.305 17.2008 165.607 17.8933 166.024 18.5164C166.43 19.1148 166.974 19.6069 167.609 19.9514C168.325 20.3286 169.126 20.5152 169.936 20.4933C171.35 20.4933 172.457 20.1211 173.256 19.3765C174.056 18.632 174.544 17.5846 174.721 16.2345H177.654C177.339 18.3979 176.536 20.0647 175.246 21.235C173.956 22.4052 172.198 22.9903 169.971 22.9903C168.766 23.0122 167.569 22.7944 166.448 22.3496C165.464 21.9493 164.586 21.3242 163.885 20.5241C163.18 19.7004 162.653 18.7398 162.335 17.7024C161.976 16.5373 161.8 15.3234 161.812 14.104C161.803 12.8637 161.973 11.6288 162.318 10.4375C162.627 9.35444 163.148 8.34379 163.85 7.46446C164.547 6.61114 165.429 5.92889 166.429 5.46997C167.563 4.9654 168.795 4.71745 170.036 4.74371C170.975 4.73723 171.91 4.85678 172.816 5.09916C173.643 5.31779 174.421 5.68992 175.11 6.19624C175.779 6.7006 176.335 7.33962 176.743 8.07224C177.194 8.90237 177.47 9.81649 177.553 10.7579H174.583C174.358 9.65203 173.887 8.79704 173.171 8.19292Z" fill="#059669"/>
<path d="M193.19 21.5071C191.886 22.4959 190.246 22.991 188.269 22.9925C187.027 23.0214 185.794 22.7913 184.646 22.3167C183.655 21.89 182.773 21.2433 182.067 20.4253C181.348 19.5761 180.814 18.586 180.498 17.5181C180.138 16.3228 179.94 15.0845 179.909 13.8363C179.895 12.5966 180.1 11.3642 180.515 10.1962C180.893 9.1376 181.471 8.16226 182.218 7.32406C182.942 6.5175 183.826 5.87236 184.814 5.43051C185.848 4.97319 186.968 4.74278 188.098 4.75471C189.648 4.75471 190.934 5.07579 191.957 5.71794C192.954 6.33534 193.797 7.17381 194.42 8.16881C195.039 9.16324 195.473 10.262 195.7 11.4118C195.93 12.5115 196.026 13.635 195.987 14.7579H182.941C182.915 15.4938 183.006 16.2292 183.21 16.9366C183.403 17.6074 183.736 18.229 184.188 18.76C184.659 19.3062 185.247 19.7396 185.907 20.0282C186.684 20.3602 187.523 20.5218 188.367 20.5021C189.583 20.5021 190.577 20.2206 191.351 19.6574C192.124 19.0942 192.635 18.2378 192.883 17.088H195.718C195.337 19.0423 194.494 20.5153 193.19 21.5071ZM192.5 10.2884C192.125 9.38694 191.49 8.61864 190.676 8.08248C189.861 7.54632 188.906 7.26688 187.932 7.28018C187.244 7.26959 186.561 7.40182 185.926 7.66855C185.349 7.91578 184.828 8.27779 184.394 8.73271C183.964 9.19001 183.621 9.72249 183.383 10.3037C183.133 10.9122 182.985 11.558 182.945 12.2148H192.957C192.914 11.5514 192.76 10.9001 192.5 10.2884Z" fill="#059669"/>
<path d="M158.301 5.14966V22.6195H155.44V5.14966H158.301Z" fill="#059669"/>
<path d="M156.869 3.25404C157.696 3.25404 158.367 2.58211 158.367 1.75324C158.367 0.924372 157.696 0.252441 156.869 0.252441C156.042 0.252441 155.372 0.924372 155.372 1.75324C155.372 2.58211 156.042 3.25404 156.869 3.25404Z" fill="#059669"/>
<path d="M37.234 17.4742C36.1417 17.4751 35.0601 17.2589 34.0516 16.8382C33.0432 16.4176 32.1279 15.8007 31.3587 15.0233C30.1448 13.8116 28.5013 13.1312 26.7881 13.1312C25.0749 13.1312 23.4314 13.8116 22.2175 15.0233L22.0598 15.1813L20 13.1144L20.1554 12.9564C21.9162 11.1964 24.3014 10.208 26.7881 10.208C29.2748 10.208 31.66 11.1964 33.4208 12.9564C33.9222 13.4604 34.5179 13.8602 35.1737 14.133C35.8296 14.4058 36.5327 14.5462 37.2428 14.5462C37.9528 14.5462 38.6559 14.4058 39.3118 14.133C39.9676 13.8602 40.5633 13.4604 41.0647 12.9564L41.2202 12.7985L43.2844 14.8632L43.1268 15.0211C42.3558 15.8011 41.4378 16.4196 40.4261 16.8408C39.4145 17.2619 38.3294 17.4772 37.234 17.4742Z" fill="#059669"/>
</g>
<defs>
<clipPath id="clip0_1020_1145">
<rect width="176" height="23" fill="white" transform="translate(20)"/>
</clipPath>
</defs>
</svg>
