<svg id="Livello_1" data-name="Livello 1" xmlns="http://www.w3.org/2000/svg" viewBox="0 0 300 300"><defs><style>.cls-1{fill:#9d9d9c;}</style></defs><title>loghi_svg</title><path class="cls-1" d="M159.77,139.21a7.9,7.9,0,0,0-1.49-5.1,5.17,5.17,0,0,0-4.22-1.87,5.48,5.48,0,0,0-4.37,1.94,6.83,6.83,0,0,0-1.56,4.59,7,7,0,0,0,1.41,4.58,5.59,5.59,0,0,0,4.52,1.87,5.65,5.65,0,0,0,3.76-1.2,6.09,6.09,0,0,0,1.83-2.94l.12-.36h-2.21l-.06.22a3,3,0,0,1-1.21,1.83,3.83,3.83,0,0,1-2.23.65,3.56,3.56,0,0,1-2.87-1.19,4.34,4.34,0,0,1-1-2.74h9.54ZM154.06,134a3.22,3.22,0,0,1,2.69,1.19,4.26,4.26,0,0,1,.9,2.57h-7.38a5.22,5.22,0,0,1,1.12-2.56A3.33,3.33,0,0,1,154.06,134Z"/><path class="cls-1" d="M165.69,134.34h2.72v-2h-2.87V131a2,2,0,0,0-2.07-2.14v3.49h-2v2h2v6a4.71,4.71,0,0,0,1.42,3.57,4.84,4.84,0,0,0,3.52,1.31v-2a2.66,2.66,0,0,1-2.26-1,3.13,3.13,0,0,1-.61-1.95v-5.93Z"/><path class="cls-1" d="M194.8,139.21a7.85,7.85,0,0,0-1.5-5.1,5.15,5.15,0,0,0-4.21-1.87,5.49,5.49,0,0,0-4.38,1.94,6.88,6.88,0,0,0-1.56,4.59,7,7,0,0,0,1.42,4.58,5.59,5.59,0,0,0,4.52,1.87,5.67,5.67,0,0,0,3.76-1.2,6.16,6.16,0,0,0,1.83-2.94l.12-.36h-2.21l-.06.22a3,3,0,0,1-1.21,1.83,3.83,3.83,0,0,1-2.23.65,3.56,3.56,0,0,1-2.87-1.19,4.4,4.4,0,0,1-1-2.74h9.55ZM189.09,134a3.22,3.22,0,0,1,2.69,1.19,4.19,4.19,0,0,1,.89,2.57h-7.38a5.31,5.31,0,0,1,1.12-2.56A3.35,3.35,0,0,1,189.09,134Z"/><path class="cls-1" d="M141,134.23a2.67,2.67,0,0,1,2.26,1,3.13,3.13,0,0,1,.61,1.95v5.89a2,2,0,0,0,2.06,2.14v-8.1a4.75,4.75,0,0,0-1.38-3.55,5.38,5.38,0,0,0-7.07,0,4.67,4.67,0,0,0-1.42,3.56v8.1h2.07v-8a3.05,3.05,0,0,1,.62-1.95A2.64,2.64,0,0,1,141,134.23Z"/><path class="cls-1" d="M179.61,133.57a4.88,4.88,0,0,0-3.56-1.33,5,5,0,0,0-2.86.8v-4.75h-2.07v12.43h2.07v-3.53a3,3,0,0,1,.61-1.95,3,3,0,0,1,4.51,0,3.07,3.07,0,0,1,.61,1.95v5.91a2,2,0,0,0,2.07,2.14v-8.12A4.79,4.79,0,0,0,179.61,133.57Z"/><path class="cls-1" d="M206.09,138.94a5.56,5.56,0,0,0-2.13-.88l-2.24-.53A7.32,7.32,0,0,1,200,137a1.26,1.26,0,0,1-.72-1.17,1.49,1.49,0,0,1,.71-1.31,3.27,3.27,0,0,1,1.79-.44,3.73,3.73,0,0,1,1.68.34,1.94,1.94,0,0,1,1.11,1.6h2.2a3.47,3.47,0,0,0-1.43-2.74,5.55,5.55,0,0,0-3.37-1,5.26,5.26,0,0,0-3.59,1.08,3.48,3.48,0,0,0-1.2,2.69,2.88,2.88,0,0,0,1.21,2.58,8.66,8.66,0,0,0,2.74.95l1.38.3a6,6,0,0,1,1.83.61,1.24,1.24,0,0,1,.64,1.13,1.64,1.64,0,0,1-1.26,1.64,5.25,5.25,0,0,1-1.63.21,3,3,0,0,1-2.41-.84,2.58,2.58,0,0,1-.5-1.23H197a3.49,3.49,0,0,0,1.37,2.77,6.08,6.08,0,0,0,3.85,1.09,5.59,5.59,0,0,0,3.7-1.1,3.43,3.43,0,0,0,1.29-2.74A2.86,2.86,0,0,0,206.09,138.94Z"/><path class="cls-1" d="M222.55,138.94a5.62,5.62,0,0,0-2.14-.88l-2.23-.53a7.63,7.63,0,0,1-1.75-.54,1.26,1.26,0,0,1-.71-1.17,1.49,1.49,0,0,1,.71-1.31,3.27,3.27,0,0,1,1.79-.44,3.66,3.66,0,0,1,1.67.34A2,2,0,0,1,221,136h2.2a3.5,3.5,0,0,0-1.43-2.74,5.58,5.58,0,0,0-3.38-1,5.23,5.23,0,0,0-3.58,1.08,3.45,3.45,0,0,0-1.2,2.69,2.86,2.86,0,0,0,1.21,2.58,8.57,8.57,0,0,0,2.73.95l1.38.3a5.84,5.84,0,0,1,1.83.61,1.25,1.25,0,0,1,.65,1.13,1.64,1.64,0,0,1-1.27,1.64,5.18,5.18,0,0,1-1.62.21,3,3,0,0,1-2.41-.84,2.69,2.69,0,0,1-.51-1.23h-2.2a3.55,3.55,0,0,0,1.37,2.77,6.1,6.1,0,0,0,3.85,1.09,5.58,5.58,0,0,0,3.7-1.1,3.44,3.44,0,0,0,1.3-2.74A2.89,2.89,0,0,0,222.55,138.94Z"/><path class="cls-1" d="M209.19,132.21a2,2,0,0,1,2.06,2.15v10.86h-2.06Z"/><path class="cls-1" d="M211.37,148.08a1.16,1.16,0,1,1-1.15-1.17A1.15,1.15,0,0,1,211.37,148.08Z"/><path class="cls-1" d="M144.71,156.79a2.89,2.89,0,0,0-.84-1.1,3.36,3.36,0,0,0-1.3-.63,6.57,6.57,0,0,0-1.66-.2,5,5,0,0,0-2.1.36,3.28,3.28,0,0,0-1.14.81,2.27,2.27,0,0,0-.47.91,4,4,0,0,0-.1.61,2.34,2.34,0,0,0,.39,1.45,2.37,2.37,0,0,0,1,.78,13,13,0,0,0,1.45.47c.51.13,1.12.28,1.81.47l1.47.4a5.21,5.21,0,0,1,1.31.58,3,3,0,0,1,.94.94,2.75,2.75,0,0,1,.36,1.48,3.12,3.12,0,0,1-.41,1.64,3.42,3.42,0,0,1-1.06,1.08,4.76,4.76,0,0,1-1.48.61,7.79,7.79,0,0,1-1.65.18,5.79,5.79,0,0,1-3.84-1.11,4.39,4.39,0,0,1-1.3-3.51h.5a3.85,3.85,0,0,0,1.2,3.15,5.21,5.21,0,0,0,3.44,1,6.38,6.38,0,0,0,1.42-.16,4.2,4.2,0,0,0,1.33-.52,2.94,2.94,0,0,0,1-.92,2.39,2.39,0,0,0,.38-1.39,2.16,2.16,0,0,0-.38-1.35,3,3,0,0,0-1-.86,5.83,5.83,0,0,0-1.39-.53L141,161c-.61-.15-1.14-.29-1.6-.42a8.81,8.81,0,0,1-1.24-.45,2.44,2.44,0,0,1-1.16-1,3.19,3.19,0,0,1-.37-1.66,2.89,2.89,0,0,1,.22-1.08,2.81,2.81,0,0,1,.74-1,4.11,4.11,0,0,1,1.34-.77,5.83,5.83,0,0,1,2-.29,5.37,5.37,0,0,1,3.36,1,3.68,3.68,0,0,1,1.23,3.09H145A4,4,0,0,0,144.71,156.79Z"/><path class="cls-1" d="M157.31,167.36v-3.14h-.05a4.32,4.32,0,0,1-1.52,2.45,4.66,4.66,0,0,1-3.05,1,5.5,5.5,0,0,1-1.81-.28,3.84,3.84,0,0,1-1.44-.87,4,4,0,0,1-.94-1.43,5.4,5.4,0,0,1-.33-2v-8.43h.5V163a4.85,4.85,0,0,0,.32,1.89,3.5,3.5,0,0,0,.87,1.29,3.46,3.46,0,0,0,1.29.74,4.87,4.87,0,0,0,1.54.23,4.36,4.36,0,0,0,2-.43,4.23,4.23,0,0,0,1.45-1.16,5.13,5.13,0,0,0,.88-1.69,7.11,7.11,0,0,0,.29-2v-7.19h.5v12.7Z"/><path class="cls-1" d="M160.52,171.71V154.66h.5v3.56h0a5.3,5.3,0,0,1,.72-1.54,5.43,5.43,0,0,1,1.11-1.23,4.73,4.73,0,0,1,1.47-.8,5.46,5.46,0,0,1,1.79-.28,5,5,0,0,1,2.26.49,4.94,4.94,0,0,1,1.7,1.38,6.52,6.52,0,0,1,1.08,2.1,8.93,8.93,0,0,1,.37,2.65,8.81,8.81,0,0,1-.36,2.54,6.61,6.61,0,0,1-1,2.13,4.83,4.83,0,0,1-4,2,5.19,5.19,0,0,1-3.34-1,5,5,0,0,1-1.75-2.78h0v7.91Zm7.87-5.1a4.73,4.73,0,0,0,1.52-1.43,6.34,6.34,0,0,0,.88-2,8.77,8.77,0,0,0,.29-2.21,8.88,8.88,0,0,0-.31-2.34,6.26,6.26,0,0,0-.92-2,4.32,4.32,0,0,0-1.53-1.35,4.53,4.53,0,0,0-2.16-.49,4.62,4.62,0,0,0-3.79,1.83,6.22,6.22,0,0,0-1,1.95A7.86,7.86,0,0,0,161,161a6.7,6.7,0,0,0,1.41,4.58,4.74,4.74,0,0,0,3.73,1.59A4.24,4.24,0,0,0,168.39,166.61Z"/><path class="cls-1" d="M173.79,171.71V154.66h.5v3.56h.05a5.54,5.54,0,0,1,.71-1.54,6,6,0,0,1,1.11-1.23,5,5,0,0,1,1.47-.8,5.52,5.52,0,0,1,1.8-.28,4.85,4.85,0,0,1,4,1.87,6.52,6.52,0,0,1,1.08,2.1,9.27,9.27,0,0,1,.37,2.65,8.81,8.81,0,0,1-.36,2.54,6.82,6.82,0,0,1-1,2.13,4.83,4.83,0,0,1-4,2,5.17,5.17,0,0,1-3.34-1,5,5,0,0,1-1.75-2.78h-.05v7.91Zm7.87-5.1a4.73,4.73,0,0,0,1.52-1.43,6.34,6.34,0,0,0,.88-2,8.75,8.75,0,0,0,.28-2.21,8.48,8.48,0,0,0-.31-2.34,6.25,6.25,0,0,0-.91-2,4.32,4.32,0,0,0-1.53-1.35,4.53,4.53,0,0,0-2.16-.49,4.7,4.7,0,0,0-2.18.49,4.89,4.89,0,0,0-1.62,1.34,6.2,6.2,0,0,0-1,1.95,7.86,7.86,0,0,0-.34,2.35,6.7,6.7,0,0,0,1.41,4.58,4.72,4.72,0,0,0,3.73,1.59A4.26,4.26,0,0,0,181.66,166.61Z"/><path class="cls-1" d="M186.76,158.5a6.62,6.62,0,0,1,1.1-2.11,5.67,5.67,0,0,1,1.79-1.47,5.3,5.3,0,0,1,2.48-.55,5.19,5.19,0,0,1,2.44.55,5.46,5.46,0,0,1,1.79,1.47,6.25,6.25,0,0,1,1.1,2.11,8.7,8.7,0,0,1,0,5,6.15,6.15,0,0,1-1.1,2.11,5.31,5.31,0,0,1-1.79,1.46,5.87,5.87,0,0,1-4.92,0,5.51,5.51,0,0,1-1.79-1.46,6.52,6.52,0,0,1-1.1-2.11,8.7,8.7,0,0,1,0-5Zm.46,4.83a5.91,5.91,0,0,0,1,2,5,5,0,0,0,1.64,1.36,4.86,4.86,0,0,0,2.27.5,4.73,4.73,0,0,0,2.23-.5A4.92,4.92,0,0,0,196,165.3a5.93,5.93,0,0,0,1-2,8.25,8.25,0,0,0,0-4.62,6,6,0,0,0-1-2,5,5,0,0,0-1.64-1.37,4.62,4.62,0,0,0-2.23-.52,4.75,4.75,0,0,0-2.27.52,5.05,5.05,0,0,0-1.64,1.37,6,6,0,0,0-1,2,8.25,8.25,0,0,0,0,4.62Z"/><path class="cls-1" d="M199.88,167.36v-12.7h.5v3.14h.05a4.66,4.66,0,0,1,.54-1.35,4,4,0,0,1,1-1.1,4.83,4.83,0,0,1,1.47-.74,6.07,6.07,0,0,1,2-.24v.49a4.71,4.71,0,0,0-2.26.36,4.26,4.26,0,0,0-1.57,1.18,5.14,5.14,0,0,0-.92,1.75,7.2,7.2,0,0,0-.29,2v7.19Z"/><path class="cls-1" d="M208.88,164.89A3,3,0,0,0,209,166a1.43,1.43,0,0,0,.4.6,1.07,1.07,0,0,0,.55.23,3.9,3.9,0,0,0,.59,0h.67a1.19,1.19,0,0,0,.42-.07v.5l-.43.05-.78,0a2.24,2.24,0,0,1-1.47-.5,2.33,2.33,0,0,1-.61-1.87v-9.83h-2.32v-.5h2.32v-4h.5v4h2.86v.5h-2.86Z"/><path class="cls-1" d="M121.51,148.14h-.38a21.87,21.87,0,0,0-43.23.24h-.12a1.41,1.41,0,0,0-1.41,1.41v7.05a1.41,1.41,0,0,0,1.41,1.41h1.53a1.41,1.41,0,0,0,1.41-1.41v-.25l.79.33a18.51,18.51,0,1,0-.38-3.72,20.75,20.75,0,0,0,.12,2.09l-.53-.22v-5.28a1.41,1.41,0,0,0-1.4-1.41,20.45,20.45,0,0,1,40.38-.21,1.42,1.42,0,0,0-1.13,1.38v7.06A1.42,1.42,0,0,0,120,158h1.53a1.41,1.41,0,0,0,1.41-1.41v-7.06A1.41,1.41,0,0,0,121.51,148.14Zm-5.82,5.06a16,16,0,0,1-31.32,4.91l9.88,4.1s0,.1,0,.16a2.24,2.24,0,1,0,.55-1.47l-10.87-4.51a16,16,0,0,1,.72-8.86c10.6-.41,18.06-6.75,20.67-9.34A16.06,16.06,0,0,1,115.69,153.2Z"/><path class="cls-1" d="M94.7,149.73l1.61-1.61a2.71,2.71,0,1,0,0,3.21Z"/><path class="cls-1" d="M105.16,149.73l1.61-1.61a2.71,2.71,0,1,0,0,3.21Z"/></svg>