<svg id="Livello_1" data-name="Livello 1" xmlns="http://www.w3.org/2000/svg" viewBox="0 0 300 300"><defs><style>.cls-1{fill:#008ece;}</style></defs><title>loghi_svg</title><path class="cls-1" d="M106.44,150.9a11.58,11.58,0,0,0-2.25-7.55,7.78,7.78,0,0,0-6.32-2.76,8.26,8.26,0,0,0-6.56,2.87A10.06,10.06,0,0,0,89,150.25,10.21,10.21,0,0,0,91.09,157a8.45,8.45,0,0,0,6.78,2.78,8.6,8.6,0,0,0,5.64-1.78,9,9,0,0,0,2.75-4.34l.17-.54h-3.31l-.09.32a4.41,4.41,0,0,1-1.82,2.7,5.67,5.67,0,0,1-3.34,1,5.34,5.34,0,0,1-4.3-1.76,6.37,6.37,0,0,1-1.44-4.05h14.31Zm-8.57-7.65a4.92,4.92,0,0,1,4,1.75,6.28,6.28,0,0,1,1.34,3.81H92.18A7.73,7.73,0,0,1,93.86,145,5,5,0,0,1,97.87,143.25Z"/><path class="cls-1" d="M115.31,143.7h4.08v-3h-4.3v-2a3.06,3.06,0,0,0-3.11-3.17v5.17h-3v3h3v8.87a6.91,6.91,0,0,0,2.12,5.27,7.35,7.35,0,0,0,5.28,1.95v-2.95a4,4,0,0,1-3.37-1.49,4.52,4.52,0,0,1-.92-2.89V143.7Z"/><path class="cls-1" d="M78.32,143.53A4,4,0,0,1,81.71,145a4.52,4.52,0,0,1,.92,2.89v8.71a3.06,3.06,0,0,0,3.1,3.17v-12a7,7,0,0,0-2.07-5.24,7.39,7.39,0,0,0-5.34-2,7.28,7.28,0,0,0-5.27,1.95,6.85,6.85,0,0,0-2.12,5.26v12H74V147.91A4.53,4.53,0,0,1,75,145,4,4,0,0,1,78.32,143.53Z"/><path class="cls-1" d="M136.19,142.56a7.4,7.4,0,0,0-5.33-2,7.59,7.59,0,0,0-4.3,1.18v-7h-3.1v18.38h3.1v-5.22a4.47,4.47,0,0,1,.92-2.89,4.58,4.58,0,0,1,6.76,0,4.52,4.52,0,0,1,.91,2.89v8.71a3.06,3.06,0,0,0,3.11,3.17v-12A7,7,0,0,0,136.19,142.56Z"/><path class="cls-1" d="M158.68,144.21a4.31,4.31,0,0,0-1.23-1.62,5.15,5.15,0,0,0-1.91-.92,9.43,9.43,0,0,0-2.46-.29,7.45,7.45,0,0,0-3.09.52,4.88,4.88,0,0,0-1.68,1.2,3.4,3.4,0,0,0-.69,1.33,4.64,4.64,0,0,0-.14.91,3.46,3.46,0,0,0,.56,2.13,3.65,3.65,0,0,0,1.51,1.15,17.76,17.76,0,0,0,2.13.69l2.67.69c.73.19,1.45.39,2.17.6a7.36,7.36,0,0,1,1.93.86,4.33,4.33,0,0,1,1.38,1.38,4,4,0,0,1,.53,2.18,4.5,4.5,0,0,1-.6,2.4,4.9,4.9,0,0,1-1.57,1.6,6.73,6.73,0,0,1-2.18.9,11.15,11.15,0,0,1-2.42.27,8.49,8.49,0,0,1-5.66-1.64q-1.91-1.63-1.91-5.17h.73a5.73,5.73,0,0,0,1.76,4.64,7.69,7.69,0,0,0,5.08,1.48,9.51,9.51,0,0,0,2.09-.24,6.45,6.45,0,0,0,1.95-.76,4.6,4.6,0,0,0,1.44-1.37,3.6,3.6,0,0,0,.56-2,3.34,3.34,0,0,0-.56-2,4.56,4.56,0,0,0-1.46-1.25,8.33,8.33,0,0,0-2.06-.78l-2.36-.59c-.9-.22-1.69-.42-2.37-.62a13.21,13.21,0,0,1-1.82-.65,3.63,3.63,0,0,1-1.71-1.42,4.77,4.77,0,0,1-.54-2.44,4.36,4.36,0,0,1,.33-1.6,3.94,3.94,0,0,1,1.09-1.53,6.05,6.05,0,0,1,2-1.13,8.75,8.75,0,0,1,3-.43,7.83,7.83,0,0,1,4.95,1.42,5.41,5.41,0,0,1,1.82,4.55h-.73A6,6,0,0,0,158.68,144.21Z"/><path class="cls-1" d="M167.51,154.09a8.3,8.3,0,0,0,1.29,2.82,6.12,6.12,0,0,0,2.25,1.9,8.56,8.56,0,0,0,8.28-.86,7,7,0,0,0,2.42-4.64h.73a7.5,7.5,0,0,1-2.58,5.08,8.2,8.2,0,0,1-5.39,1.8,8.52,8.52,0,0,1-3.73-.69,6.63,6.63,0,0,1-2.53-2.06,9,9,0,0,1-1.45-3.13,15,15,0,0,1-.48-3.87,11.39,11.39,0,0,1,.7-4.15,9.63,9.63,0,0,1,1.82-3.08,7.63,7.63,0,0,1,5.67-2.56,8,8,0,0,1,3.77.84,7.38,7.38,0,0,1,2.58,2.21,9.4,9.4,0,0,1,1.46,3.17,13,13,0,0,1,.38,3.71H167.05A15.44,15.44,0,0,0,167.51,154.09Zm14-7.49a8.11,8.11,0,0,0-1.4-2.71,6.62,6.62,0,0,0-2.31-1.84,7.25,7.25,0,0,0-3.21-.67,7,7,0,0,0-2.85.58,6.77,6.77,0,0,0-2.33,1.69,8.67,8.67,0,0,0-1.62,2.67,11.29,11.29,0,0,0-.73,3.53H182A11.2,11.2,0,0,0,181.5,146.6Z"/><path class="cls-1" d="M203.55,156.24a6.62,6.62,0,0,1-1.62,2.13,7.27,7.27,0,0,1-2.33,1.35,8.78,8.78,0,0,1-2.93.47,8.05,8.05,0,0,1-3.55-.75,7.61,7.61,0,0,1-2.6-2,9,9,0,0,1-1.6-3,11.87,11.87,0,0,1-.54-3.62,14.09,14.09,0,0,1,.52-3.88,9.82,9.82,0,0,1,1.6-3.24,7.85,7.85,0,0,1,2.73-2.23,8.5,8.5,0,0,1,3.88-.84,7.81,7.81,0,0,1,2.51.4,6.87,6.87,0,0,1,2.15,1.16,6.59,6.59,0,0,1,1.58,1.91,7.3,7.3,0,0,1,.82,2.64h-.73a6.88,6.88,0,0,0-.8-2.38,6,6,0,0,0-1.42-1.68,5.91,5.91,0,0,0-1.89-1,7.79,7.79,0,0,0-2.22-.32,7.7,7.7,0,0,0-3.77.85,7.07,7.07,0,0,0-2.47,2.22,9.4,9.4,0,0,0-1.35,3.06,13.81,13.81,0,0,0-.42,3.33,11.06,11.06,0,0,0,.49,3.27,8.69,8.69,0,0,0,1.44,2.77,7,7,0,0,0,2.37,1.91,7.22,7.22,0,0,0,3.27.71,7.86,7.86,0,0,0,2.59-.42,6.46,6.46,0,0,0,2.12-1.22,6.26,6.26,0,0,0,1.51-1.91,6.53,6.53,0,0,0,.7-2.53h.72A7.94,7.94,0,0,1,203.55,156.24Z"/><path class="cls-1" d="M224.55,159.79v-4.62h-.08a6.42,6.42,0,0,1-2.24,3.6,6.82,6.82,0,0,1-4.49,1.42,8.13,8.13,0,0,1-2.67-.42A5.58,5.58,0,0,1,213,158.5a5.84,5.84,0,0,1-1.39-2.11,8.12,8.12,0,0,1-.49-2.9V141.08h.73v12.3a7.43,7.43,0,0,0,.47,2.79,5.37,5.37,0,0,0,1.29,1.89,5.08,5.08,0,0,0,1.9,1.09,7.34,7.34,0,0,0,2.27.35,6.44,6.44,0,0,0,2.95-.64,6.15,6.15,0,0,0,2.13-1.71,7.56,7.56,0,0,0,1.29-2.49,10.15,10.15,0,0,0,.44-3V141.08h.72v18.71Z"/><path class="cls-1" d="M232.92,159.79V141.08h.72v4.63h.08a7,7,0,0,1,.8-2A5.43,5.43,0,0,1,236,142.1a7.24,7.24,0,0,1,2.17-1.09,9,9,0,0,1,2.93-.36v.73a7,7,0,0,0-3.33.52,6.27,6.27,0,0,0-2.31,1.75,7.27,7.27,0,0,0-1.35,2.57,10.34,10.34,0,0,0-.44,3v10.59Z"/><path class="cls-1" d="M246,137.48v-3.67h.73v3.67Zm0,22.31V141.08h.73v18.71Z"/><path class="cls-1" d="M256.35,156.15a4.73,4.73,0,0,0,.23,1.64,2,2,0,0,0,.61.87,1.6,1.6,0,0,0,.8.35,8.46,8.46,0,0,0,.87.05c.36,0,.69,0,1,0a2,2,0,0,0,.62-.09v.73l-.64.07a9.73,9.73,0,0,1-1.14,0,3.27,3.27,0,0,1-2.17-.75,3.45,3.45,0,0,1-.89-2.74V141.81H252.2v-.73h3.42v-5.89h.73v5.89h4.22v.73h-4.22Z"/><path class="cls-1" d="M280,141.08l-8.62,22.49a4.6,4.6,0,0,1-.88,1.48,3.28,3.28,0,0,1-1.13.78,4.44,4.44,0,0,1-1.36.31c-.5,0-1,.05-1.58.05v-.72q.94,0,1.62-.06a3.29,3.29,0,0,0,1.16-.29,2.4,2.4,0,0,0,.87-.73,5,5,0,0,0,.71-1.33l1.35-3.45-7.79-18.53h.77l7.42,17.73,6.7-17.73Z"/><path class="cls-1" d="M34.68,165.92,20,151.23l14.68-14.68,14.69,14.68ZM21.94,151.23,34.68,164l12.75-12.75L34.68,138.49Z"/></svg>