<svg width="432" height="60" viewBox="0 0 432 60" fill="none" xmlns="http://www.w3.org/2000/svg">
<g clip-path="url(#clip0_1014_594)">
<path d="M411.466 49.5108L413.041 45.2878L399.109 10.3568H405.641L415.901 39.1012H416.038L425.892 10.3568H432.009L416.563 50.6713C415.402 53.2351 414.308 54.8281 413.103 56.0372C410.539 58.6142 407.415 60.0087 403.297 60.0087V55.3312C406.135 55.3312 408.275 54.4486 409.732 52.4938C410.418 51.5663 410.999 50.5659 411.466 49.5108Z" fill="#0891B2"/>
<path d="M125.98 29.2696C125.98 23.1624 124.541 18.3305 121.708 14.8974C118.875 11.4643 114.771 9.60217 109.665 9.60217C104.559 9.60217 100.3 11.4864 97.1672 15.0916C94.206 18.5159 92.7056 22.8712 92.7056 28.0341C92.7056 33.3823 94.0648 37.7112 96.7568 40.9192C99.7223 44.4273 104.074 46.2145 109.669 46.2145C114.082 46.2145 117.692 45.0804 120.42 42.8344C122.737 40.9148 124.497 38.1304 125.649 34.5517L125.976 33.5279H119.674L119.519 34.1413C119.046 36.2351 117.799 38.0729 116.029 39.2865C114.15 40.5454 111.926 41.1899 109.665 41.131C106.135 41.131 103.434 40.0411 101.47 37.7774C99.7665 35.8181 98.8221 33.2235 98.7162 30.0639H125.98V29.2696ZM109.652 14.7077C112.962 14.7077 115.473 15.802 117.339 18.0569C118.91 19.9456 119.767 22.3858 119.899 25.3114H98.8044C99.1931 22.6592 100.306 20.1656 102.022 18.1055C102.953 16.9939 104.125 16.1087 105.45 15.517C106.774 14.9252 108.215 14.6425 109.665 14.69L109.652 14.7077Z" fill="#0891B2"/>
<path d="M142.895 15.5593H150.667V9.82277H142.463V6.019C142.463 -0.0131912 136.549 -0.0131836 136.549 -0.0131836V9.82277H130.874V15.5593H136.549V32.4512C136.549 36.6212 137.913 39.9969 140.596 42.4989C143.279 45.001 146.532 46.2056 150.649 46.2056V40.6103C147.811 40.6103 145.711 39.6836 144.215 37.7729C143.013 36.1935 142.39 34.2495 142.449 32.2659V15.5593H142.895Z" fill="#0891B2"/>
<path d="M72.4186 15.2374C75.2606 15.2374 77.37 16.1641 78.8705 18.0748C80.0633 19.656 80.6785 21.5979 80.6136 23.5774V40.1693C80.6136 46.2059 86.5272 46.2059 86.5272 46.2059V23.4009C86.5272 19.2883 85.2032 15.9346 82.5819 13.4105C79.8943 10.8776 76.5757 9.64648 72.4318 9.64648C68.2879 9.64648 65.0355 10.86 62.3832 13.362C59.731 15.864 58.332 19.2089 58.332 23.4009V46.2279H64.2367V23.5774C64.1739 21.5947 64.7974 19.651 66.002 18.0748C67.4803 16.1641 69.581 15.2374 72.4186 15.2374Z" fill="#0891B2"/>
<path d="M182.661 13.3881C179.978 10.8552 176.664 9.62408 172.511 9.62408C169.303 9.62408 166.611 10.3743 164.321 11.879V0.0131836H158.412V46.2541H164.316V23.5771C164.253 21.5943 164.877 19.6507 166.082 18.0744C167.578 16.1637 169.678 15.2371 172.516 15.2371C175.353 15.2371 177.467 16.1637 178.963 18.0744C180.166 19.6519 180.789 21.5947 180.729 23.5771V40.2219C180.729 46.2541 186.642 46.2541 186.642 46.2541V23.4006C186.616 19.2659 185.283 15.899 182.661 13.3881Z" fill="#0891B2"/>
<path d="M200.945 37.6404C201.472 38.5104 202.208 39.2354 203.085 39.7497C204.013 40.2881 205.024 40.667 206.077 40.8705C207.206 41.0984 208.355 41.2122 209.506 41.2103C210.462 41.2055 211.415 41.1377 212.362 41.0073C213.31 40.8855 214.236 40.633 215.115 40.2572C215.933 39.9131 216.648 39.3627 217.189 38.6598C217.755 37.8827 218.041 36.9371 218.001 35.9768C218.037 35.3118 217.899 34.649 217.601 34.0534C217.303 33.4577 216.856 32.9497 216.302 32.579C214.998 31.7312 213.564 31.1008 212.057 30.7125C210.36 30.2359 208.513 29.8049 206.519 29.4195C204.622 29.0651 202.766 28.518 200.98 27.7868C199.357 27.1379 197.903 26.1267 196.73 24.8303C195.595 23.5624 195.029 21.7973 195.031 19.535C194.988 17.9347 195.401 16.3549 196.223 14.9811C196.994 13.7322 198.04 12.6758 199.281 11.8922C200.58 11.0777 202.004 10.4815 203.496 10.1271C205.017 9.74734 206.579 9.55323 208.147 9.54905C210.001 9.53181 211.852 9.70035 213.672 10.0521C215.254 10.3565 216.764 10.9553 218.125 11.8172C219.427 12.669 220.49 13.8384 221.214 15.215C222.046 16.8749 222.509 18.6946 222.573 20.55H216.761C216.73 19.6062 216.458 18.6861 215.971 17.8773C215.483 17.0685 214.797 16.3981 213.977 15.9299C213.184 15.4696 212.323 15.1375 211.426 14.9458C210.5 14.7414 209.554 14.6379 208.606 14.6369C207.73 14.639 206.855 14.7084 205.989 14.8443C205.156 14.9628 204.344 15.2021 203.58 15.5548C202.894 15.8648 202.289 16.3301 201.814 16.9139C201.34 17.5488 201.1 18.3284 201.135 19.1202C201.123 19.5849 201.212 20.0467 201.394 20.4744C201.575 20.9022 201.847 21.286 202.189 21.6002C202.974 22.3074 203.884 22.8612 204.873 23.2329C206.066 23.6918 207.293 24.0548 208.544 24.3184C209.904 24.6126 211.263 24.9186 212.622 25.2363C214.056 25.5494 215.473 25.9352 216.867 26.3924C218.175 26.8052 219.412 27.4121 220.539 28.1928C221.596 28.9316 222.478 29.8944 223.121 31.0125C223.816 32.3052 224.156 33.7596 224.105 35.2267C224.174 37.0815 223.715 38.918 222.781 40.5219C221.911 41.9125 220.724 43.077 219.317 43.9197C217.828 44.803 216.192 45.4127 214.489 45.7201C212.73 46.0564 210.944 46.2263 209.153 46.2276C207.28 46.2357 205.411 46.0314 203.584 45.6186C201.909 45.2493 200.318 44.5698 198.893 43.6152C197.524 42.6737 196.405 41.4138 195.632 39.9439C194.772 38.2321 194.312 36.3477 194.286 34.4324H200.062C200.073 35.5602 200.377 36.6658 200.945 37.6404Z" fill="#0891B2"/>
<path d="M255.38 43.2577C252.753 45.2522 249.446 46.248 245.46 46.2451C242.957 46.3054 240.469 45.8425 238.156 44.886C236.156 44.0284 234.377 42.7277 232.953 41.0822C231.507 39.3739 230.431 37.3846 229.793 35.2398C229.067 32.8285 228.667 30.3307 228.606 27.8132C228.576 25.314 228.99 22.8293 229.828 20.4748C230.589 18.3458 231.755 16.3843 233.262 14.6986C234.72 13.0775 236.501 11.7802 238.491 10.8904C240.576 9.9717 242.833 9.50835 245.111 9.53127C248.235 9.53127 250.829 10.177 252.891 11.4684C254.901 12.7101 256.6 14.3964 257.856 16.3975C259.108 18.3999 259.987 20.6125 260.451 22.9283C260.914 25.1399 261.108 27.3994 261.029 29.6577H234.723C234.669 31.1379 234.852 32.6172 235.265 34.0395C235.654 35.3898 236.327 36.6415 237.238 37.7109C238.188 38.8078 239.372 39.6779 240.702 40.257C242.269 40.9248 243.96 41.2497 245.663 41.2102C248.11 41.2102 250.115 40.6439 251.678 39.5113C253.24 38.3787 254.269 36.6562 254.767 34.344H260.473C259.708 38.2889 258.01 41.2602 255.38 43.2577ZM253.99 20.6954C253.232 18.8843 251.951 17.3409 250.31 16.263C248.669 15.185 246.743 14.6219 244.78 14.6456C243.393 14.6257 242.016 14.8931 240.738 15.4311C239.573 15.9267 238.522 16.6549 237.648 17.5712C236.78 18.4895 236.088 19.5607 235.61 20.7307C235.105 21.9528 234.807 23.2501 234.727 24.5698H254.912C254.826 23.2327 254.514 21.9197 253.99 20.6866V20.6954Z" fill="#0891B2"/>
<path d="M288.001 16.4725C286.554 15.2487 284.606 14.6368 282.158 14.6368C280.344 14.5764 278.544 14.974 276.924 15.7929C275.57 16.5209 274.415 17.5712 273.562 18.8509C272.695 20.1889 272.085 21.6762 271.761 23.2372C271.394 24.9214 271.212 26.6409 271.218 28.3647C271.215 29.9635 271.408 31.5565 271.792 33.1084C272.145 34.5747 272.755 35.967 273.593 37.2211C274.412 38.4245 275.507 39.4142 276.788 40.107C278.232 40.8656 279.848 41.2409 281.479 41.1969C284.336 41.1969 286.567 40.4497 288.173 38.9553C289.78 37.4608 290.765 35.353 291.13 32.6319H297.039C296.41 36.9828 294.792 40.3365 292.185 42.6928C289.578 45.0492 286.033 46.226 281.549 46.223C279.12 46.2691 276.707 45.8311 274.449 44.9345C272.464 44.1331 270.693 42.8807 269.277 41.2764C267.856 39.62 266.792 37.688 266.152 35.6016C265.428 33.2585 265.072 30.8171 265.097 28.3647C265.081 25.8707 265.425 23.3873 266.117 20.9911C266.74 18.8129 267.79 16.7803 269.206 15.0119C270.609 13.2959 272.388 11.925 274.405 11.0051C276.691 9.98718 279.175 9.48692 281.677 9.54009C283.571 9.5272 285.457 9.76761 287.286 10.2549C288.952 10.6931 290.519 11.4416 291.907 12.4613C293.257 13.4737 294.38 14.7574 295.203 16.2298C296.112 17.9008 296.668 19.7407 296.836 21.6354H290.857C290.403 19.4202 289.452 17.6992 288.001 16.4725Z" fill="#0891B2"/>
<path d="M372.318 10.3568V45.4908H366.541V10.3568H372.318Z" fill="#0891B2"/>
<path d="M369.432 6.54386C371.099 6.54386 372.45 5.19252 372.45 3.52556C372.45 1.8586 371.099 0.507263 369.432 0.507263C367.765 0.507263 366.413 1.8586 366.413 3.52556C366.413 5.19252 367.765 6.54386 369.432 6.54386Z" fill="#0891B2"/>
<path d="M388.615 16.0798H396.374V10.3432H388.165V6.53946C388.165 0.507269 382.256 0.507263 382.256 0.507263V10.3432H376.594V16.0798H382.252V32.9761C382.252 37.1417 383.615 40.5218 386.299 43.0194C388.982 45.517 392.234 46.7261 396.352 46.7261V41.1175C393.514 41.1175 391.413 40.1908 389.917 38.2801C388.716 36.7005 388.093 34.7566 388.152 32.7731V16.0798H388.615Z" fill="#0891B2"/>
<path d="M310.318 10.3568V32.9852C310.255 34.9679 310.879 36.9116 312.083 38.4878C313.579 40.3985 315.68 41.3252 318.518 41.3252C321.355 41.3252 323.469 40.3985 324.969 38.4878C326.17 36.9096 326.793 34.9673 326.735 32.9852V16.3933C326.735 10.3567 332.648 10.3568 332.648 10.3568V33.1837C332.648 37.2964 331.324 40.6501 328.703 43.1741C326.015 45.707 322.697 46.9382 318.553 46.9382C314.409 46.9382 311.157 45.7247 308.504 43.2227C305.852 40.7207 304.458 37.3538 304.458 33.1837V10.3568H310.318Z" fill="#0891B2"/>
<path d="M364.431 14.0547C361.863 11.6321 358.694 10.4495 354.723 10.4495C350.751 10.4495 347.635 11.6145 345.102 14.0018C342.569 16.3891 341.219 19.6324 341.219 23.6259V45.4909H346.876V23.8157C346.81 21.9205 347.397 20.0601 348.54 18.5469C349.974 16.7156 351.987 15.8286 354.718 15.8286C357.45 15.8286 359.462 16.7112 360.897 18.5469L364.431 14.0547Z" fill="#0891B2"/>
<path d="M19.8147 47.7016L0 27.8885L19.8147 8.07983L39.6294 27.8885L19.8147 47.7016ZM8.34071 27.8444L19.8147 39.291L31.2887 27.8444L19.8147 16.3713L8.34071 27.8444Z" fill="#0891B2"/>
</g>
<defs>
<clipPath id="clip0_1014_594">
<rect width="432" height="60" fill="white"/>
</clipPath>
</defs>
</svg>
