<svg id="Livello_1" data-name="Livello 1" xmlns="http://www.w3.org/2000/svg" viewBox="0 0 300 300"><defs><style>.cls-1{fill:#60b464;}</style></defs><title>loghi_svg</title><path class="cls-1" d="M134.26,150.9c0-3.24-.76-5.8-2.25-7.62a7.79,7.79,0,0,0-6.34-2.79,8.29,8.29,0,0,0-6.58,2.89,10.22,10.22,0,0,0-2.35,6.86,10.36,10.36,0,0,0,2.14,6.83,8.4,8.4,0,0,0,6.79,2.8,8.62,8.62,0,0,0,5.66-1.79,9.17,9.17,0,0,0,2.75-4.39l.17-.54h-3.32l-.08.32A4.47,4.47,0,0,1,129,156.2a5.73,5.73,0,0,1-3.35,1,5.36,5.36,0,0,1-4.31-1.77,6.43,6.43,0,0,1-1.45-4.09h14.35Zm-8.59-7.73a4.92,4.92,0,0,1,4,1.78,6.3,6.3,0,0,1,1.35,3.84H120a7.8,7.8,0,0,1,1.69-3.81A5,5,0,0,1,125.67,143.17Z"/><path class="cls-1" d="M143.16,143.63h4.09v-3h-4.32v-2a3.07,3.07,0,0,0-3.11-3.19v5.21h-3v3h3v9a7,7,0,0,0,2.13,5.33,7.35,7.35,0,0,0,5.29,2v-3a4,4,0,0,1-3.38-1.51,4.55,4.55,0,0,1-.93-2.91v-8.85Z"/><path class="cls-1" d="M106.07,143.46a4,4,0,0,1,3.4,1.51,4.62,4.62,0,0,1,.91,2.91v8.79a3.07,3.07,0,0,0,3.11,3.2v-12.1a7.1,7.1,0,0,0-2.07-5.29,7.4,7.4,0,0,0-5.35-2,7.3,7.3,0,0,0-5.29,2,7,7,0,0,0-2.13,5.31v12.1h3.11v-12a4.61,4.61,0,0,1,.92-2.92A4,4,0,0,1,106.07,143.46Z"/><path class="cls-1" d="M164.09,142.48a7.39,7.39,0,0,0-5.35-2,7.59,7.59,0,0,0-4.31,1.19V134.6h-3.1v18.55h3.1v-5.27a4.56,4.56,0,0,1,.93-2.92,4.57,4.57,0,0,1,6.78,0,4.56,4.56,0,0,1,.92,2.91v8.8a3.07,3.07,0,0,0,3.11,3.19v-12.1A7.07,7.07,0,0,0,164.09,142.48Z"/><path class="cls-1" d="M188.15,141l-7.08,18.88h-.92L172.46,141h.83l7.27,18.15h.07L187.34,141Z"/><path class="cls-1" d="M192.92,146.7a9.67,9.67,0,0,1,1.63-3.14,8.34,8.34,0,0,1,2.64-2.18,8.37,8.37,0,0,1,7.27,0,8.34,8.34,0,0,1,2.64,2.18,9.46,9.46,0,0,1,1.62,3.14,12.92,12.92,0,0,1,0,7.46,9.36,9.36,0,0,1-1.62,3.14,8.05,8.05,0,0,1-2.64,2.17,7.88,7.88,0,0,1-3.65.81,7.79,7.79,0,0,1-3.62-.81,8.05,8.05,0,0,1-2.64-2.17,9.57,9.57,0,0,1-1.63-3.14,13.15,13.15,0,0,1,0-7.46Zm.68,7.18a8.65,8.65,0,0,0,1.48,2.92,7.17,7.17,0,0,0,2.42,2,7,7,0,0,0,3.34.76,6.92,6.92,0,0,0,3.3-.76,7.21,7.21,0,0,0,2.43-2,8.65,8.65,0,0,0,1.48-2.92,11.94,11.94,0,0,0,.49-3.45,11.82,11.82,0,0,0-.49-3.41,8.65,8.65,0,0,0-1.48-2.92,7.39,7.39,0,0,0-2.43-2,6.81,6.81,0,0,0-3.3-.77,6.92,6.92,0,0,0-3.34.77,7.35,7.35,0,0,0-2.42,2A8.65,8.65,0,0,0,193.6,147a11.82,11.82,0,0,0-.49,3.41A11.94,11.94,0,0,0,193.6,153.88Z"/><path class="cls-1" d="M216,137.36v-3.71h.73v3.71Zm0,22.51V141h.73v18.88Z"/><path class="cls-1" d="M238.68,156.29a6.7,6.7,0,0,1-1.62,2.15,7.16,7.16,0,0,1-2.34,1.36,8.63,8.63,0,0,1-2.94.48,8.05,8.05,0,0,1-3.55-.76,7.51,7.51,0,0,1-2.61-2,8.88,8.88,0,0,1-1.61-3,12.07,12.07,0,0,1-.55-3.65,14.33,14.33,0,0,1,.53-3.92,9.85,9.85,0,0,1,1.61-3.26,7.76,7.76,0,0,1,2.74-2.26,8.34,8.34,0,0,1,3.88-.85,8.11,8.11,0,0,1,2.52.4,7.13,7.13,0,0,1,2.15,1.18,6.58,6.58,0,0,1,1.59,1.93,7.34,7.34,0,0,1,.82,2.66h-.73a6.92,6.92,0,0,0-.8-2.4,6.05,6.05,0,0,0-1.42-1.69,5.61,5.61,0,0,0-1.9-1,7.48,7.48,0,0,0-2.23-.33,7.59,7.59,0,0,0-3.77.86,7,7,0,0,0-2.49,2.24,9.56,9.56,0,0,0-1.35,3.09,13.93,13.93,0,0,0-.42,3.36,10.94,10.94,0,0,0,.5,3.3,8.69,8.69,0,0,0,1.44,2.79,6.88,6.88,0,0,0,2.37,1.93,7.17,7.17,0,0,0,3.28.72,7.77,7.77,0,0,0,2.59-.42,6.76,6.76,0,0,0,2.14-1.23,6.47,6.47,0,0,0,2.21-4.49h.73A8.2,8.2,0,0,1,238.68,156.29Z"/><path class="cls-1" d="M246.32,154.12a8.47,8.47,0,0,0,1.3,2.85,6.09,6.09,0,0,0,2.26,1.91,7.47,7.47,0,0,0,3.4.7,7.59,7.59,0,0,0,4.9-1.56,7.1,7.1,0,0,0,2.43-4.69h.73a7.55,7.55,0,0,1-2.59,5.13,8.18,8.18,0,0,1-5.4,1.82,8.39,8.39,0,0,1-3.74-.7,6.54,6.54,0,0,1-2.54-2.08,9.29,9.29,0,0,1-1.46-3.16,15.69,15.69,0,0,1-.47-3.91,11.88,11.88,0,0,1,.69-4.19,9.75,9.75,0,0,1,1.83-3.1,7.69,7.69,0,0,1,2.62-1.93,7.54,7.54,0,0,1,3.07-.66,7.87,7.87,0,0,1,3.78.85,7.49,7.49,0,0,1,2.59,2.24,9.6,9.6,0,0,1,1.46,3.19,13.28,13.28,0,0,1,.38,3.75H245.87A15.16,15.16,0,0,0,246.32,154.12Zm14-7.56a8.07,8.07,0,0,0-1.4-2.74,6.59,6.59,0,0,0-2.32-1.85,7.64,7.64,0,0,0-6.07-.1,6.87,6.87,0,0,0-2.34,1.71,8.82,8.82,0,0,0-1.62,2.7,11.14,11.14,0,0,0-.73,3.56h15A11.07,11.07,0,0,0,260.35,146.56Z"/><path class="cls-1" d="M74,156.4a17,17,0,0,1-12.18-5.09,15.81,15.81,0,0,0-22.43,0l-1-1a17.2,17.2,0,0,1,24.37,0,15.74,15.74,0,0,0,22.42,0l1,1A17.06,17.06,0,0,1,74,156.4Z"/></svg>