<svg width="216" height="30" viewBox="0 0 216 30" fill="none" xmlns="http://www.w3.org/2000/svg">
<g clip-path="url(#clip0_1020_1143)">
<path d="M69.7212 14.5566C69.7212 11.5198 69.006 9.11707 67.5975 7.40995C66.1605 5.66992 64.1488 4.78784 61.6105 4.78784C59.0722 4.78784 56.9551 5.70284 55.3952 7.5065C53.9232 9.20923 53.1772 11.3749 53.1772 13.9422C53.1772 16.5994 53.853 18.752 55.1912 20.3472C56.6655 22.0916 58.8286 22.9803 61.6105 22.9803C63.8043 22.9803 65.5989 22.4163 66.9547 21.3017C68.1065 20.3472 68.9819 18.9604 69.5523 17.1831L69.7168 16.674H66.5774L66.5006 16.9768C66.2698 18.0159 65.6556 18.9295 64.7806 19.5353C63.847 20.1626 62.7414 20.4839 61.617 20.4547C59.862 20.4547 58.5171 19.9105 57.543 18.7871C56.6962 17.8128 56.2267 16.5226 56.1741 14.9494H69.7278L69.7212 14.5566ZM61.6039 7.30463C63.2493 7.30463 64.4976 7.851 65.4256 8.97225C66.2066 9.91139 66.6322 11.1248 66.698 12.5774H56.2245C56.4176 11.2613 56.9695 10.0238 57.8195 9.00077C58.282 8.44973 58.8635 8.0108 59.5201 7.717C60.1767 7.42321 60.8915 7.28222 61.6105 7.30463H61.6039Z" fill="#EA580C"/>
<path d="M78.1304 7.73906H81.9938V4.88656H77.9154V2.99512C77.9154 -0.00659347 74.9756 -0.0065918 74.9756 -0.0065918V4.88656H72.1543V7.73906H74.9756V16.1386C74.9756 18.2122 75.6535 19.8908 76.9874 21.1327C78.3213 22.3746 79.9381 22.9759 81.985 22.9759V20.1892C80.5744 20.1892 79.5301 19.7262 78.7864 18.7761C78.1887 17.9909 77.8789 17.0241 77.9088 16.0377V7.73906H78.1304Z" fill="#EA580C"/>
<path d="M43.0944 7.57891C44.5072 7.57891 45.5559 8.0397 46.3018 8.98981C46.899 9.77444 47.2088 10.7403 47.1794 11.726V19.9764C47.1794 22.9759 50.1191 22.9759 50.1191 22.9759V11.6273C50.1191 9.58225 49.461 7.91463 48.1578 6.65953C46.8218 5.40003 45.172 4.78784 43.1119 4.78784C41.0519 4.78784 39.435 5.39126 38.1165 6.6332C36.798 7.87513 36.1025 9.55372 36.1025 11.6273V22.9759H39.0401V11.7326C39.0093 10.7461 39.3192 9.779 39.9177 8.99419C40.6482 8.0397 41.6837 7.57891 43.0944 7.57891Z" fill="#EA580C"/>
<path d="M97.9081 6.65951C96.572 5.40002 94.9266 4.78783 92.8622 4.78783C91.2672 4.78783 89.929 5.16085 88.7904 5.90908V0H85.8418V23.0022H88.7794V11.7326C88.7475 10.7459 89.0575 9.77848 89.6569 8.99418C90.4007 8.04627 91.4449 7.58548 92.8556 7.58548C94.2662 7.58548 95.3149 8.04627 96.0608 8.99637C96.658 9.78101 96.9678 10.7469 96.9384 11.7326V20.0093C96.9384 23.0088 99.8803 23.0088 99.8803 23.0088V11.6273C99.865 9.58223 99.2024 7.91462 97.9081 6.65951Z" fill="#EA580C"/>
<path d="M107.085 18.719C107.348 19.1505 107.713 19.5101 108.149 19.7656C108.61 20.0341 109.113 20.2232 109.636 20.3252C110.198 20.4385 110.769 20.4951 111.341 20.4941C111.816 20.492 112.29 20.4575 112.76 20.391C113.232 20.3311 113.692 20.2063 114.129 20.0202C114.535 19.8483 114.889 19.5747 115.158 19.2259C115.441 18.8402 115.584 18.3697 115.564 17.8918C115.582 17.5611 115.514 17.2314 115.366 16.9352C115.217 16.6389 114.995 16.3863 114.72 16.2022C114.071 15.7803 113.358 15.4661 112.609 15.2718C111.764 15.0349 110.846 14.8213 109.856 14.6311C108.912 14.4535 107.989 14.1816 107.1 13.8193C106.294 13.4963 105.572 12.9935 104.99 12.3491C104.427 11.7186 104.145 10.8409 104.145 9.71603C104.123 8.92024 104.329 8.13472 104.738 7.45158C105.122 6.83124 105.642 6.30609 106.258 5.91561C106.903 5.51093 107.61 5.21445 108.351 5.03792C109.108 4.8491 109.885 4.75259 110.665 4.75047C111.584 4.74393 112.501 4.8292 113.403 5.005C114.189 5.15502 114.94 5.45286 115.615 5.8827C116.262 6.30643 116.79 6.88786 117.15 7.57226C117.564 8.39745 117.795 9.30243 117.826 10.2251H114.957C114.933 9.72788 114.782 9.24511 114.518 8.82298C114.275 8.45629 113.952 8.15006 113.572 7.92773C113.178 7.69852 112.75 7.53267 112.304 7.43622C111.844 7.33532 111.374 7.28456 110.902 7.28482C110.467 7.28613 110.032 7.31986 109.601 7.38575C109.186 7.44675 108.782 7.56644 108.401 7.74122C108.06 7.8954 107.76 8.12678 107.524 8.41705C107.288 8.73261 107.168 9.12037 107.186 9.51417C107.18 9.74527 107.224 9.97496 107.314 10.1877C107.405 10.4004 107.54 10.5913 107.71 10.7473C108.1 11.099 108.552 11.3738 109.044 11.557C109.637 11.7873 110.247 11.9685 110.869 12.099C111.545 12.2453 112.221 12.3974 112.897 12.5554C113.616 12.7134 114.32 12.9043 115.007 13.1281C115.656 13.3357 116.271 13.6373 116.832 14.0233C117.358 14.3919 117.796 14.8713 118.116 15.4276C118.462 16.0696 118.63 16.7921 118.605 17.5209C118.64 18.4433 118.412 19.3566 117.947 20.154C117.515 20.8467 116.925 21.4266 116.225 21.8458C115.484 22.285 114.672 22.5882 113.825 22.741C112.95 22.9082 112.062 22.9927 111.172 22.9934C110.24 22.9976 109.31 22.8953 108.401 22.6884C107.569 22.5062 106.778 22.1682 106.071 21.6922C105.39 21.2262 104.833 20.6001 104.45 19.8688C104.019 19.0141 103.788 18.0723 103.774 17.115H106.646C106.65 17.6788 106.801 18.2318 107.085 18.719Z" fill="#EA580C"/>
<path d="M134.146 21.5079C132.842 22.4968 131.198 22.992 129.214 22.9934C127.97 23.0221 126.733 22.7919 125.581 22.3176C124.588 21.8903 123.705 21.2437 122.997 20.4262C122.278 19.5762 121.743 18.5862 121.426 17.5188C121.066 16.3234 120.867 15.0851 120.836 13.8369C120.822 12.5971 121.028 11.3646 121.444 10.1966C121.822 9.13798 122.402 8.1626 123.151 7.32437C123.875 6.51782 124.761 5.87265 125.75 5.43074C126.787 4.97393 127.909 4.74353 129.041 4.75492C130.594 4.75492 131.884 5.07601 132.909 5.71819C133.908 6.33507 134.752 7.17372 135.375 8.16915C135.997 9.16313 136.432 10.2621 136.66 11.4122C136.89 12.5121 136.986 13.6356 136.946 14.7584H123.877C123.849 15.4945 123.94 16.2303 124.147 16.9373C124.34 17.6076 124.674 18.2291 125.125 18.7607C125.598 19.3072 126.187 19.7407 126.849 20.029C127.628 20.361 128.469 20.5226 129.315 20.503C130.531 20.503 131.528 20.2214 132.306 19.6582C133.084 19.095 133.596 18.2385 133.841 17.0887H136.678C136.298 19.0431 135.454 20.5161 134.146 21.5079ZM133.449 10.2888C132.908 9.08114 131.919 8.1318 130.69 7.64257C129.461 7.15334 128.089 7.16277 126.867 7.66887C126.288 7.91557 125.766 8.27767 125.331 8.73307C124.9 9.19039 124.557 9.72289 124.318 10.3041C124.067 10.9127 123.919 11.5584 123.879 12.2153H133.909C133.865 11.5518 133.71 10.9004 133.449 10.2888Z" fill="#EA580C"/>
<path d="M159.082 22.6226L152.595 5.1499H155.804L160.703 19.7131H160.771L165.534 5.1499H168.551L162.164 22.6204L159.082 22.6226Z" fill="#EA580C"/>
<path d="M189.116 8.1933C188.395 7.58622 187.427 7.28196 186.211 7.28049C185.309 7.25018 184.414 7.44791 183.609 7.85538C182.935 8.21673 182.36 8.73905 181.935 9.37599C181.504 10.0405 181.201 10.7794 181.04 11.5549C180.859 12.3933 180.768 13.2489 180.77 14.1068C180.768 14.9039 180.864 15.6983 181.056 16.4722C181.23 17.2015 181.533 17.894 181.951 18.5172C182.358 19.1156 182.902 19.6077 183.539 19.9522C184.261 20.3303 185.068 20.5169 185.882 20.4942C187.299 20.4942 188.408 20.1219 189.208 19.3773C190.008 18.6327 190.498 17.5854 190.678 16.2352H193.618C193.302 18.3987 192.497 20.0656 191.204 21.2358C189.911 22.4061 188.149 22.9912 185.917 22.9912C184.704 23.0163 183.499 22.7984 182.372 22.3505C181.385 21.9518 180.505 21.3273 179.803 20.5271C179.096 19.7034 178.568 18.7428 178.25 17.7053C177.89 16.5402 177.713 15.3262 177.725 14.1068C177.716 12.8665 177.887 11.6315 178.232 10.4402C178.542 9.35706 179.064 8.34637 179.768 7.467C180.466 6.61365 181.35 5.93138 182.352 5.47244C183.489 4.96785 184.724 4.71989 185.968 4.74615C186.908 4.73967 187.845 4.85922 188.754 5.10162C189.582 5.31982 190.361 5.69202 191.051 6.19874C191.722 6.70241 192.281 7.34157 192.69 8.07481C193.14 8.90535 193.417 9.81933 193.501 10.7606H190.535C190.31 9.6532 189.837 8.79744 189.116 8.1933Z" fill="#EA580C"/>
<path d="M209.183 21.508C207.877 22.4968 206.233 22.992 204.251 22.9935C203.006 23.0221 201.769 22.792 200.618 22.3176C199.625 21.8898 198.742 21.2432 198.034 20.4262C197.315 19.5763 196.78 18.5862 196.463 17.5188C196.102 16.3235 195.904 15.0851 195.873 13.8369C195.859 12.5971 196.065 11.3647 196.48 10.1967C196.859 9.13801 197.438 8.16264 198.187 7.32441C198.912 6.51781 199.799 5.87265 200.789 5.43078C201.825 4.97345 202.947 4.74302 204.08 4.75496C205.633 4.75496 206.922 5.07604 207.948 5.71822C208.947 6.33511 209.791 7.17375 210.414 8.16919C211.036 9.16317 211.471 10.2621 211.699 11.4123C211.929 12.512 212.026 13.6356 211.987 14.7585H198.911C198.884 15.4945 198.976 16.2301 199.181 16.9374C199.374 17.6081 199.709 18.2298 200.162 18.7608C200.634 19.307 201.222 19.7404 201.884 20.029C202.663 20.3611 203.503 20.5227 204.35 20.503C205.567 20.503 206.563 20.2214 207.34 19.6582C208.117 19.095 208.629 18.2385 208.876 17.0888H211.712C211.334 19.0431 210.49 20.5162 209.183 21.508ZM208.492 10.2888C208.116 9.38737 207.48 8.61903 206.664 8.08286C205.847 7.54668 204.89 7.26723 203.913 7.28052C203.224 7.26993 202.54 7.40217 201.904 7.66891C201.325 7.91615 200.803 8.27818 200.368 8.73311C199.937 9.19043 199.593 9.72293 199.354 10.3042C199.104 10.9127 198.956 11.5585 198.916 12.2154H208.95C208.907 11.552 208.752 10.9006 208.492 10.2888Z" fill="#EA580C"/>
<path d="M174.217 5.1499V22.6204H171.346V5.1499H174.217Z" fill="#EA580C"/>
<path d="M172.782 3.00172C173.611 3.00172 174.283 2.32976 174.283 1.50086C174.283 0.671957 173.611 0 172.782 0C171.954 0 171.282 0.671957 171.282 1.50086C171.282 2.32976 171.954 3.00172 172.782 3.00172Z" fill="#EA580C"/>
<path d="M151.372 6.99082C150.096 5.78618 148.52 5.19812 146.535 5.19812C144.55 5.19812 143.012 5.7752 141.752 6.95351C140.493 8.13182 139.822 9.75336 139.822 11.7369V22.6116H142.634V11.8445C142.603 10.9 142.899 9.97379 143.472 9.22235C144.185 8.31174 145.186 7.8707 146.544 7.8707C147.902 7.8707 148.902 8.30955 149.615 9.22235L151.372 6.99082Z" fill="#EA580C"/>
<path d="M21.25 19.4453L13.8786 11.9981L7.07759 18.8704L5 16.8144L13.8786 7.84436L21.182 15.2214L26.5525 9.43518L28.6937 11.4232L21.25 19.4453Z" fill="#EA580C"/>
</g>
<defs>
<clipPath id="clip0_1020_1143">
<rect width="207" height="23" fill="white" transform="translate(5)"/>
</clipPath>
</defs>
</svg>
