<svg width="216" height="30" viewBox="0 0 216 30" fill="none" xmlns="http://www.w3.org/2000/svg">
<g clip-path="url(#clip0_1020_1142)">
<g clip-path="url(#clip1_1020_1142)">
<path d="M205.733 24.7554L206.521 22.6439L199.555 5.17834H202.82L207.951 19.5506H208.019L212.946 5.17834H216.004L208.282 25.3356C207.701 26.6175 207.154 27.414 206.552 28.0186C205.27 29.3071 203.707 30.0043 201.649 30.0043V27.6656C203.067 27.6656 204.138 27.2243 204.866 26.2469C205.209 25.7831 205.5 25.2829 205.733 24.7554Z" fill="#0891B2"/>
<path d="M62.9898 14.6348C62.9898 11.5812 62.2705 9.1652 60.8539 7.44866C59.4373 5.73211 57.3852 4.80103 54.8323 4.80103C52.2793 4.80103 50.15 5.74314 48.5833 7.54574C47.1028 9.25787 46.3525 11.4355 46.3525 14.017C46.3525 16.6911 47.0322 18.8555 48.3781 20.4596C49.8609 22.2136 52.0366 23.1072 54.8345 23.1072C57.041 23.1072 58.8459 22.5402 60.2096 21.4171C61.368 20.4574 62.2484 19.0651 62.8243 17.2758L62.9876 16.7639H59.8367L59.7594 17.0706C59.5229 18.1175 58.8995 19.0364 58.0141 19.6432C57.0745 20.2726 55.9628 20.5949 54.8323 20.5655C53.067 20.5655 51.7166 20.0205 50.7347 18.8886C49.883 17.909 49.4108 16.6117 49.3578 15.0319H62.9898V14.6348ZM54.8256 7.35378C56.4805 7.35378 57.7361 7.90096 58.6694 9.02841C59.4549 9.97273 59.883 11.1928 59.9492 12.6557H49.402C49.5963 11.3295 50.1529 10.0827 51.0105 9.05268C51.4763 8.49687 52.0625 8.05428 52.7246 7.75842C53.3867 7.46256 54.1074 7.32117 54.8323 7.34496L54.8256 7.35378Z" fill="#0891B2"/>
<path d="M71.4476 7.77965H75.3333V4.91139H71.2314V3.0095C71.2314 -0.00659558 68.2746 -0.0065918 68.2746 -0.0065918V4.91139H65.437V7.77965H68.2746V16.2256C68.2746 18.3106 68.9564 19.9985 70.298 21.2495C71.6396 22.5005 73.2658 23.1028 75.3245 23.1028V20.3052C73.9057 20.3052 72.8554 19.8418 72.1074 18.8865C71.5065 18.0967 71.195 17.1247 71.2247 16.1329V7.77965H71.4476Z" fill="#0891B2"/>
<path d="M36.2093 7.6187C37.6303 7.6187 38.685 8.08204 39.4352 9.03739C40.0316 9.82798 40.3392 10.799 40.3068 11.7887V20.0846C40.3068 23.1029 43.2636 23.1029 43.2636 23.1029V11.7005C43.2636 9.64414 42.6016 7.9673 41.2909 6.70527C39.9472 5.43882 38.2878 4.82324 36.2159 4.82324C34.144 4.82324 32.5177 5.42999 31.1916 6.681C29.8655 7.93201 29.166 9.60443 29.166 11.7005V23.114H32.1184V11.7887C32.0869 10.7973 32.3987 9.82551 33.001 9.03739C33.7402 8.08204 34.7905 7.6187 36.2093 7.6187Z" fill="#0891B2"/>
<path d="M91.3305 6.69407C89.9889 5.42762 88.3318 4.81204 86.2555 4.81204C84.6513 4.81204 83.3053 5.18713 82.1601 5.93949V0.0065918H79.2056V23.127H82.1579V11.7885C82.1265 10.7972 82.4383 9.82534 83.0405 9.03722C83.7885 8.08186 84.8389 7.61853 86.2577 7.61853C87.6765 7.61853 88.7334 8.08186 89.4814 9.03722C90.0825 9.82593 90.3942 10.7974 90.364 11.7885V20.1109C90.364 23.127 93.3208 23.127 93.3208 23.127V11.7003C93.3075 9.63294 92.6412 7.94948 91.3305 6.69407Z" fill="#0891B2"/>
<path d="M100.472 18.8202C100.736 19.2552 101.104 19.6177 101.542 19.8748C102.006 20.1441 102.512 20.3335 103.038 20.4353C103.603 20.5492 104.177 20.6061 104.753 20.6052C105.231 20.6027 105.707 20.5688 106.181 20.5037C106.655 20.4427 107.118 20.3165 107.557 20.1286C107.966 19.9566 108.324 19.6813 108.594 19.3299C108.877 18.9414 109.02 18.4686 109 17.9884C109.018 17.6559 108.949 17.3245 108.8 17.0267C108.651 16.7289 108.428 16.4748 108.151 16.2895C107.499 15.8656 106.782 15.5504 106.028 15.3562C105.18 15.1179 104.256 14.9025 103.259 14.7098C102.311 14.5326 101.383 14.259 100.49 13.8934C99.6782 13.569 98.9514 13.0633 98.365 12.4151C97.7972 11.7812 97.514 10.8986 97.5155 9.76752C97.4935 8.96733 97.7002 8.17747 98.1113 7.49056C98.4968 6.86612 99.0198 6.3379 99.6404 5.94611C100.29 5.53886 101.002 5.24074 101.748 5.06356C102.508 4.87367 103.289 4.77662 104.073 4.77453C105 4.76591 105.926 4.85017 106.836 5.02605C107.627 5.17827 108.382 5.47764 109.062 5.9086C109.713 6.33452 110.245 6.9192 110.607 7.6075C111.023 8.43744 111.254 9.3473 111.286 10.275H108.38C108.365 9.8031 108.229 9.34303 107.985 8.93865C107.741 8.53427 107.398 8.19905 106.988 7.96493C106.592 7.73482 106.161 7.56877 105.713 7.47291C105.25 7.37072 104.777 7.31894 104.303 7.31846C103.865 7.31952 103.427 7.35418 102.994 7.42216C102.578 7.4814 102.172 7.60107 101.79 7.77738C101.447 7.93242 101.144 8.16506 100.907 8.45694C100.67 8.77442 100.55 9.16419 100.567 9.56012C100.561 9.79246 100.606 10.0233 100.697 10.2372C100.787 10.4511 100.923 10.643 101.094 10.8001C101.487 11.1537 101.942 11.4306 102.436 11.6164C103.033 11.8459 103.646 12.0274 104.272 12.1592C104.952 12.3063 105.631 12.4593 106.311 12.6181C107.028 12.7747 107.736 12.9676 108.433 13.1962C109.087 13.4026 109.706 13.7061 110.269 14.0964C110.798 14.4658 111.239 14.9472 111.56 15.5063C111.908 16.1526 112.078 16.8798 112.052 17.6133C112.087 18.5408 111.857 19.459 111.39 20.261C110.955 20.9563 110.362 21.5385 109.658 21.9599C108.914 22.4015 108.096 22.7063 107.244 22.8601C106.365 23.0282 105.472 23.1132 104.576 23.1138C103.64 23.1178 102.705 23.0157 101.792 22.8093C100.954 22.6247 100.159 22.2849 99.4462 21.8076C98.7619 21.3369 98.2023 20.7069 97.8156 19.9719C97.3857 19.1161 97.1556 18.1738 97.1426 17.2162H100.031C100.036 17.7801 100.188 18.3329 100.472 18.8202Z" fill="#0891B2"/>
<path d="M127.69 21.6289C126.376 22.6261 124.723 23.124 122.73 23.1226C121.478 23.1527 120.235 22.9213 119.078 22.443C118.078 22.0142 117.188 21.3639 116.476 20.5411C115.754 19.687 115.216 18.6923 114.897 17.6199C114.533 16.4143 114.334 15.1654 114.303 13.9066C114.288 12.657 114.495 11.4147 114.914 10.2374C115.295 9.17293 115.878 8.19217 116.631 7.34931C117.36 6.5388 118.251 5.89014 119.246 5.44522C120.288 4.98588 121.416 4.75421 122.555 4.76566C124.118 4.76566 125.414 5.08852 126.446 5.73425C127.451 6.35509 128.3 7.19822 128.928 8.19876C129.554 9.19997 129.994 10.3063 130.225 11.4642C130.457 12.57 130.554 13.6998 130.514 14.8289H117.361C117.334 15.569 117.426 16.3086 117.633 17.0198C117.827 17.6949 118.163 18.3208 118.619 18.8555C119.094 19.4039 119.686 19.839 120.351 20.1285C121.134 20.4624 121.98 20.6249 122.831 20.6051C124.055 20.6051 125.058 20.322 125.839 19.7557C126.62 19.1894 127.135 18.3281 127.383 17.172H130.236C129.854 19.1445 129.005 20.6301 127.69 21.6289ZM126.995 10.3478C126.616 9.4422 125.975 8.67046 125.155 8.13151C124.334 7.59255 123.372 7.31096 122.39 7.32283C121.696 7.31288 121.008 7.4466 120.369 7.71557C119.786 7.96336 119.261 8.3275 118.824 8.78565C118.39 9.24478 118.044 9.7804 117.805 10.3654C117.553 10.9764 117.403 11.6251 117.363 12.2849H127.456C127.413 11.6164 127.257 10.9599 126.995 10.3433V10.3478Z" fill="#0891B2"/>
<path d="M144.001 8.23617C143.277 7.62428 142.303 7.31833 141.079 7.31833C140.172 7.28814 139.272 7.48695 138.462 7.8964C137.785 8.26041 137.208 8.78551 136.781 9.4254C136.348 10.0944 136.043 10.8381 135.881 11.6185C135.697 12.4607 135.606 13.3204 135.609 14.1823C135.608 14.9817 135.704 15.7782 135.896 16.5541C136.073 17.2873 136.378 17.9834 136.797 18.6105C137.206 19.2122 137.754 19.707 138.394 20.0534C139.116 20.4328 139.924 20.6204 140.74 20.5984C142.168 20.5984 143.284 20.2248 144.087 19.4776C144.89 18.7304 145.383 17.6765 145.565 16.3159H148.52C148.205 18.4913 147.396 20.1682 146.093 21.3464C144.789 22.5246 143.017 23.1129 140.775 23.1115C139.56 23.1345 138.354 22.9155 137.225 22.4672C136.232 22.0665 135.347 21.4403 134.639 20.6381C133.928 19.8099 133.396 18.844 133.076 17.8007C132.714 16.6292 132.536 15.4085 132.549 14.1823C132.541 12.9353 132.713 11.6936 133.059 10.4955C133.37 9.40637 133.895 8.3901 134.603 7.50587C135.305 6.64787 136.194 5.96246 137.203 5.5025C138.346 4.99353 139.588 4.7434 140.839 4.76998C141.786 4.76354 142.729 4.88375 143.643 5.12741C144.476 5.34648 145.26 5.72076 145.954 6.23059C146.629 6.7368 147.19 7.37864 147.602 8.11483C148.056 8.95034 148.334 9.87028 148.418 10.8176H145.429C145.202 9.71002 144.726 8.84954 144.001 8.23617Z" fill="#0891B2"/>
<path d="M186.159 5.17834V22.7454H183.271V5.17834H186.159Z" fill="#0891B2"/>
<path d="M184.716 3.27196C185.549 3.27196 186.225 2.59629 186.225 1.76281C186.225 0.929331 185.549 0.253662 184.716 0.253662C183.882 0.253662 183.207 0.929331 183.207 1.76281C183.207 2.59629 183.882 3.27196 184.716 3.27196Z" fill="#0891B2"/>
<path d="M194.307 8.03991H198.187V5.17164H194.082V3.26976C194.082 0.253665 191.128 0.253662 191.128 0.253662V5.17164H188.297V8.03991H191.126V16.4881C191.126 18.5709 191.807 20.2609 193.149 21.5097C194.491 22.7585 196.117 23.3631 198.176 23.3631V20.5588C196.757 20.5588 195.706 20.0955 194.958 19.1401C194.358 18.3503 194.046 17.3784 194.076 16.3866V8.03991H194.307Z" fill="#0891B2"/>
<path d="M155.159 5.17834V16.4926C155.128 17.4839 155.44 18.4558 156.042 19.2439C156.79 20.1992 157.84 20.6626 159.259 20.6626C160.678 20.6626 161.735 20.1992 162.485 19.2439C163.085 18.4548 163.397 17.4836 163.368 16.4926V8.19664C163.368 5.17834 166.324 5.17834 166.324 5.17834V16.5918C166.324 18.6482 165.662 20.325 164.352 21.587C163.008 22.8535 161.349 23.4691 159.277 23.4691C157.205 23.4691 155.579 22.8623 154.252 21.6113C152.926 20.3603 152.229 18.6769 152.229 16.5918V5.17834H155.159Z" fill="#0891B2"/>
<path d="M182.216 7.02733C180.932 5.81604 179.347 5.22473 177.361 5.22473C175.375 5.22473 173.818 5.80721 172.551 7.00085C171.285 8.1945 170.609 9.81617 170.609 11.8129V22.7454H173.438V11.9078C173.405 10.9602 173.699 10.03 174.27 9.2734C174.987 8.35776 175.993 7.91428 177.359 7.91428C178.725 7.91428 179.731 8.35556 180.448 9.2734L182.216 7.02733Z" fill="#0891B2"/>
<path d="M9.90735 23.8508L0 13.9443L9.90735 4.03992L19.8147 13.9443L9.90735 23.8508ZM4.17035 13.9222L9.90735 19.6455L15.6443 13.9222L9.90735 8.18567L4.17035 13.9222Z" fill="#0891B2"/>
</g>
</g>
<defs>
<clipPath id="clip0_1020_1142">
<rect width="216" height="30" fill="white"/>
</clipPath>
<clipPath id="clip1_1020_1142">
<rect width="216" height="30" fill="white"/>
</clipPath>
</defs>
</svg>
