<svg id="Livello_1" data-name="Livello 1" xmlns="http://www.w3.org/2000/svg" viewBox="0 0 300 300"><defs><style>.cls-1{fill:#8867a9;}</style></defs><title>loghi_svg</title><path class="cls-1" d="M106.73,150.9c0-3.24-.76-5.8-2.25-7.62a7.78,7.78,0,0,0-6.33-2.79,8.29,8.29,0,0,0-6.59,2.9,10.22,10.22,0,0,0-2.34,6.85,10.34,10.34,0,0,0,2.13,6.83,8.41,8.41,0,0,0,6.8,2.8,8.58,8.58,0,0,0,5.65-1.79,9.17,9.17,0,0,0,2.75-4.39l.18-.54H103.4l-.08.32a4.47,4.47,0,0,1-1.83,2.73,5.7,5.7,0,0,1-3.34,1,5.37,5.37,0,0,1-4.32-1.77,6.49,6.49,0,0,1-1.45-4.09h14.35Zm-8.58-7.73a4.88,4.88,0,0,1,4,1.78,6.3,6.3,0,0,1,1.35,3.84H92.44A7.63,7.63,0,0,1,94.13,145,5,5,0,0,1,98.15,143.17Z"/><path class="cls-1" d="M115.63,143.63h4.09v-3H115.4v-2a3.07,3.07,0,0,0-3.11-3.2v5.21h-3v3h3v9a7,7,0,0,0,2.13,5.33,7.38,7.38,0,0,0,5.29,2v-3a4,4,0,0,1-3.38-1.5,4.66,4.66,0,0,1-.93-2.92v-8.85Z"/><path class="cls-1" d="M78.54,143.46a4,4,0,0,1,3.4,1.51,4.6,4.6,0,0,1,.92,2.91v8.79a3.07,3.07,0,0,0,3.11,3.2V147.78a7.08,7.08,0,0,0-2.08-5.3,7.39,7.39,0,0,0-5.35-2,7.3,7.3,0,0,0-5.29,2,7,7,0,0,0-2.13,5.32v12.09h3.11v-12a4.53,4.53,0,0,1,.93-2.91A4,4,0,0,1,78.54,143.46Z"/><path class="cls-1" d="M136.56,142.48a7.36,7.36,0,0,0-5.34-2,7.55,7.55,0,0,0-4.31,1.2V134.6H123.8v18.55h3.11v-5.27a4.58,4.58,0,0,1,.92-2.91,4.56,4.56,0,0,1,6.78,0,4.6,4.6,0,0,1,.92,2.91v8.8a3.07,3.07,0,0,0,3.11,3.19V147.78A7.08,7.08,0,0,0,136.56,142.48Z"/><path class="cls-1" d="M148.07,141v4.67h.07a7,7,0,0,1,.8-2,6.81,6.81,0,0,1,1.35-1.62,6.24,6.24,0,0,1,1.77-1.08,5.47,5.47,0,0,1,2.06-.39,5.39,5.39,0,0,1,3.67,1.12,5.63,5.63,0,0,1,2,3.29h.07a5.9,5.9,0,0,1,2.16-3.2,6.09,6.09,0,0,1,3.79-1.21,6.78,6.78,0,0,1,2.85.52,4.68,4.68,0,0,1,1.82,1.41,5.63,5.63,0,0,1,1,2.17,12.77,12.77,0,0,1,.29,2.81v12.41H171V147.46a12.39,12.39,0,0,0-.24-2.54,4.7,4.7,0,0,0-.84-1.94,3.85,3.85,0,0,0-1.6-1.25,6.26,6.26,0,0,0-2.54-.44,5.43,5.43,0,0,0-2.44.53,5.51,5.51,0,0,0-1.86,1.45,6.58,6.58,0,0,0-1.17,2.11,7.82,7.82,0,0,0-.4,2.52v12h-.73V147.75a15.35,15.35,0,0,0-.2-2.5,5.81,5.81,0,0,0-.75-2.05,3.91,3.91,0,0,0-1.53-1.4,5.58,5.58,0,0,0-2.56-.51,5,5,0,0,0-2.51.64,5.88,5.88,0,0,0-1.92,1.73,8,8,0,0,0-1.2,2.51,10.68,10.68,0,0,0-.42,3v10.69h-.73V141Z"/><path class="cls-1" d="M178.93,146.7a9.67,9.67,0,0,1,1.63-3.14,8.34,8.34,0,0,1,2.64-2.18,7.77,7.77,0,0,1,3.65-.83,7.63,7.63,0,0,1,3.61.83,8.27,8.27,0,0,1,2.65,2.18,9.46,9.46,0,0,1,1.62,3.14,12.92,12.92,0,0,1,0,7.46,9.36,9.36,0,0,1-1.62,3.14,8,8,0,0,1-2.65,2.17,8.54,8.54,0,0,1-7.26,0,8.05,8.05,0,0,1-2.64-2.17,9.57,9.57,0,0,1-1.63-3.14,13.15,13.15,0,0,1,0-7.46Zm.68,7.18a8.65,8.65,0,0,0,1.48,2.92,7.17,7.17,0,0,0,2.42,2,7,7,0,0,0,3.34.76,6.92,6.92,0,0,0,3.3-.76,7.21,7.21,0,0,0,2.43-2,8.65,8.65,0,0,0,1.48-2.92,11.94,11.94,0,0,0,.49-3.45,11.82,11.82,0,0,0-.49-3.41,8.65,8.65,0,0,0-1.48-2.92,7.39,7.39,0,0,0-2.43-2,6.81,6.81,0,0,0-3.3-.77,6.92,6.92,0,0,0-3.34.77,7.35,7.35,0,0,0-2.42,2,8.65,8.65,0,0,0-1.48,2.92,11.82,11.82,0,0,0-.49,3.41A11.94,11.94,0,0,0,179.61,153.88Z"/><path class="cls-1" d="M202.69,141v4.67h.07a6.55,6.55,0,0,1,.82-2,6.37,6.37,0,0,1,3.41-2.7,7.75,7.75,0,0,1,2.52-.39,7.93,7.93,0,0,1,2.68.44,5.92,5.92,0,0,1,2.12,1.31,5.75,5.75,0,0,1,1.39,2.13,8.16,8.16,0,0,1,.49,2.92v12.52h-.73V147.46a7.3,7.3,0,0,0-.48-2.81,5.12,5.12,0,0,0-1.29-1.91,5.26,5.26,0,0,0-1.9-1.11,7.45,7.45,0,0,0-2.28-.34,6.44,6.44,0,0,0-2.95.64,6.15,6.15,0,0,0-2.14,1.73,7.56,7.56,0,0,0-1.29,2.51,10,10,0,0,0-.44,3v10.69H202V141Z"/><path class="cls-1" d="M223.85,137.36v-3.71h.73v3.71Zm0,22.51V141h.73v18.88Z"/><path class="cls-1" d="M234.25,156.2a4.49,4.49,0,0,0,.24,1.65,2,2,0,0,0,.6.88,1.48,1.48,0,0,0,.8.35,6.51,6.51,0,0,0,.88.06l1,0a2,2,0,0,0,.62-.09v.73l-.64.08c-.2,0-.59,0-1.15,0a3.27,3.27,0,0,1-2.17-.75,3.52,3.52,0,0,1-.89-2.77V141.73h-3.43V141h3.43v-6h.73v6h4.23v.74h-4.23Z"/><path class="cls-1" d="M244.25,146.7a9.46,9.46,0,0,1,1.62-3.14,8.27,8.27,0,0,1,2.65-2.18,8.35,8.35,0,0,1,7.26,0,8.23,8.23,0,0,1,2.64,2.18,9.67,9.67,0,0,1,1.63,3.14,13.15,13.15,0,0,1,0,7.46,9.57,9.57,0,0,1-1.63,3.14,8,8,0,0,1-2.64,2.17,7.85,7.85,0,0,1-3.65.81,7.74,7.74,0,0,1-3.61-.81,8,8,0,0,1-2.65-2.17,9.36,9.36,0,0,1-1.62-3.14,12.92,12.92,0,0,1,0-7.46Zm.67,7.18a8.65,8.65,0,0,0,1.48,2.92,7.31,7.31,0,0,0,2.43,2,7,7,0,0,0,3.34.76,6.92,6.92,0,0,0,3.3-.76,7.17,7.17,0,0,0,2.42-2,8.65,8.65,0,0,0,1.48-2.92,11.94,11.94,0,0,0,.49-3.45,11.82,11.82,0,0,0-.49-3.41,8.65,8.65,0,0,0-1.48-2.92,7.35,7.35,0,0,0-2.42-2,6.81,6.81,0,0,0-3.3-.77,6.89,6.89,0,0,0-3.34.77,7.49,7.49,0,0,0-2.43,2,8.65,8.65,0,0,0-1.48,2.92,11.82,11.82,0,0,0-.49,3.41A11.94,11.94,0,0,0,244.92,153.88Z"/><path class="cls-1" d="M267.27,159.87V141H268v4.67h.07a7.12,7.12,0,0,1,.81-2,5.54,5.54,0,0,1,1.46-1.64,7.14,7.14,0,0,1,2.17-1.1,9.07,9.07,0,0,1,2.93-.37v.74a6.85,6.85,0,0,0-3.33.53,6.3,6.3,0,0,0-2.32,1.76,7.36,7.36,0,0,0-1.35,2.59,10.54,10.54,0,0,0-.44,3v10.69Z"/><path class="cls-1" d="M45,160.05H24.56V139.46H45Zm-19.45-1H44V140.47H25.56Z"/></svg>