<svg id="Livello_1" data-name="Livello 1" xmlns="http://www.w3.org/2000/svg" viewBox="0 0 300 300"><defs><style>.cls-1{fill:#294b9a;}</style></defs><title>loghi_svg</title><path class="cls-1" d="M130.79,150.93c0-3.24-.75-5.8-2.25-7.62a7.78,7.78,0,0,0-6.33-2.79,8.27,8.27,0,0,0-6.58,2.89,10.2,10.2,0,0,0-2.35,6.86,10.41,10.41,0,0,0,2.13,6.83,8.44,8.44,0,0,0,6.8,2.8,8.58,8.58,0,0,0,5.65-1.79,9.21,9.21,0,0,0,2.75-4.39l.18-.54h-3.33l-.08.32a4.5,4.5,0,0,1-1.82,2.73,5.73,5.73,0,0,1-3.35,1,5.36,5.36,0,0,1-4.32-1.78,6.5,6.5,0,0,1-1.45-4.08h14.35Zm-8.58-7.73a4.88,4.88,0,0,1,4,1.78,6.3,6.3,0,0,1,1.35,3.84H116.5a7.72,7.72,0,0,1,1.69-3.81A5,5,0,0,1,122.21,143.2Z"/><path class="cls-1" d="M139.69,143.66h4.09v-3h-4.31v-2a3.08,3.08,0,0,0-3.12-3.19v5.21h-3v3h3v9a7,7,0,0,0,2.13,5.32,7.35,7.35,0,0,0,5.3,2v-3a4,4,0,0,1-3.39-1.51,4.61,4.61,0,0,1-.92-2.92v-8.84Z"/><path class="cls-1" d="M102.6,143.49A4,4,0,0,1,106,145a4.61,4.61,0,0,1,.92,2.92v8.79a3.07,3.07,0,0,0,3.11,3.2V147.8a7.07,7.07,0,0,0-2.08-5.29,7.39,7.39,0,0,0-5.35-2,7.26,7.26,0,0,0-5.28,2,6.93,6.93,0,0,0-2.13,5.31v12.1h3.1v-12a4.56,4.56,0,0,1,.93-2.92A4,4,0,0,1,102.6,143.49Z"/><path class="cls-1" d="M160.62,142.51a7.36,7.36,0,0,0-5.34-2,7.55,7.55,0,0,0-4.31,1.19v-7.08h-3.11v18.55H151v-5.27a4.61,4.61,0,0,1,.92-2.92,4.58,4.58,0,0,1,6.78,0,4.61,4.61,0,0,1,.92,2.92v8.79a3.07,3.07,0,0,0,3.11,3.2V147.8A7.07,7.07,0,0,0,160.62,142.51Z"/><path class="cls-1" d="M183.18,144.18a4.2,4.2,0,0,0-1.24-1.63,5.1,5.1,0,0,0-1.91-.94,9.57,9.57,0,0,0-2.47-.29,7.36,7.36,0,0,0-3.1.53,4.73,4.73,0,0,0-1.68,1.21,3.37,3.37,0,0,0-.69,1.34,4.71,4.71,0,0,0-.14.92,3.51,3.51,0,0,0,.56,2.15,3.67,3.67,0,0,0,1.51,1.16,15.34,15.34,0,0,0,2.14.69l2.68.7,2.17.61a7.43,7.43,0,0,1,1.94.86,4.39,4.39,0,0,1,1.38,1.4,4,4,0,0,1,.53,2.2,4.57,4.57,0,0,1-.6,2.42,5,5,0,0,1-1.57,1.62,6.49,6.49,0,0,1-2.19.9,11.19,11.19,0,0,1-2.43.28,8.49,8.49,0,0,1-5.67-1.66c-1.28-1.1-1.91-2.84-1.91-5.21h.73a5.74,5.74,0,0,0,1.77,4.68,7.68,7.68,0,0,0,5.08,1.49,9.53,9.53,0,0,0,2.1-.24,6.46,6.46,0,0,0,2-.77,4.67,4.67,0,0,0,1.45-1.38,3.66,3.66,0,0,0,.56-2.06,3.4,3.4,0,0,0-.56-2,4.58,4.58,0,0,0-1.46-1.26,8.49,8.49,0,0,0-2.06-.79l-2.38-.59q-1.35-.33-2.37-.63a11.61,11.61,0,0,1-1.82-.66,3.63,3.63,0,0,1-1.72-1.43,4.82,4.82,0,0,1-.54-2.46,4.48,4.48,0,0,1,.32-1.62,4.19,4.19,0,0,1,1.1-1.54,6.12,6.12,0,0,1,2-1.14,8.73,8.73,0,0,1,2.95-.44,7.87,7.87,0,0,1,5,1.43,5.52,5.52,0,0,1,1.82,4.6h-.73A5.87,5.87,0,0,0,183.18,144.18Z"/><path class="cls-1" d="M191.94,166.37V141h.73v5.29h.07A8.56,8.56,0,0,1,193.8,144a7.94,7.94,0,0,1,1.64-1.82,7.28,7.28,0,0,1,2.17-1.2,8.13,8.13,0,0,1,2.65-.42,7.24,7.24,0,0,1,5.86,2.79,9.41,9.41,0,0,1,1.58,3.13,13.29,13.29,0,0,1,.55,3.93,13.43,13.43,0,0,1-.53,3.78,10,10,0,0,1-1.53,3.16,7.4,7.4,0,0,1-2.5,2.15,7.32,7.32,0,0,1-3.43.79,7.28,7.28,0,0,1-7.52-5.7h-.07v11.76Zm11.62-7.59a7.16,7.16,0,0,0,2.25-2.13,9.53,9.53,0,0,0,1.29-2.94,13.12,13.12,0,0,0,.42-3.28,12.67,12.67,0,0,0-.46-3.48,9.31,9.31,0,0,0-1.35-2.9,6.49,6.49,0,0,0-2.26-2,6.62,6.62,0,0,0-3.19-.73,6.9,6.9,0,0,0-3.21.73,7.07,7.07,0,0,0-2.39,2,9,9,0,0,0-1.48,2.91,11.74,11.74,0,0,0-.51,3.49q0,4.44,2.08,6.81a7,7,0,0,0,5.51,2.37A6.27,6.27,0,0,0,203.56,158.78Z"/><path class="cls-1" d="M214.74,146.73a9.67,9.67,0,0,1,1.63-3.14,8.34,8.34,0,0,1,2.64-2.18,7.77,7.77,0,0,1,3.65-.83,7.63,7.63,0,0,1,3.61.83,8.27,8.27,0,0,1,2.65,2.18,9.46,9.46,0,0,1,1.62,3.14,12.92,12.92,0,0,1,0,7.46,9.27,9.27,0,0,1-1.62,3.14,8,8,0,0,1-2.65,2.17,8.54,8.54,0,0,1-7.26,0,8.05,8.05,0,0,1-2.64-2.17,9.47,9.47,0,0,1-1.63-3.14,13.15,13.15,0,0,1,0-7.46Zm.68,7.19a8.7,8.7,0,0,0,1.48,2.91,7.32,7.32,0,0,0,2.42,2,7.15,7.15,0,0,0,3.34.75,7,7,0,0,0,3.3-.75,7.36,7.36,0,0,0,2.43-2,8.7,8.7,0,0,0,1.48-2.91,12.06,12.06,0,0,0,.49-3.46,11.82,11.82,0,0,0-.49-3.41,8.65,8.65,0,0,0-1.48-2.92,7.39,7.39,0,0,0-2.43-2,6.81,6.81,0,0,0-3.3-.77,6.92,6.92,0,0,0-3.34.77,7.35,7.35,0,0,0-2.42,2,8.65,8.65,0,0,0-1.48,2.92,11.82,11.82,0,0,0-.49,3.41A12.06,12.06,0,0,0,215.42,153.92Z"/><path class="cls-1" d="M239.78,156.23a4.52,4.52,0,0,0,.23,1.65,2.13,2.13,0,0,0,.6.88,1.54,1.54,0,0,0,.81.35,6.36,6.36,0,0,0,.87.06l1,0a2,2,0,0,0,.62-.09v.73l-.64.08c-.21,0-.59,0-1.15,0a3.27,3.27,0,0,1-2.17-.75,3.48,3.48,0,0,1-.89-2.77V141.76h-3.43V141h3.43v-6h.73v6H244v.74h-4.23Z"/><ellipse class="cls-1" cx="58.84" cy="150.48" rx="2.85" ry="2.87"/></svg>