<svg width="450" height="50" viewBox="0 0 450 50" fill="none" xmlns="http://www.w3.org/2000/svg">
<g clip-path="url(#clip0_1014_609)">
<path d="M140.698 31.6447C140.698 25.0429 139.144 19.8197 136.082 16.1086C132.958 12.3259 128.585 10.4083 123.066 10.4083C117.548 10.4083 112.946 12.3974 109.555 16.3184C106.355 20.02 104.733 24.7281 104.733 30.3091C104.733 36.0857 106.202 40.7651 109.112 44.233C112.317 48.0252 117.019 49.9571 123.066 49.9571C127.836 49.9571 131.737 48.7312 134.684 46.3079C137.188 44.233 139.091 41.2183 140.331 37.3545L140.689 36.2478H133.864L133.697 36.9061C133.196 39.1649 131.86 41.1511 129.958 42.468C127.928 43.8317 125.525 44.5302 123.081 44.4667C119.265 44.4667 116.342 43.2837 114.224 40.8414C112.383 38.7235 111.363 35.9187 111.248 32.4986H140.713L140.698 31.6447ZM123.052 15.8796C126.629 15.8796 129.343 17.0674 131.36 19.5049C133.058 21.5465 133.983 24.1843 134.126 27.3421H111.358C111.778 24.481 112.977 21.7909 114.825 19.5669C115.831 18.369 117.095 17.4147 118.522 16.7761C119.95 16.1374 121.503 15.8309 123.066 15.8796H123.052Z" fill="#EA580C"/>
<path d="M158.979 16.8241H167.378V10.623H158.511V6.51119C158.511 -0.0142859 152.121 -0.0142822 152.121 -0.0142822V10.623H145.987V16.8241H152.121V35.084C152.121 39.5917 153.594 43.2408 156.494 45.9407C159.394 48.6405 162.909 49.9475 167.358 49.9475V43.8896C164.292 43.8896 162.022 42.8831 160.405 40.8176C159.106 39.1106 158.432 37.0089 158.497 34.8646V16.8241H158.979Z" fill="#EA580C"/>
<path d="M82.8134 16.4759C85.8848 16.4759 88.1646 17.4776 89.7861 19.543C91.0844 21.2488 91.7578 23.3486 91.6938 25.4913V43.4268C91.6938 49.9475 98.0847 49.9475 98.0847 49.9475V25.2767C98.0847 20.8309 96.6539 17.2057 93.8209 14.4772C90.9164 11.7392 87.3299 10.4083 82.8516 10.4083C78.3733 10.4083 74.8583 11.7201 71.992 14.42C69.1256 17.1198 67.6138 20.7689 67.6138 25.2767V49.9475H73.9998V25.5056C73.9328 23.361 74.6065 21.2587 75.9075 19.5526C77.4957 17.4776 79.7468 16.4759 82.8134 16.4759Z" fill="#EA580C"/>
<path d="M201.974 14.4772C199.07 11.7392 195.493 10.4083 191.005 10.4083C187.538 10.4083 184.628 11.2192 182.153 12.8458V0H175.743V50.0048H182.129V25.5056C182.06 23.3606 182.734 21.2576 184.037 19.5526C185.654 17.4919 187.924 16.4902 190.991 16.4902C194.057 16.4902 196.337 17.4919 197.958 19.5573C199.257 21.2631 199.93 23.3629 199.866 25.5056V43.4984C199.866 50.0191 206.262 50.0191 206.262 50.0191V25.2767C206.228 20.8309 204.788 17.2057 201.974 14.4772Z" fill="#EA580C"/>
<path d="M221.924 40.6935C222.495 41.6315 223.29 42.4132 224.237 42.9688C225.239 43.5524 226.332 43.9636 227.471 44.1852C228.69 44.4316 229.932 44.5546 231.176 44.5525C232.209 44.5478 233.24 44.4729 234.262 44.3283C235.286 44.1982 236.288 43.9269 237.238 43.5222C238.12 43.1486 238.89 42.5539 239.475 41.7954C240.09 40.9571 240.401 39.9341 240.357 38.8952C240.396 38.1763 240.247 37.4596 239.925 36.8156C239.603 36.1717 239.119 35.6226 238.521 35.2222C237.111 34.305 235.561 33.622 233.933 33.1997C232.095 32.6846 230.1 32.2203 227.947 31.8069C225.897 31.4208 223.89 30.8295 221.957 30.0419C220.205 29.3398 218.635 28.2467 217.369 26.846C216.145 25.4754 215.533 23.5673 215.533 21.1219C215.486 19.3919 215.932 17.6842 216.821 16.1991C217.656 14.8506 218.786 13.709 220.126 12.8601C221.528 11.9803 223.065 11.3358 224.676 10.9521C226.322 10.5416 228.011 10.3318 229.707 10.3272C231.705 10.313 233.699 10.4983 235.659 10.8805C237.368 11.2066 238.999 11.8541 240.467 12.7885C241.873 13.7097 243.022 14.9737 243.805 16.4615C244.705 18.2554 245.206 20.2227 245.274 22.2285H239.036C238.984 21.1476 238.656 20.0981 238.082 19.1804C237.555 18.3833 236.851 17.7176 236.027 17.2343C235.169 16.736 234.239 16.3754 233.27 16.1658C232.269 15.9464 231.247 15.8361 230.222 15.8366C229.276 15.8395 228.33 15.9128 227.394 16.056C226.492 16.1886 225.614 16.4488 224.785 16.8288C224.044 17.164 223.391 17.667 222.878 18.298C222.364 18.984 222.105 19.827 222.143 20.683C222.13 21.1854 222.225 21.6848 222.422 22.1472C222.619 22.6097 222.912 23.0246 223.283 23.3638C224.13 24.1284 225.114 24.7257 226.183 25.124C227.471 25.6246 228.798 26.0186 230.151 26.3022C231.62 26.6202 233.089 26.9509 234.558 27.2944C236.122 27.6378 237.651 28.0528 239.146 28.5393C240.556 28.9906 241.893 29.6463 243.114 30.4855C244.256 31.2869 245.208 32.329 245.904 33.5384C246.656 34.934 247.023 36.5047 246.967 38.0891C247.043 40.0942 246.547 42.0795 245.537 43.8132C244.598 45.3189 243.315 46.5796 241.793 47.4909C240.183 48.4457 238.416 49.1048 236.575 49.4371C234.675 49.8004 232.744 49.9841 230.809 49.9856C228.782 49.9949 226.761 49.7725 224.785 49.3226C222.976 48.9266 221.257 48.1918 219.72 47.157C218.239 46.1439 217.029 44.7828 216.196 43.193C215.258 41.335 214.756 39.2877 214.727 37.2066H220.97C220.978 38.4322 221.307 39.6344 221.924 40.6935Z" fill="#EA580C"/>
<path d="M280.753 46.7564C277.917 48.9061 274.343 49.9826 270.032 49.9857C267.326 50.048 264.636 49.5477 262.134 48.5165C259.975 47.5877 258.054 46.182 256.516 44.4047C254.952 42.557 253.789 40.4048 253.101 38.0844C252.317 35.4858 251.885 32.7936 251.818 30.0802C251.787 27.385 252.235 24.7057 253.139 22.1666C253.961 19.8652 255.221 17.7448 256.849 15.9226C258.424 14.1692 260.349 12.7667 262.501 11.806C264.754 10.8129 267.193 10.312 269.655 10.3368C273.032 10.3368 275.834 11.0348 278.063 12.4309C280.235 13.7719 282.069 15.5951 283.424 17.7591C284.776 19.9199 285.723 22.3089 286.219 24.8092C286.718 27.2002 286.926 29.6427 286.839 32.0836H258.428C258.368 33.6838 258.566 35.2833 259.015 36.8203C259.435 38.2774 260.16 39.6286 261.142 40.7842C262.169 41.9723 263.45 42.9145 264.89 43.5413C266.583 44.2632 268.411 44.6145 270.251 44.5717C272.893 44.5717 275.06 43.9595 276.752 42.7352C278.443 41.5109 279.556 39.649 280.09 37.1494H286.257C285.43 41.398 283.596 44.6003 280.753 46.7564ZM279.236 22.367C278.062 19.7416 275.91 17.6779 273.238 16.6143C270.567 15.5508 267.585 15.5713 264.929 16.6715C263.67 17.2078 262.534 17.995 261.59 18.985C260.653 19.9791 259.906 21.1367 259.387 22.4003C258.842 23.7232 258.52 25.1271 258.433 26.5551H280.238C280.142 25.1126 279.804 23.6966 279.236 22.367Z" fill="#EA580C"/>
<path d="M334.96 49.1796L320.857 11.1954H327.835L338.485 42.8545H338.632L348.987 11.1954H355.544L341.661 49.1748L334.96 49.1796Z" fill="#EA580C"/>
<path d="M400.252 17.8115C398.684 16.4918 396.579 15.8303 393.937 15.8271C391.977 15.7612 390.031 16.1911 388.281 17.0769C386.814 17.8624 385.564 18.9979 384.642 20.3826C383.705 21.8272 383.045 23.4334 382.696 25.1193C382.301 26.942 382.105 28.8019 382.109 30.6669C382.105 32.3998 382.313 34.1268 382.729 35.809C383.109 37.3946 383.768 38.9 384.675 40.2547C385.56 41.5557 386.744 42.6254 388.128 43.3744C389.697 44.1962 391.451 44.6019 393.222 44.5526C396.303 44.5526 398.713 43.7433 400.452 42.1246C402.191 40.506 403.256 38.229 403.647 35.2938H410.038C409.351 39.9971 407.603 43.6208 404.792 46.1649C401.981 48.7089 398.15 49.9809 393.298 49.9809C390.662 50.0354 388.041 49.5618 385.591 48.5881C383.445 47.7212 381.533 46.3636 380.006 44.6241C378.47 42.8336 377.321 40.7452 376.629 38.4898C375.847 35.9569 375.463 33.3178 375.49 30.6669C375.47 27.9707 375.841 25.2858 376.591 22.6961C377.264 20.3414 378.399 18.1443 379.93 16.2326C381.447 14.3775 383.369 12.8943 385.548 11.8966C388.02 10.7997 390.704 10.2606 393.408 10.3177C395.452 10.3036 397.489 10.5635 399.465 11.0905C401.264 11.5648 402.958 12.3739 404.458 13.4755C405.918 14.5704 407.132 15.9599 408.021 17.5539C409.001 19.3594 409.601 21.3463 409.785 23.3925H403.337C402.848 20.9852 401.819 19.1249 400.252 17.8115Z" fill="#EA580C"/>
<path d="M443.876 46.7563C441.037 48.9061 437.463 49.9825 433.155 49.9857C430.449 50.0479 427.759 49.5477 425.257 48.5165C423.099 47.5864 421.178 46.1808 419.639 44.4047C418.075 42.557 416.912 40.4048 416.224 38.0843C415.44 35.4857 415.008 32.7936 414.941 30.0801C414.911 27.3849 415.358 24.7057 416.262 22.1666C417.084 19.8652 418.344 17.7448 419.973 15.9225C421.549 14.1691 423.476 12.7665 425.629 11.806C427.882 10.8117 430.321 10.3108 432.783 10.3368C436.159 10.3368 438.962 11.0348 441.191 12.4308C443.363 13.7719 445.197 15.595 446.552 17.759C447.904 19.9198 448.851 22.3089 449.346 24.8092C449.847 27.2 450.057 29.6425 449.971 32.0836H421.546C421.488 33.6837 421.686 35.2827 422.133 36.8203C422.553 38.2784 423.28 39.6299 424.265 40.7842C425.291 41.9717 426.57 42.9139 428.009 43.5413C429.702 44.2631 431.53 44.6144 433.369 44.5716C436.015 44.5716 438.182 43.9595 439.87 42.7352C441.558 41.5108 442.671 39.6489 443.208 37.1494H449.375C448.552 41.398 446.719 44.6003 443.876 46.7563ZM442.374 22.3669C441.558 20.4072 440.173 18.7369 438.399 17.5713C436.625 16.4057 434.543 15.7982 432.42 15.8271C430.921 15.8041 429.434 16.0916 428.052 16.6714C426.794 17.2089 425.658 17.9959 424.713 18.9849C423.776 19.9791 423.029 21.1367 422.51 22.4003C421.965 23.7232 421.643 25.127 421.556 26.5551H443.371C443.276 25.1129 442.939 23.6969 442.374 22.3669Z" fill="#EA580C"/>
<path d="M367.864 11.1954V49.1748H361.621V11.1954H367.864Z" fill="#EA580C"/>
<path d="M364.745 6.52547C366.546 6.52547 368.007 5.0647 368.007 3.26274C368.007 1.46078 366.546 0 364.745 0C362.943 0 361.482 1.46078 361.482 3.26274C361.482 5.0647 362.943 6.52547 364.745 6.52547Z" fill="#EA580C"/>
<path d="M318.201 15.1975C315.425 12.5787 312.001 11.3003 307.685 11.3003C303.369 11.3003 300.025 12.5548 297.288 15.1164C294.55 17.6779 293.091 21.203 293.091 25.5151V49.1557H299.205V25.7489C299.138 23.6957 299.781 21.6822 301.027 20.0486C302.577 18.069 304.752 17.1102 307.704 17.1102C310.656 17.1102 312.831 18.0643 314.381 20.0486L318.201 15.1975Z" fill="#EA580C"/>
<path d="M35.326 42.2725L19.3013 26.0829L4.5165 41.0228L0 36.5532L19.3013 17.0531L35.1782 33.0901L46.8533 20.5114L51.5082 24.8331L35.326 42.2725Z" fill="#EA580C"/>
</g>
<defs>
<clipPath id="clip0_1014_609">
<rect width="450" height="50" fill="white"/>
</clipPath>
</defs>
</svg>
