<svg id="Livello_1" data-name="Livello 1" xmlns="http://www.w3.org/2000/svg" viewBox="0 0 300 300"><defs><style>.cls-1{fill:#f0840e;}</style></defs><title>loghi_svg</title><path class="cls-1" d="M116.52,151c0-3.22-.74-5.78-2.22-7.59a7.63,7.63,0,0,0-6.25-2.79,8.15,8.15,0,0,0-6.49,2.89,10.23,10.23,0,0,0-2.32,6.84,10.45,10.45,0,0,0,2.1,6.81,8.29,8.29,0,0,0,6.71,2.79,8.45,8.45,0,0,0,5.58-1.78,9.22,9.22,0,0,0,2.72-4.38l.17-.54h-3.28l-.08.32a4.49,4.49,0,0,1-1.8,2.72,5.63,5.63,0,0,1-3.31,1,5.24,5.24,0,0,1-4.25-1.77,6.45,6.45,0,0,1-1.43-4.08h14.15Zm-8.47-7.7a4.82,4.82,0,0,1,4,1.77,6.34,6.34,0,0,1,1.33,3.83h-11a7.87,7.87,0,0,1,1.66-3.8A5,5,0,0,1,108.05,143.25Z"/><path class="cls-1" d="M125.31,143.71h4v-3h-4.26v-2a3,3,0,0,0-3.07-3.18v5.19h-3v3h3v8.93a7,7,0,0,0,2.1,5.3,7.18,7.18,0,0,0,5.23,2v-3a3.94,3.94,0,0,1-3.35-1.5,4.66,4.66,0,0,1-.91-2.91v-8.82Z"/><path class="cls-1" d="M88.71,143.54a4,4,0,0,1,3.35,1.5A4.61,4.61,0,0,1,93,148v8.76A3,3,0,0,0,96,159.9V147.84a7.12,7.12,0,0,0-2-5.28,7.25,7.25,0,0,0-5.28-2,7.14,7.14,0,0,0-5.22,2,6.94,6.94,0,0,0-2.1,5.3V159.9h3.06V148a4.56,4.56,0,0,1,.92-2.91A3.92,3.92,0,0,1,88.71,143.54Z"/><path class="cls-1" d="M146,142.56a7.23,7.23,0,0,0-5.27-2,7.41,7.41,0,0,0-4.26,1.2V134.7h-3.07v18.5h3.07V148a4.62,4.62,0,0,1,.91-2.91,4.48,4.48,0,0,1,6.69,0,4.56,4.56,0,0,1,.91,2.91v8.77A3,3,0,0,0,148,159.9V147.84A7.09,7.09,0,0,0,146,142.56Z"/><path class="cls-1" d="M168.22,144.22a4.25,4.25,0,0,0-1.22-1.63,5.23,5.23,0,0,0-1.89-.93,9.25,9.25,0,0,0-2.43-.29,7.13,7.13,0,0,0-3.06.53,4.44,4.44,0,0,0-1.66,1.21,3.18,3.18,0,0,0-.68,1.33,5,5,0,0,0-.15.92,3.54,3.54,0,0,0,.56,2.14,3.61,3.61,0,0,0,1.49,1.16,14.91,14.91,0,0,0,2.11.69l2.65.7c.72.19,1.43.4,2.14.6a7.56,7.56,0,0,1,1.91.86,4.46,4.46,0,0,1,1.37,1.4,4.17,4.17,0,0,1,.52,2.19,4.57,4.57,0,0,1-.6,2.42,4.84,4.84,0,0,1-1.54,1.61,6.5,6.5,0,0,1-2.16.9,11,11,0,0,1-2.4.27,8.3,8.3,0,0,1-5.6-1.64c-1.26-1.1-1.89-2.84-1.89-5.2h.72a5.79,5.79,0,0,0,1.75,4.67,7.59,7.59,0,0,0,5,1.48,9.4,9.4,0,0,0,2.07-.24,6.19,6.19,0,0,0,1.93-.77,4.53,4.53,0,0,0,1.42-1.37,3.65,3.65,0,0,0,.56-2,3.38,3.38,0,0,0-.56-2,4.4,4.4,0,0,0-1.44-1.26,8.67,8.67,0,0,0-2-.79l-2.35-.59c-.88-.22-1.66-.42-2.34-.62a11.72,11.72,0,0,1-1.8-.66,3.6,3.6,0,0,1-1.69-1.43,4.78,4.78,0,0,1-.54-2.45,4.41,4.41,0,0,1,.33-1.61,3.94,3.94,0,0,1,1.08-1.54,6,6,0,0,1,1.94-1.14,8.51,8.51,0,0,1,2.92-.44,7.67,7.67,0,0,1,4.89,1.43,5.49,5.49,0,0,1,1.8,4.58h-.72A6,6,0,0,0,168.22,144.22Z"/><path class="cls-1" d="M177,154.17a8.59,8.59,0,0,0,1.28,2.84,6.14,6.14,0,0,0,2.23,1.9,7.28,7.28,0,0,0,3.35.7,7.42,7.42,0,0,0,4.84-1.56,7,7,0,0,0,2.4-4.67h.72a7.57,7.57,0,0,1-2.56,5.11,9.27,9.27,0,0,1-9,1.12,6.56,6.56,0,0,1-2.5-2.07,9.12,9.12,0,0,1-1.44-3.15,15.67,15.67,0,0,1-.47-3.9,11.82,11.82,0,0,1,.69-4.18,9.53,9.53,0,0,1,1.8-3.09,7.45,7.45,0,0,1,2.59-1.93,7.31,7.31,0,0,1,3-.66,7.67,7.67,0,0,1,3.73.85,7.37,7.37,0,0,1,2.56,2.23,9.38,9.38,0,0,1,1.44,3.19,13.51,13.51,0,0,1,.38,3.73H176.5A16.31,16.31,0,0,0,177,154.17Zm13.85-7.55a8.38,8.38,0,0,0-1.39-2.73,6.59,6.59,0,0,0-2.29-1.85,7,7,0,0,0-3.16-.67,6.89,6.89,0,0,0-2.83.58,6.59,6.59,0,0,0-2.3,1.71,8.83,8.83,0,0,0-1.61,2.69,11.36,11.36,0,0,0-.72,3.55h14.77A11.41,11.41,0,0,0,190.8,146.62Z"/><path class="cls-1" d="M198.47,159.9V141.07h.72v4.66h.07a7.39,7.39,0,0,1,.79-2,5.57,5.57,0,0,1,1.44-1.63,7.08,7.08,0,0,1,2.14-1.1,8.88,8.88,0,0,1,2.9-.37v.74a6.7,6.7,0,0,0-3.29.53,6.2,6.2,0,0,0-2.29,1.76,7.35,7.35,0,0,0-1.33,2.58,10.51,10.51,0,0,0-.43,3V159.9Z"/><path class="cls-1" d="M225.15,141.07l-7,18.83h-.9l-7.6-18.83h.83l7.17,18.1h.07l6.62-18.1Z"/><path class="cls-1" d="M230.29,137.45v-3.7H231v3.7Zm0,22.45V141.07H231V159.9Z"/><path class="cls-1" d="M252.73,156.33a6.78,6.78,0,0,1-1.61,2.14,7.08,7.08,0,0,1-2.3,1.36,8.4,8.4,0,0,1-2.9.47,7.88,7.88,0,0,1-3.51-.75,7.43,7.43,0,0,1-2.57-2,8.89,8.89,0,0,1-1.59-3,12,12,0,0,1-.54-3.65,14.18,14.18,0,0,1,.52-3.9,9.81,9.81,0,0,1,1.59-3.26,7.7,7.7,0,0,1,2.7-2.25,8.16,8.16,0,0,1,3.83-.85,7.69,7.69,0,0,1,2.49.41,6.74,6.74,0,0,1,2.12,1.17,6.48,6.48,0,0,1,1.57,1.92,7.34,7.34,0,0,1,.81,2.66h-.72a6.92,6.92,0,0,0-.8-2.4,6.11,6.11,0,0,0-1.4-1.69,5.63,5.63,0,0,0-1.87-1,7.28,7.28,0,0,0-2.2-.33,7.42,7.42,0,0,0-3.72.86,7,7,0,0,0-2.45,2.23,9.49,9.49,0,0,0-1.34,3.08,14.41,14.41,0,0,0-.41,3.35,10.94,10.94,0,0,0,.49,3.3,8.4,8.4,0,0,0,1.42,2.78,6.64,6.64,0,0,0,2.34,1.92,7,7,0,0,0,3.24.72,7.68,7.68,0,0,0,2.56-.42,6.32,6.32,0,0,0,2.1-1.23,6.35,6.35,0,0,0,2.18-4.47h.72A8.2,8.2,0,0,1,252.73,156.33Z"/><path class="cls-1" d="M260.27,154.17a8.2,8.2,0,0,0,1.28,2.84,6.06,6.06,0,0,0,2.23,1.9,7.25,7.25,0,0,0,3.35.7,7.44,7.44,0,0,0,4.84-1.56,7.08,7.08,0,0,0,2.39-4.67h.72a7.52,7.52,0,0,1-2.55,5.11,9.27,9.27,0,0,1-9,1.12,6.48,6.48,0,0,1-2.5-2.07,9.12,9.12,0,0,1-1.44-3.15,15.22,15.22,0,0,1-.47-3.9,12.05,12.05,0,0,1,.68-4.18,9.91,9.91,0,0,1,1.8-3.09,7.55,7.55,0,0,1,2.59-1.93,7.39,7.39,0,0,1,3-.66,7.7,7.7,0,0,1,3.73.85,7.33,7.33,0,0,1,2.55,2.23,9.38,9.38,0,0,1,1.44,3.19,13.14,13.14,0,0,1,.38,3.73H259.82A15.16,15.16,0,0,0,260.27,154.17Zm13.84-7.55a8.36,8.36,0,0,0-1.38-2.73,6.78,6.78,0,0,0-2.29-1.85,7.08,7.08,0,0,0-3.17-.67,6.81,6.81,0,0,0-2.82.58,6.63,6.63,0,0,0-2.31,1.71,8.81,8.81,0,0,0-1.6,2.69,11.36,11.36,0,0,0-.72,3.55h14.76A11.41,11.41,0,0,0,274.11,146.62Z"/><polygon class="cls-1" points="52.31 156.92 38.74 143.11 25.65 156.43 24.69 155.46 38.74 141.16 52.31 154.97 65.41 141.65 66.36 142.63 52.31 156.92"/></svg>