<svg width="216" height="30" viewBox="0 0 216 30" fill="none" xmlns="http://www.w3.org/2000/svg">
<g clip-path="url(#clip0_1020_1144)">
<path d="M83.4912 7.23449C85.1133 7.23449 86.349 7.77585 87.2662 8.8852C88.0389 9.81558 88.4592 11.0181 88.5241 12.4573H78.1737C78.4185 11.0344 78.9449 9.84517 79.7501 8.90739C80.7278 7.77881 81.9532 7.22857 83.4986 7.22857M91.5102 14.4098C91.5102 11.4027 90.8024 9.02276 89.4118 7.33211C87.9932 5.60891 86.0054 4.73474 83.4986 4.73474C80.9652 4.73474 78.9007 5.64293 77.3597 7.42825C75.9072 9.11447 75.1699 11.2592 75.1699 13.8019C75.1699 16.4347 75.8379 18.5676 77.1592 20.1474C78.6146 21.875 80.7514 22.7521 83.5 22.7521C85.6648 22.7521 87.4402 22.193 88.7792 21.0881C89.9176 20.1429 90.7817 18.7688 91.345 17.0086L91.5072 16.5042H88.4105L88.3338 16.8001C88.1031 17.8354 87.4898 18.7445 86.6174 19.3442C85.7488 19.9492 84.7004 20.2524 83.4912 20.2524C81.7497 20.2524 80.4314 19.7155 79.4684 18.6017C78.6309 17.6358 78.1767 16.3593 78.1147 14.8018H91.5028L91.5102 14.4098Z" fill="#9333EA"/>
<path d="M99.8077 7.65898H103.623V4.84862H99.5939V2.97159C99.5939 0 96.6918 0 96.6918 0V4.84862H93.9048V7.65898H96.6918V15.9806C96.6918 18.0322 97.3613 19.6962 98.6781 20.9269C99.995 22.1575 101.592 22.7536 103.615 22.7536V19.995C102.22 19.995 101.189 19.5379 100.455 18.5972C99.8844 17.871 99.5939 16.9598 99.5939 15.8845V7.65898H99.8077Z" fill="#9333EA"/>
<path d="M65.2046 7.51111C66.5996 7.51111 67.6348 7.96816 68.3721 8.90889C68.9398 9.63367 69.2273 10.5448 69.2273 11.6187V19.788C69.2273 22.761 72.1309 22.761 72.1309 22.761V11.5196C72.1309 9.49463 71.4776 7.84243 70.1947 6.59848C68.8749 5.35156 67.2454 4.74512 65.2046 4.74512C63.1637 4.74512 61.5726 5.33677 60.2705 6.57481C58.9684 7.81285 58.2827 9.46653 58.2827 11.5196V22.761H61.1818V11.6128C61.1818 10.5374 61.4767 9.62776 62.0445 8.9015C62.7818 7.96225 63.814 7.50519 65.2046 7.50519" fill="#9333EA"/>
<path d="M119.332 6.594C118.014 5.34709 116.383 4.74064 114.348 4.74064C112.771 4.74064 111.449 5.11042 110.325 5.85147V0H107.424V22.7787H110.32V11.6127C110.32 10.5374 110.615 9.62772 111.182 8.90146C111.919 7.96221 112.951 7.50515 114.343 7.50515C115.735 7.50515 116.772 7.96221 117.508 8.90294C118.077 9.62772 118.365 10.5389 118.365 11.6127V19.8101C118.365 22.7817 121.27 22.7817 121.27 22.7817V11.5151C121.27 9.49016 120.615 7.83796 119.327 6.594" fill="#9333EA"/>
<path d="M128.311 18.5396C128.57 18.9664 128.931 19.3221 129.361 19.575C129.818 19.8407 130.316 20.0272 130.835 20.1267C131.39 20.2396 131.955 20.2956 132.521 20.2938C132.989 20.2924 133.457 20.2593 133.922 20.1947C134.387 20.1332 134.842 20.0093 135.274 19.8264C135.675 19.6559 136.025 19.385 136.291 19.0395C136.57 18.6566 136.711 18.1906 136.691 17.7172C136.691 16.9805 136.413 16.4229 135.858 16.0442C135.215 15.6269 134.509 15.3168 133.767 15.1257C132.934 14.892 132.028 14.68 131.048 14.4897C130.117 14.3145 129.206 14.0454 128.328 13.6865C127.533 13.3671 126.821 12.8692 126.246 12.231C125.689 11.6068 125.411 10.7366 125.412 9.62035C125.391 8.8318 125.596 8.05383 126.002 7.37797C126.381 6.76306 126.894 6.24222 127.503 5.85446C128.139 5.45422 128.837 5.16048 129.567 4.98472C130.314 4.79812 131.08 4.70276 131.85 4.70073C132.757 4.69368 133.662 4.77742 134.553 4.9507C135.33 5.0996 136.071 5.39525 136.738 5.82192C137.378 6.24108 137.901 6.81682 138.257 7.49482C138.635 8.19791 138.857 9.07356 138.924 10.1218H136.083C136.06 9.62922 135.911 9.15099 135.65 8.73286C135.41 8.36899 135.09 8.06533 134.715 7.84538C134.329 7.61923 133.909 7.45644 133.472 7.36318C133.017 7.26377 132.553 7.21417 132.087 7.21526C131.657 7.21532 131.228 7.24895 130.803 7.31585C130.395 7.37549 129.998 7.49355 129.623 7.6664C129.286 7.81882 128.989 8.04829 128.756 8.33645C128.523 8.64911 128.404 9.03331 128.421 9.42362C128.415 9.65257 128.458 9.88014 128.548 10.0909C128.637 10.3017 128.77 10.4908 128.939 10.6454C129.324 10.994 129.771 11.2665 130.257 11.4486C130.842 11.6762 131.445 11.8553 132.059 11.984C132.727 12.1309 133.394 12.2818 134.062 12.4366C134.773 12.5934 135.468 12.7827 136.147 13.0046C136.788 13.2093 137.395 13.5084 137.949 13.8921C138.468 14.2566 138.901 14.7307 139.217 15.281C139.539 15.8391 139.7 16.5294 139.701 17.3518C139.701 18.401 139.484 19.2712 139.05 19.9625C138.62 20.6494 138.032 21.2234 137.335 21.6369C136.604 22.0718 135.802 22.3724 134.966 22.5244C134.103 22.6902 133.226 22.7744 132.347 22.7758C131.426 22.7817 130.508 22.6825 129.61 22.48C128.788 22.2984 128.007 21.9637 127.308 21.4934C126.636 21.0305 126.086 20.4101 125.707 19.6859C125.305 18.9374 125.083 18.0283 125.039 16.9584H127.876C127.881 17.5145 128.031 18.0597 128.311 18.5396Z" fill="#9333EA"/>
<path d="M186.184 7.92076H190V5.10152H185.968V3.22893C185.968 0.255859 183.065 0.255859 183.065 0.255859V5.10152H180.278V7.92076H183.065V16.238C183.065 18.291 183.736 19.955 185.051 21.1857C186.367 22.4163 187.966 23.0109 189.988 23.0109V20.2523C188.595 20.2523 187.564 19.7953 186.83 18.8546C186.259 18.1283 185.968 17.2157 185.968 16.1418V7.92076H186.184Z" fill="#9333EA"/>
<path d="M128.311 18.5396C128.57 18.9671 128.931 19.323 129.362 19.5749C129.819 19.8411 130.318 20.0276 130.837 20.1267C131.392 20.2396 131.956 20.2956 132.522 20.2938C132.991 20.2923 133.459 20.2592 133.923 20.1947C134.388 20.1332 134.843 20.0093 135.275 19.8264C135.676 19.6559 136.027 19.385 136.293 19.0395C136.571 18.6566 136.712 18.1906 136.692 17.7172C136.692 16.9805 136.415 16.4229 135.859 16.0442C135.216 15.6268 134.509 15.3166 133.767 15.1257C132.934 14.892 132.028 14.68 131.048 14.4897C130.117 14.3145 129.206 14.0454 128.328 13.6865C127.533 13.3671 126.821 12.8692 126.246 12.231C125.689 11.6068 125.411 10.7366 125.412 9.62034C125.391 8.83179 125.596 8.05383 126.002 7.37797C126.381 6.76306 126.894 6.24222 127.503 5.85446C128.139 5.45422 128.837 5.16048 129.567 4.98472C130.314 4.79812 131.08 4.70276 131.85 4.70073C132.757 4.69368 133.662 4.77742 134.553 4.9507C135.33 5.09988 136.071 5.39551 136.738 5.82192C137.378 6.24108 137.901 6.81682 138.257 7.49482C138.635 8.19791 138.857 9.07356 138.924 10.1218H136.083C136.06 9.62922 135.911 9.15099 135.65 8.73286C135.41 8.36899 135.09 8.06532 134.715 7.84538C134.329 7.61923 133.909 7.45644 133.472 7.36318C133.017 7.26385 132.553 7.21426 132.087 7.21526C131.657 7.21532 131.228 7.24895 130.803 7.31585C130.395 7.37549 129.998 7.49355 129.623 7.6664C129.286 7.81882 128.989 8.04829 128.756 8.33645C128.523 8.64925 128.405 9.03347 128.423 9.42362C128.417 9.65246 128.46 9.87996 128.549 10.0907C128.638 10.3015 128.771 10.4907 128.939 10.6454C129.324 10.994 129.771 11.2665 130.257 11.4486C130.842 11.6762 131.445 11.8553 132.059 11.984C132.727 12.1309 133.394 12.2818 134.062 12.4366C134.773 12.5934 135.468 12.7827 136.147 13.0046C136.788 13.2096 137.395 13.5087 137.949 13.8921C138.468 14.2566 138.901 14.7307 139.217 15.281C139.539 15.8391 139.7 16.5294 139.701 17.3518C139.701 18.401 139.484 19.2712 139.05 19.9625C138.62 20.6494 138.032 21.2234 137.335 21.6369C136.605 22.0721 135.802 22.3726 134.966 22.5244C134.103 22.6902 133.226 22.7744 132.347 22.7758C131.426 22.7818 130.508 22.6826 129.61 22.48C128.788 22.299 128.007 21.9643 127.308 21.4934C126.636 21.0305 126.086 20.4101 125.707 19.6859C125.305 18.9394 125.083 18.0302 125.039 16.9584H127.876C127.881 17.5145 128.031 18.0597 128.311 18.5396Z" fill="#9333EA"/>
<path d="M165.097 16.5649C165.338 17.3169 165.73 18.0118 166.247 18.6076C166.724 19.1448 167.31 19.5726 167.966 19.8619C168.624 20.1488 169.334 20.2968 170.052 20.2968C170.769 20.2968 171.479 20.1488 172.137 19.8619C172.793 19.5726 173.379 19.1448 173.856 18.6076C174.373 18.0115 174.764 17.3166 175.006 16.5649C175.298 15.6631 175.439 14.7189 175.424 13.7708C175.439 12.8223 175.298 11.8776 175.006 10.9753C174.761 10.2203 174.371 9.5211 173.856 8.91777C173.383 8.37228 172.796 7.93797 172.137 7.64571C171.479 7.35884 170.769 7.2108 170.052 7.2108C169.334 7.2108 168.624 7.35884 167.966 7.64571C167.307 7.93797 166.72 8.37228 166.247 8.91777C165.732 9.52074 165.341 10.22 165.097 10.9753C164.805 11.8776 164.664 12.8223 164.68 13.7708C164.664 14.7189 164.805 15.6631 165.097 16.5649ZM162.21 10.2046C162.541 9.14494 163.087 8.16511 163.812 7.32622C164.541 6.50042 165.44 5.84417 166.448 5.40334C167.586 4.91614 168.814 4.67667 170.052 4.70075C171.428 4.70075 172.635 4.93494 173.672 5.40334C174.673 5.84781 175.567 6.50369 176.292 7.32622C177.017 8.16559 177.562 9.14529 177.894 10.2046C178.257 11.3575 178.437 12.5604 178.427 13.7693C178.438 14.9735 178.258 16.1718 177.894 17.3193C177.56 18.3728 177.015 19.3468 176.292 20.1814C175.57 21.0036 174.675 21.6552 173.672 22.0895C172.639 22.5461 171.432 22.7748 170.052 22.7758C168.816 22.7992 167.589 22.5655 166.448 22.0895C165.438 21.6588 164.538 21.0068 163.812 20.1814C163.089 19.3472 162.543 18.3732 162.21 17.3193C161.845 16.1718 161.665 14.9735 161.676 13.7693C161.666 12.5604 161.846 11.3575 162.21 10.2046Z" fill="#9333EA"/>
<path d="M156.004 16.0798C155.843 16.8395 155.55 17.5646 155.137 18.2216C154.738 18.8451 154.194 19.3623 153.552 19.7288C152.896 20.1075 152.079 20.2968 151.1 20.2968C150.12 20.2968 149.285 20.1129 148.593 19.7451C147.926 19.3972 147.349 18.899 146.907 18.2896C146.461 17.6587 146.138 16.9484 145.956 16.1966C145.561 14.6082 145.557 12.9473 145.944 11.3569C146.118 10.6088 146.429 9.89966 146.861 9.26537C147.286 8.6497 147.845 8.14007 148.497 7.77588C149.163 7.40215 149.975 7.21529 150.931 7.21529C151.758 7.19592 152.577 7.37974 153.317 7.75073C153.979 8.09205 154.551 8.58514 154.987 9.18994C155.43 9.81188 155.757 10.5089 155.954 11.2474C156.165 12.0184 156.272 12.8144 156.271 13.614C156.273 14.4467 156.183 15.2771 156.004 16.0901M158.773 10.3215C158.462 9.27229 157.959 8.29058 157.288 7.4268C156.625 6.58701 155.781 5.90802 154.82 5.44032C153.829 4.94727 152.667 4.70075 151.333 4.70075H151.299C150.062 4.67666 148.834 4.91613 147.696 5.40334C146.688 5.84411 145.788 6.50036 145.059 7.32622C144.334 8.16483 143.789 9.14477 143.458 10.2046C143.094 11.3573 142.914 12.5603 142.924 13.7693V29.0045H145.76V20.0971H145.826C146.125 20.596 146.516 21.0332 146.978 21.3854C147.422 21.7244 147.91 22.0002 148.429 22.2049C148.932 22.4035 149.454 22.5493 149.988 22.6397C150.455 22.7247 150.929 22.7697 151.405 22.7743C152.717 22.7743 153.868 22.5402 154.858 22.0718C155.817 21.6276 156.661 20.9699 157.328 20.1489C158.004 19.3022 158.505 18.3294 158.803 17.2867C159.128 16.1547 159.288 14.9814 159.278 13.8034C159.283 12.624 159.113 11.4505 158.773 10.3215Z" fill="#9333EA"/>
<path d="M45.9549 16.0413C45.7969 16.0413 45.6404 16.0101 45.4944 15.9494C45.3484 15.8888 45.2158 15.7999 45.104 15.6878C44.3243 14.9056 43.3987 14.2851 42.3799 13.8618C41.3611 13.4385 40.2692 13.2206 39.1665 13.2206C38.0637 13.2206 36.9718 13.4385 35.953 13.8618C34.9343 14.2851 34.0086 14.9056 33.2289 15.6878C33.0011 15.9044 32.6979 16.0233 32.384 16.0191C32.0701 16.0149 31.7702 15.8879 31.5482 15.6653C31.3262 15.4426 31.1996 15.1418 31.1954 14.8269C31.1912 14.512 31.3097 14.2079 31.5257 13.9794C32.529 12.9728 33.7202 12.1743 35.0312 11.6295C36.3422 11.0847 37.7474 10.8043 39.1665 10.8043C40.5855 10.8043 41.9907 11.0847 43.3017 11.6295C44.6127 12.1743 45.8039 12.9728 46.8072 13.9794C46.9756 14.1483 47.0902 14.3635 47.1366 14.5977C47.183 14.832 47.159 15.0748 47.0678 15.2954C46.9765 15.516 46.822 15.7045 46.6239 15.837C46.4258 15.9695 46.193 16.0401 45.9549 16.0398" fill="#9333EA"/>
<path d="M50.1278 11.8553C49.969 11.8564 49.8115 11.8261 49.6645 11.7659C49.5174 11.7057 49.3837 11.617 49.271 11.5047C46.5891 8.81801 42.9537 7.30893 39.1633 7.30893C35.3728 7.30893 31.7374 8.81801 29.0555 11.5047C28.8294 11.7313 28.5229 11.8584 28.2034 11.8583C27.8838 11.8582 27.5774 11.7307 27.3515 11.504C27.1257 11.2772 26.9989 10.9698 26.999 10.6492C26.9992 10.3287 27.1262 10.0214 27.3523 9.79482C28.9036 8.23847 30.7454 7.00389 32.7724 6.16158C34.7995 5.31927 36.9721 4.88574 39.1662 4.88574C41.3603 4.88574 43.5329 5.31927 45.56 6.16158C47.587 7.00389 49.4288 8.23847 50.9801 9.79482C51.1485 9.96371 51.2631 10.1789 51.3095 10.4132C51.3559 10.6474 51.3319 10.8903 51.2407 11.1109C51.1494 11.3315 50.995 11.52 50.7968 11.6525C50.5987 11.785 50.3659 11.8556 50.1278 11.8553Z" fill="#9333EA"/>
<path d="M41.3775 18.8768C41.3775 19.3156 41.2477 19.7446 41.0047 20.1094C40.7616 20.4743 40.4162 20.7587 40.012 20.9266C39.6078 21.0945 39.1631 21.1385 38.734 21.0529C38.3049 20.9673 37.9108 20.7559 37.6015 20.4457C37.2921 20.1354 37.0815 19.74 36.9961 19.3096C36.9108 18.8793 36.9546 18.4331 37.122 18.0277C37.2894 17.6223 37.5729 17.2758 37.9367 17.032C38.3004 16.7882 38.7281 16.6581 39.1655 16.6581C39.7522 16.6581 40.3148 16.8918 40.7296 17.3079C41.1444 17.724 41.3775 18.2884 41.3775 18.8768Z" fill="#9333EA"/>
</g>
<defs>
<clipPath id="clip0_1020_1144">
<rect width="163" height="29" fill="white" transform="translate(27)"/>
</clipPath>
</defs>
</svg>
