<svg id="Livello_1" data-name="Livello 1" xmlns="http://www.w3.org/2000/svg" viewBox="0 0 300 300"><defs><style>.cls-1{fill:#9d9d9c;}</style></defs><title>loghi_svg</title><path class="cls-1" d="M110,150.44a7.28,7.28,0,0,0-1.38-4.69,4.73,4.73,0,0,0-3.88-1.73,5.06,5.06,0,0,0-4,1.79A6.33,6.33,0,0,0,99.31,150a6.46,6.46,0,0,0,1.3,4.21,5.13,5.13,0,0,0,4.16,1.73,5.24,5.24,0,0,0,3.47-1.11,5.71,5.71,0,0,0,1.68-2.7l.11-.34h-2l0,.2a2.78,2.78,0,0,1-1.12,1.69,3.49,3.49,0,0,1-2,.6,3.26,3.26,0,0,1-2.64-1.1,4,4,0,0,1-.89-2.52H110Zm-5.26-4.76a3,3,0,0,1,2.48,1.09,3.89,3.89,0,0,1,.82,2.37h-6.79a4.78,4.78,0,0,1,1-2.35A3.06,3.06,0,0,1,104.77,145.68Z"/><path class="cls-1" d="M115.48,146H118v-1.87h-2.64v-1.24a1.89,1.89,0,0,0-1.91-2v3.21H111.6V146h1.83v5.52a4.32,4.32,0,0,0,1.31,3.29A4.47,4.47,0,0,0,118,156v-1.84a2.45,2.45,0,0,1-2.08-.92,2.88,2.88,0,0,1-.56-1.8V146Z"/><path class="cls-1" d="M142.27,150.44a7.28,7.28,0,0,0-1.37-4.69A4.75,4.75,0,0,0,137,144a5,5,0,0,0-4,1.79,6.29,6.29,0,0,0-1.44,4.23,6.4,6.4,0,0,0,1.31,4.21A5.11,5.11,0,0,0,137,156a5.21,5.21,0,0,0,3.46-1.11,5.64,5.64,0,0,0,1.68-2.7l.11-.34h-2l-.05.2a2.82,2.82,0,0,1-1.12,1.69,3.49,3.49,0,0,1-2,.6,3.25,3.25,0,0,1-2.64-1.1,4,4,0,0,1-.89-2.52h8.78ZM137,145.68a3,3,0,0,1,2.47,1.09,3.9,3.9,0,0,1,.83,2.37h-6.8a4.87,4.87,0,0,1,1-2.35A3.08,3.08,0,0,1,137,145.68Z"/><path class="cls-1" d="M92.77,145.86a2.45,2.45,0,0,1,2.08.92,2.88,2.88,0,0,1,.56,1.8V154a1.89,1.89,0,0,0,1.91,2v-7.46a4.4,4.4,0,0,0-1.27-3.27A4.51,4.51,0,0,0,92.77,144a4.43,4.43,0,0,0-3.23,1.22,4.29,4.29,0,0,0-1.31,3.28V156h1.9v-7.4a2.83,2.83,0,0,1,.57-1.8A2.44,2.44,0,0,1,92.77,145.86Z"/><path class="cls-1" d="M128.29,145.25A4.49,4.49,0,0,0,125,144a4.63,4.63,0,0,0-2.64.74v-4.37h-1.9v11.44h1.9v-3.25a2.88,2.88,0,0,1,.56-1.8,2.8,2.8,0,0,1,4.15,0,2.83,2.83,0,0,1,.57,1.8V154a1.88,1.88,0,0,0,1.9,2v-7.47A4.4,4.4,0,0,0,128.29,145.25Z"/><path class="cls-1" d="M152.67,150.19a5.16,5.16,0,0,0-2-.81l-2.06-.48a7.61,7.61,0,0,1-1.6-.5,1.16,1.16,0,0,1-.66-1.08,1.35,1.35,0,0,1,.66-1.2,3,3,0,0,1,1.64-.41,3.38,3.38,0,0,1,1.54.31,1.8,1.8,0,0,1,1,1.48h2A3.22,3.22,0,0,0,152,145a5.11,5.11,0,0,0-3.11-.95,4.84,4.84,0,0,0-3.3,1,3.18,3.18,0,0,0-1.1,2.47,2.64,2.64,0,0,0,1.11,2.38,7.92,7.92,0,0,0,2.52.87l1.27.28a5.79,5.79,0,0,1,1.68.56,1.16,1.16,0,0,1,.6,1,1.51,1.51,0,0,1-1.16,1.51,4.82,4.82,0,0,1-1.5.2,2.77,2.77,0,0,1-2.22-.78,2.31,2.31,0,0,1-.46-1.13h-2a3.23,3.23,0,0,0,1.26,2.55,5.62,5.62,0,0,0,3.54,1,5.1,5.1,0,0,0,3.41-1,3.16,3.16,0,0,0,1.19-2.52A2.65,2.65,0,0,0,152.67,150.19Z"/><path class="cls-1" d="M167.82,150.19a5.16,5.16,0,0,0-2-.81l-2.06-.48a7.4,7.4,0,0,1-1.6-.5,1.16,1.16,0,0,1-.66-1.08,1.35,1.35,0,0,1,.66-1.2,3,3,0,0,1,1.64-.41,3.38,3.38,0,0,1,1.54.31,1.82,1.82,0,0,1,1,1.48h2a3.18,3.18,0,0,0-1.31-2.53A5.11,5.11,0,0,0,164,144a4.84,4.84,0,0,0-3.3,1,3.18,3.18,0,0,0-1.1,2.47,2.64,2.64,0,0,0,1.11,2.38,7.92,7.92,0,0,0,2.52.87l1.27.28a5.79,5.79,0,0,1,1.68.56,1.16,1.16,0,0,1,.6,1,1.51,1.51,0,0,1-1.17,1.51,4.7,4.7,0,0,1-1.49.2,2.77,2.77,0,0,1-2.22-.78,2.41,2.41,0,0,1-.47-1.13h-2a3.23,3.23,0,0,0,1.26,2.55,5.6,5.6,0,0,0,3.54,1,5.1,5.1,0,0,0,3.41-1,3.16,3.16,0,0,0,1.19-2.52A2.68,2.68,0,0,0,167.82,150.19Z"/><path class="cls-1" d="M155.52,144a1.88,1.88,0,0,1,1.9,2v10h-1.9Z"/><path class="cls-1" d="M157.53,158.61a1.07,1.07,0,1,1-1.06-1.08A1.08,1.08,0,0,1,157.53,158.61Z"/><path class="cls-1" d="M180.64,146a2.6,2.6,0,0,0-.77-1,3.2,3.2,0,0,0-1.2-.58,6.06,6.06,0,0,0-1.53-.18,4.67,4.67,0,0,0-1.94.33,2.82,2.82,0,0,0-1,.75,2,2,0,0,0-.44.83,3.09,3.09,0,0,0-.09.57A2.15,2.15,0,0,0,174,148a2.18,2.18,0,0,0,.94.71,10.91,10.91,0,0,0,1.33.44l1.67.43,1.36.37a4.68,4.68,0,0,1,1.2.54,2.75,2.75,0,0,1,.87.86,2.64,2.64,0,0,1,.33,1.37,2.83,2.83,0,0,1-.38,1.5,3.12,3.12,0,0,1-1,1,4.33,4.33,0,0,1-1.36.56,7.23,7.23,0,0,1-1.52.17,5.24,5.24,0,0,1-3.53-1,4,4,0,0,1-1.2-3.23h.46a3.58,3.58,0,0,0,1.1,2.9,4.79,4.79,0,0,0,3.17.92,6,6,0,0,0,1.31-.14,4,4,0,0,0,1.22-.48,3,3,0,0,0,.9-.85,2.29,2.29,0,0,0,.35-1.28,2.1,2.1,0,0,0-.35-1.25,2.76,2.76,0,0,0-.91-.78,5,5,0,0,0-1.29-.49l-1.48-.37c-.56-.13-1-.26-1.47-.38a7.87,7.87,0,0,1-1.14-.41,2.22,2.22,0,0,1-1.07-.89,2.93,2.93,0,0,1-.34-1.52,2.83,2.83,0,0,1,.2-1,2.6,2.6,0,0,1,.69-1,3.5,3.5,0,0,1,1.22-.7,5.26,5.26,0,0,1,1.85-.28,4.91,4.91,0,0,1,3.09.89,3.38,3.38,0,0,1,1.14,2.84h-.46A3.72,3.72,0,0,0,180.64,146Z"/><path class="cls-1" d="M192.24,155.69V152.8h-.05a4,4,0,0,1-1.4,2.25,4.27,4.27,0,0,1-2.8.89,5.28,5.28,0,0,1-1.68-.26,3.71,3.71,0,0,1-1.32-.8,3.64,3.64,0,0,1-.86-1.32,5,5,0,0,1-.31-1.81V144h.46v7.68a4.65,4.65,0,0,0,.29,1.74,3.14,3.14,0,0,0,2,1.87,4.76,4.76,0,0,0,1.43.21,3.86,3.86,0,0,0,3.17-1.46,5,5,0,0,0,.81-1.56,6.36,6.36,0,0,0,.27-1.87V144h.45v11.69Z"/><path class="cls-1" d="M195.2,159.69V144h.45v3.27h0a5.12,5.12,0,0,1,.66-1.42,4.78,4.78,0,0,1,1-1.13,4.41,4.41,0,0,1,1.35-.74,5.19,5.19,0,0,1,1.65-.26,4.54,4.54,0,0,1,2.08.46,4.5,4.5,0,0,1,1.57,1.27,6,6,0,0,1,1,1.93,8.27,8.27,0,0,1,.34,2.44,8.17,8.17,0,0,1-.33,2.34,6.38,6.38,0,0,1-.95,2,4.65,4.65,0,0,1-1.56,1.33,4.59,4.59,0,0,1-2.14.49,4.78,4.78,0,0,1-3.07-1,4.66,4.66,0,0,1-1.61-2.56h0v7.28Zm7.24-4.7a4.42,4.42,0,0,0,1.4-1.32,5.91,5.91,0,0,0,.81-1.82,8.25,8.25,0,0,0,.26-2,7.87,7.87,0,0,0-.29-2.15,5.74,5.74,0,0,0-.84-1.8,4.11,4.11,0,0,0-1.41-1.24,4.2,4.2,0,0,0-2-.45,4.36,4.36,0,0,0-2,.45,4.57,4.57,0,0,0-1.49,1.23,5.67,5.67,0,0,0-.92,1.8,7.28,7.28,0,0,0-.32,2.16A6.16,6.16,0,0,0,197,154a4.34,4.34,0,0,0,3.43,1.46A3.93,3.93,0,0,0,202.44,155Z"/><path class="cls-1" d="M207.41,159.69V144h.45v3.27h0a5.12,5.12,0,0,1,.66-1.42,5.25,5.25,0,0,1,1-1.13A4.58,4.58,0,0,1,211,144a5.1,5.1,0,0,1,1.65-.26,4.57,4.57,0,0,1,2.08.46,4.69,4.69,0,0,1,1.57,1.27,6,6,0,0,1,1,1.93,8.61,8.61,0,0,1,.34,2.44,8.17,8.17,0,0,1-.33,2.34,6.18,6.18,0,0,1-1,2,4.46,4.46,0,0,1-3.69,1.82,4.81,4.81,0,0,1-3.08-1,4.66,4.66,0,0,1-1.61-2.56h0v7.28Zm7.24-4.7a4.32,4.32,0,0,0,1.4-1.32,5.47,5.47,0,0,0,.81-1.82,8.25,8.25,0,0,0,.26-2,7.87,7.87,0,0,0-.28-2.15,5.74,5.74,0,0,0-.84-1.8,4.3,4.3,0,0,0-1.41-1.24,4.23,4.23,0,0,0-2-.45,4.4,4.4,0,0,0-2,.45,4.68,4.68,0,0,0-1.49,1.23,5.88,5.88,0,0,0-.92,1.8,7.28,7.28,0,0,0-.32,2.16,6.21,6.21,0,0,0,1.3,4.22,4.36,4.36,0,0,0,3.44,1.46A3.9,3.9,0,0,0,214.65,155Z"/><path class="cls-1" d="M219.35,147.53a6.07,6.07,0,0,1,1-1.94,5.32,5.32,0,0,1,1.65-1.36,4.85,4.85,0,0,1,2.28-.51,4.78,4.78,0,0,1,2.25.51,5.32,5.32,0,0,1,1.65,1.36,6.07,6.07,0,0,1,1,1.94,8,8,0,0,1,0,4.62,6,6,0,0,1-1,1.94,5,5,0,0,1-1.65,1.35,5,5,0,0,1-2.28.5,4.91,4.91,0,0,1-2.25-.5,5,5,0,0,1-1.65-1.35,6,6,0,0,1-1-1.94,8,8,0,0,1,0-4.62Zm.42,4.45a5.62,5.62,0,0,0,.92,1.81A4.68,4.68,0,0,0,222.2,155a4.5,4.5,0,0,0,2.09.46,4.36,4.36,0,0,0,2.05-.46,4.62,4.62,0,0,0,1.52-1.25,5.62,5.62,0,0,0,.92-1.81,7.58,7.58,0,0,0,.31-2.14,7.43,7.43,0,0,0-.31-2.11,5.43,5.43,0,0,0-.92-1.81,4.67,4.67,0,0,0-1.52-1.27,4.36,4.36,0,0,0-2.05-.47,4.5,4.5,0,0,0-2.09.47,4.74,4.74,0,0,0-1.51,1.27,5.43,5.43,0,0,0-.92,1.81,7.43,7.43,0,0,0-.31,2.11A7.58,7.58,0,0,0,219.77,152Z"/><path class="cls-1" d="M231.43,155.69V144h.45v2.88h.05a4.3,4.3,0,0,1,.5-1.24,3.62,3.62,0,0,1,.91-1,4.5,4.5,0,0,1,1.35-.68,5.73,5.73,0,0,1,1.83-.23v.46a4.29,4.29,0,0,0-2.08.33A3.93,3.93,0,0,0,233,145.6a4.54,4.54,0,0,0-.84,1.6,6.23,6.23,0,0,0-.28,1.87v6.62Z"/><path class="cls-1" d="M239.71,153.41a3.11,3.11,0,0,0,.14,1,1.33,1.33,0,0,0,.38.54,1.07,1.07,0,0,0,.5.22,4.93,4.93,0,0,0,.55,0h.61a1.44,1.44,0,0,0,.39-.06v.46l-.4,0a5.64,5.64,0,0,1-.72,0,2,2,0,0,1-1.35-.47,2.16,2.16,0,0,1-.56-1.72v-9.05h-2.14V144h2.14v-3.69h.46V144h2.64v.45h-2.64Z"/><path class="cls-1" d="M77,149.57H76.8a9.35,9.35,0,0,0-18.49.1h-.05a.61.61,0,0,0-.61.6v3a.62.62,0,0,0,.61.61h.65a.62.62,0,0,0,.61-.61v-.1l.33.14a7.93,7.93,0,1,0-.16-1.6,8.88,8.88,0,0,0,.05.9l-.22-.1v-2.26a.6.6,0,0,0-.6-.6,8.75,8.75,0,0,1,17.27-.09.61.61,0,0,0-.48.59v3a.6.6,0,0,0,.6.6H77a.6.6,0,0,0,.6-.6v-3A.6.6,0,0,0,77,149.57Zm-2.49,2.16a6.86,6.86,0,0,1-13.4,2.1l4.22,1.76v.07a1,1,0,1,0,1-1,1,1,0,0,0-.72.33l-4.65-1.93a6.85,6.85,0,0,1-.13-1.37,6.71,6.71,0,0,1,.44-2.42,13.78,13.78,0,0,0,8.85-4A6.88,6.88,0,0,1,74.48,151.73Z"/><path class="cls-1" d="M65.5,150.25l.68-.69a1.17,1.17,0,0,0-.93-.47,1.16,1.16,0,0,0,0,2.32,1.17,1.17,0,0,0,.93-.47Z"/><path class="cls-1" d="M70,150.25l.69-.69a1.16,1.16,0,1,0,0,1.38Z"/></svg>